<svg version="1.1" id="Слой_1" xmlns="http://www.w3.org/2000/svg" xmlns:xlink="http://www.w3.org/1999/xlink" x="0px" y="0px" viewBox="0 0 499 317"  enable-background="new 0 0 499 317" xml:space="preserve">
		<style>
			.color{
				fill: #c8ab85;
			}
		</style>
		<path class="color" d="M224.1,170.4l17.3-19.6c3.3-4.2,2.8-7.5-0.2-13.1c-13.4-22.3-38.8-36.7-67.2-33.9 
	c-33.3,3.2-60.2,30.4-63.1,63.7c-0.8,9,0.1,17.8,2.6,25.9c2.2,7.1,6.9,11,11.2,13.1c4.9,4.6,8.2,10.8,9.2,17.8
	c0.1,1.4,0.2,2.9,0.2,4.3c0,0.1,0,0.2,0,0.3c0,12.8-8,24.5-20.1,28.6c-19.9,6.9-38.6-6.6-41-24.9c19.2-2.2,34.2-18.6,34.3-38.3l0,0
	c0-8.6-2.8-16.5-7.5-23c0.2,0.1,0.3,0.2,0.5,0.3c-3.8-4.2-8.1-7.9-13.6-10.4c-0.2-0.1-0.4-0.3-0.4-0.5c-8.2-2.1-17-2.8-26.1-1.8
	c-27.8,3.3-50.8,23.2-58.8,49.3c-1.6,6.3,1.3,10.1,2.3,11.6c5.6,6.4,13.2,10.8,21.7,12.4L8.3,252.1c-3.3,4.2-2.8,7.5,0.3,13.1
	c13.5,22.3,38.9,36.5,67.3,33.7c33.3-3.3,60-30.6,62.9-64c0.8-9-0.2-17.8-2.7-25.9c-2.2-7-6.9-10.9-11.2-13.1
	c-4.9-4.7-8.2-10.9-9.2-17.9c-0.1-1.4-0.1-2.9-0.1-4.3c0-0.1,0-0.2,0-0.3c0.1-12.8,8.1-24.4,20.2-28.6c19.9-6.8,38.5,6.7,40.9,25.1
	c-19.2,2.2-34.3,18.4-34.5,38.2h0c0,8.6,2.8,16.6,7.4,23c-0.2-0.1-0.3-0.2-0.4-0.3c3.8,4.2,8.1,8,13.6,10.4c0.2,0.1,0.4,0.3,0.4,0.5
	c8.2,2.2,17,2.9,26.1,1.9c27.8-3.2,50.9-23,59-49.1c1.6-6.3-1.2-10.1-2.3-11.6C240.2,176.5,232.6,172.1,224.1,170.4z M17.5,220.8
	c-8-4.6-10.8-15-6.3-23.1c4.6-8.4,10.9-15.6,18.5-21.3l0.2,48.4C25.4,224.4,21.2,223,17.5,220.8z M16.7,268.7
	c-3.2-4.2-3.1-10.2,0.4-14.2l12.8-14.6l0.2,41.8C25,278,20.5,273.6,16.7,268.7z M45.7,186.4c0-12.5,10.2-22.9,22.7-22.9l0,0
	c16.9-0.1,30.7,13.8,30.8,31h0c0,1.3-0.1,2.7-0.3,4c-2.3,16.1-26.2,14.1-26.3-2.1c0-2.3-1.8-4.1-4.1-4.1c-2.3,0-4.1,1.8-4.1,4.1
	l0.1,28.5l-18.7,0.1L45.7,186.4z M68.9,294.4c-0.1,0-0.2,0-0.2,0c-12.5,0-22.6-10.4-22.6-22.9l-0.1-38.4l19-0.1
	c2.2,19.4,18.8,34.7,38.8,34.6l17.9-0.1C109.6,283.8,90.5,294.3,68.9,294.4z M219.8,121.1c5,3.7,9.5,8.1,13.3,13.1
	c3.2,4.3,3.1,10.2-0.5,14.2l-12.8,14.5V121.1z M203.8,216.4c0,12.5-10.3,22.8-22.8,22.8v0c-16.9,0-30.7-14-30.7-31.1h0
	c0-1.3,0.1-2.7,0.3-4c2.3-16.1,26.3-14,26.3,2.2c0,2.3,1.8,4.1,4.1,4.1c2.3,0,4.1-1.8,4.1-4.1v-28.5h18.7V216.4z M203.8,169.7h-19
	c-2.1-19.4-18.6-34.8-38.6-34.8h-17.9c11.9-16.1,31.1-26.6,52.7-26.6c0.1,0,0.2,0,0.2,0c12.5,0,22.6,10.5,22.6,23V169.7z
	 M238.4,205.2c-4.6,8.3-10.9,15.6-18.6,21.2V178c4.4,0.5,8.6,1.9,12.3,4C240.1,186.8,242.8,197.1,238.4,205.2z"/>
<path class="color" d="M1,49.1c-0.7,2.9-0.5,5.3,0,7.1L1,49.1C1,49.1,1,49.1,1,49.1z"/>
<path class="color" d="M25,73.2L7.8,92.8C4.5,97.1,5,100.4,8.1,106c13.5,22.3,38.9,36.5,67.3,33.7c33.3-3.3,60-30.6,62.9-64
	c0.8-9-0.2-17.8-2.7-25.9c-2.2-7-6.9-10.9-11.2-13.1c-4.9-4.7-8.2-10.9-9.2-17.9c-0.1-1.4-0.1-2.9-0.1-4.3c0-0.1,0-0.2,0-0.3
	c0-5,1.3-9.9,3.5-14.2h-6.9c-0.6,2.7-1,5.5-1.2,8.3c-0.8,9,0.1,17.8,2.6,25.9c2.2,7.1,6.9,11,11.2,13.1c4.9,4.6,8.2,10.8,9.2,17.8
	c0.1,1.4,0.2,2.9,0.2,4.3c0,0.1,0,0.2,0,0.3c0,12.8-8,24.5-20.1,28.6c-19.9,6.9-38.6-6.6-41-24.9c19.2-2.2,34.2-18.6,34.3-38.3l0,0
	c0-8.6-2.8-16.5-7.5-23c0.2,0.1,0.3,0.2,0.5,0.3C96.1,8.2,91.8,4.5,86.3,2c-0.2-0.1-0.4-0.3-0.4-0.5c-2.7-0.7-5.4-1.2-8.1-1.6H58.6
	C31.3,3.7,8.9,23.4,1,49.1v7.2c0.6,2.2,1.7,3.7,2.3,4.5C9,67.2,16.6,71.5,25,73.2z M103.1,108.4l17.9-0.1
	c-11.9,16.2-31,26.7-52.6,26.8c-0.1,0-0.2,0-0.2,0c-12.5,0-22.6-10.4-22.6-22.9l-0.1-38.4l19-0.1C66.6,93.2,83.1,108.5,103.1,108.4z
	 M67.9,4.2L67.9,4.2c16.9-0.1,30.7,13.9,30.8,31h0c0,1.3-0.1,2.7-0.3,4C96.2,55.2,72.2,53.3,72.1,37c0-2.3-1.8-4.1-4.1-4.1
	c-2.3,0-4.1,1.8-4.1,4.1l0.1,28.5l-18.7,0.1l-0.1-38.6C45.2,14.6,55.4,4.3,67.9,4.2z M29.5,122.5c-5-3.7-9.5-8.1-13.3-13.1
	c-3.2-4.2-3.1-10.2,0.4-14.2l12.8-14.6L29.5,122.5z M10.6,38.5c4.6-8.4,10.9-15.6,18.5-21.3l0.2,48.4c-4.4-0.5-8.6-1.8-12.3-4
	C9,56.9,6.2,46.6,10.6,38.5z"/>
<path class="color" d="M219.3,3.7V0h-16.1v10.4h-19c-0.4-3.6-1.3-7.1-2.6-10.4h-9.1c1.8,3.3,3,6.9,3.5,10.7
	c-19.2,2.2-34.3,18.4-34.5,38.2h0c0,8.6,2.8,16.6,7.4,23c-0.2-0.1-0.3-0.2-0.4-0.3c3.8,4.2,8.1,8,13.6,10.4c0.2,0.1,0.4,0.3,0.4,0.5
	c8.2,2.2,17,2.9,26.1,1.9c27.8-3.2,50.9-23,59-49.1c1.6-6.3-1.2-10.1-2.3-11.6c-5.6-6.5-13.2-10.9-21.6-12.5L233.5,0h-10.9
	L219.3,3.7z M203.3,57.2c0,12.5-10.3,22.8-22.8,22.8v0c-16.9,0-30.7-14-30.7-31.1h0c0-1.3,0.1-2.7,0.3-4c2.3-16.1,26.3-14,26.3,2.2
	c0,2.3,1.8,4.1,4.1,4.1c2.3,0,4.1-1.8,4.1-4.1V18.6h18.7V57.2z M231.6,22.8c7.9,4.7,10.7,15,6.3,23.1c-4.6,8.3-10.9,15.6-18.6,21.2
	V18.8C223.8,19.2,227.9,20.6,231.6,22.8z"/>
<path class="color" d="M473.6,170l17.3-19.6c3.3-4.2,2.8-7.5-0.2-13.1c-13.4-22.3-38.8-36.7-67.2-33.9
	c-33.3,3.2-60.2,30.4-63.1,63.7c-0.8,9,0.1,17.8,2.6,25.9c2.2,7.1,6.9,11,11.2,13.1c4.9,4.6,8.2,10.8,9.2,17.8
	c0.1,1.4,0.2,2.9,0.2,4.3c0,0.1,0,0.2,0,0.3c0,12.8-8,24.5-20.1,28.6c-19.9,6.9-38.6-6.6-41-24.9c19.2-2.2,34.2-18.6,34.3-38.3l0,0
	c0-8.6-2.8-16.5-7.5-23c0.2,0.1,0.3,0.2,0.5,0.3c-3.8-4.2-8.1-7.9-13.6-10.4c-0.2-0.1-0.4-0.3-0.4-0.5c-8.2-2.1-17-2.8-26.1-1.8
	C282,162,259,181.9,251,208c-1.6,6.3,1.3,10.1,2.3,11.6c5.6,6.4,13.2,10.8,21.7,12.4l-17.2,19.7c-3.3,4.2-2.8,7.5,0.3,13.1
	c13.5,22.3,38.9,36.5,67.3,33.7c33.3-3.3,60-30.6,62.9-64c0.8-9-0.2-17.8-2.7-25.9c-2.2-7-6.9-10.9-11.2-13.1
	c-4.9-4.7-8.2-10.9-9.2-17.9c-0.1-1.4-0.1-2.9-0.1-4.3c0-0.1,0-0.2,0-0.3c0.1-12.8,8.1-24.4,20.2-28.6c19.9-6.8,38.5,6.7,40.9,25.1
	c-19.2,2.2-34.3,18.4-34.5,38.2h0c0,8.6,2.8,16.6,7.4,23c-0.2-0.1-0.3-0.2-0.4-0.3c3.8,4.2,8.1,8,13.6,10.4c0.2,0.1,0.4,0.3,0.4,0.5
	c8.2,2.2,17,2.9,26.1,1.9c27.8-3.2,50.9-23,59-49.1c1.6-6.3-1.2-10.1-2.3-11.6C489.7,176.1,482.1,171.7,473.6,170z M267,220.4
	c-8-4.6-10.8-15-6.3-23.1c4.6-8.4,10.9-15.6,18.5-21.3l0.2,48.4C274.9,224,270.7,222.6,267,220.4z M266.2,268.3
	c-3.2-4.2-3.1-10.2,0.4-14.2l12.8-14.6l0.2,41.8C274.5,277.6,270,273.2,266.2,268.3z M295.2,186c0-12.5,10.2-22.9,22.7-22.9l0,0
	c16.9-0.1,30.7,13.8,30.8,31h0c0,1.3-0.1,2.7-0.3,4c-2.3,16.1-26.2,14.1-26.3-2.1c0-2.3-1.8-4.1-4.1-4.1c-2.3,0-4.1,1.8-4.1,4.1
	l0.1,28.5l-18.7,0.1L295.2,186z M318.4,294c-0.1,0-0.2,0-0.2,0c-12.5,0-22.6-10.4-22.6-22.9l-0.1-38.4l19-0.1
	c2.2,19.4,18.8,34.7,38.8,34.6l17.9-0.1C359.1,283.4,340,293.9,318.4,294z M469.3,120.7c5,3.7,9.5,8.1,13.3,13.1
	c3.2,4.3,3.1,10.2-0.5,14.2l-12.8,14.5V120.7z M453.3,216c0,12.5-10.3,22.8-22.8,22.8v0c-16.9,0-30.7-14-30.7-31.1h0
	c0-1.3,0.1-2.7,0.3-4c2.3-16.1,26.3-14,26.3,2.2c0,2.3,1.8,4.1,4.1,4.1c2.3,0,4.1-1.8,4.1-4.1v-28.5h18.7V216z M453.3,169.3h-19
	c-2.1-19.4-18.6-34.8-38.6-34.8h-17.9c11.9-16.1,31.1-26.6,52.7-26.6c0.1,0,0.2,0,0.2,0c12.5,0,22.6,10.5,22.6,23V169.3z
	 M487.9,204.8c-4.6,8.3-10.9,15.6-18.6,21.2v-48.4c4.4,0.5,8.6,1.9,12.3,4C489.6,186.4,492.3,196.7,487.9,204.8z"/>
<path class="color" d="M469.4,3.1V0h-16.1v9.8h-19C434,6.4,433.2,3.1,432,0h-9c1.6,3.1,2.7,6.5,3.2,10.1
	c-19.2,2.2-34.3,18.4-34.5,38.2h0c0,8.6,2.8,16.6,7.4,23c-0.2-0.1-0.3-0.2-0.4-0.3c3.8,4.2,8.1,8,13.6,10.4c0.2,0.1,0.4,0.3,0.4,0.5
	c8.2,2.2,17,2.9,26.1,1.9c27.8-3.2,50.9-23,59-49.1c1.6-6.3-1.2-10.1-2.3-11.6c-5.6-6.5-13.2-10.9-21.6-12.5L483.1,0h-10.9
	L469.4,3.1z M453.3,56.5c0,12.5-10.3,22.8-22.8,22.8v0c-16.9,0-30.7-14-30.7-31.1h0c0-1.3,0.1-2.7,0.3-4c2.3-16.1,26.3-14,26.3,2.2
	c0,2.3,1.8,4.1,4.1,4.1c2.3,0,4.1-1.8,4.1-4.1V18h18.7V56.5z M481.7,22.2c7.9,4.7,10.7,15,6.3,23.1c-4.6,8.3-10.9,15.6-18.6,21.2
	V18.2C473.8,18.6,478,20,481.7,22.2z"/>
<path class="color" d="M251.1,48.5c-1.6,6.3,1.3,10.1,2.3,11.6c5.6,6.4,13.2,10.8,21.7,12.4l-17.2,19.7c-3.3,4.2-2.8,7.5,0.3,13.1
	c13.5,22.3,38.9,36.5,67.3,33.7c33.3-3.3,60-30.6,62.9-64c0.8-9-0.2-17.8-2.7-25.9c-2.2-7-6.9-10.9-11.2-13.1
	c-4.9-4.7-8.2-10.9-9.2-17.9c-0.1-1.4-0.1-2.9-0.1-4.3c0-0.1,0-0.2,0-0.3c0-4.8,1.2-9.4,3.2-13.6h-6.7c-0.5,2.5-0.9,5.1-1.1,7.7
	c-0.8,9,0.1,17.8,2.6,25.9c2.2,7.1,6.9,11,11.2,13.1c4.9,4.6,8.2,10.8,9.2,17.8c0.1,1.4,0.2,2.9,0.2,4.3c0,0.1,0,0.2,0,0.3
	c0,12.8-8,24.5-20.1,28.6c-19.9,6.9-38.6-6.6-41-24.9c19.2-2.2,34.2-18.6,34.3-38.3l0,0c0-8.6-2.8-16.5-7.5-23
	c0.2,0.1,0.3,0.2,0.5,0.3c-3.8-4.2-8.1-7.9-13.6-10.4c-0.2-0.1-0.4-0.3-0.4-0.5c-1.5-0.4-3-0.7-4.5-1h-26.6
	C279.4,4.9,258.6,24,251.1,48.5z M353.2,107.8l17.9-0.1c-11.9,16.2-31,26.7-52.6,26.8c-0.1,0-0.2,0-0.2,0
	c-12.5,0-22.6-10.4-22.6-22.9l-0.1-38.4l19-0.1C316.7,92.6,333.2,107.9,353.2,107.8z M318,3.6L318,3.6c16.9-0.1,30.7,13.9,30.8,31h0
	c0,1.3-0.1,2.7-0.3,4c-2.3,16.1-26.2,14.1-26.3-2.1c0-2.3-1.8-4.1-4.1-4.1c-2.3,0-4.1,1.8-4.1,4.1l0.1,28.5l-18.7,0.1l-0.1-38.6
	C295.3,14,305.5,3.7,318,3.6z M279.6,121.9c-5-3.7-9.5-8.1-13.3-13.1c-3.2-4.2-3.1-10.2,0.4-14.2L279.4,80L279.6,121.9z M279.2,16.6
	l0.2,48.4c-4.4-0.5-8.6-1.8-12.3-4c-8-4.6-10.8-15-6.3-23.1C265.3,29.5,271.6,22.2,279.2,16.6z"/>
<path class="color" d="M145.7,292.5h-17.9c11.9-16.1,31.1-26.6,52.7-26.6c0.1,0,0.2,0,0.2,0c12.5,0,22.6,10.5,22.6,23V317h16.1
	v-38.3c5,3.7,9.5,8.1,13.3,13.1c3.2,4.3,3.1,10.2-0.5,14.2l-9.7,11h10.9l7.6-8.6c3.3-4.2,2.8-7.5-0.2-13.1
	c-13.4-22.3-38.8-36.7-67.2-33.9c-30.6,3-55.7,26.1-61.9,55.6h6.8c3.5-6.7,9.3-12,16.7-14.6c15.9-5.4,30.9,2.1,37.6,14.6h9
	C176,302.7,162,292.5,145.7,292.5z"/>
<path class="color" d="M59.8,316.7c-0.8,0.1-1.6,0.2-2.5,0.3h21.6C72.8,316,66.4,315.9,59.8,316.7z"/>
<path class="color" d="M309.9,316.1c-1.9,0.2-3.9,0.6-5.8,0.9h28.3C325.2,315.5,317.6,315.1,309.9,316.1z"/>
<path class="color" d="M395.8,291.9h-17.9c11.9-16.1,31.1-26.6,52.7-26.6c0.1,0,0.2,0,0.2,0c12.5,0,22.6,10.5,22.6,23V317h16.1
	v-38.9c5,3.7,9.5,8.1,13.3,13.1c3.2,4.3,3.1,10.2-0.5,14.2L472,317h10.9l8.1-9.2c3.3-4.2,2.8-7.5-0.2-13.1
	c-13.4-22.3-38.8-36.7-67.2-33.9c-30.8,3-56,26.4-62,56.2h6.6c3.4-7,9.4-12.6,17-15.2c16.1-5.5,31.4,2.3,37.9,15.2h8.9
	C426.4,302.4,412.3,291.9,395.8,291.9z"/>
</svg>
