<?xml version="1.0" encoding="utf-8"?><svg xmlns="http://www.w3.org/2000/svg" xmlns:xlink="http://www.w3.org/1999/xlink"><symbol viewBox="0 0 512.002 512.002" id="adv-card-item1"><path d="M386.313 338.062c-3.328 3.328-3.328 8.738 0 12.066l18.108 18.108a8.473 8.473 0 0 0 6.033 2.5 8.504 8.504 0 0 0 6.033-2.5c3.328-3.328 3.328-8.73 0-12.066l-18.099-18.108a8.55 8.55 0 0 0-12.075 0zm91.554-146.782v81.801h-34.133v-42.667c0-4.71-3.814-8.533-8.533-8.533s-8.533 3.823-8.533 8.533v51.2a8.53 8.53 0 0 0 8.533 8.533h51.2a8.53 8.53 0 0 0 8.533-8.533v-73.267l2.5 2.5a8.51 8.51 0 0 0 6.033 2.5 8.509 8.509 0 0 0 6.033-2.5 8.523 8.523 0 0 0 0-12.066l-17.058-17.058-.017-.017-76.791-76.791a8.523 8.523 0 0 0-12.066 0 8.523 8.523 0 0 0 0 12.066l74.299 74.299zm-190.225-9.557l-.017-.017-76.792-76.791a8.523 8.523 0 0 0-12.066 0l-76.792 76.791-.017.017-17.058 17.058a8.523 8.523 0 0 0 0 12.066 8.525 8.525 0 0 0 12.066 0l2.5-2.5v73.267a8.53 8.53 0 0 0 8.533 8.533h59.733a8.53 8.53 0 0 0 8.533-8.533v-42.667h17.067v42.667a8.53 8.53 0 0 0 8.533 8.533H281.6a8.53 8.53 0 0 0 8.533-8.533v-73.267l2.5 2.5a8.51 8.51 0 0 0 6.033 2.5 8.509 8.509 0 0 0 6.033-2.5 8.525 8.525 0 0 0 0-12.066l-17.057-17.058zm-14.575 91.358H230.4v-42.667a8.53 8.53 0 0 0-8.533-8.533h-34.133a8.53 8.53 0 0 0-8.533 8.533v42.667h-42.667V191.28l68.267-68.267 68.267 68.267v81.801z"/><path d="M204.8 34.147c-94.106 0-170.667 76.561-170.667 170.667S110.694 375.481 204.8 375.481s170.667-76.561 170.667-170.667S298.906 34.147 204.8 34.147zm0 324.267c-84.693 0-153.6-68.907-153.6-153.6s68.907-153.6 153.6-153.6 153.6 68.907 153.6 153.6-68.907 153.6-153.6 153.6zm234.897 20.966a8.53 8.53 0 0 0-6.033-2.5h-.008a8.6 8.6 0 0 0-6.042 2.517l-24.064 24.201c-3.328 3.337-3.311 8.738.034 12.066 3.345 3.328 8.747 3.32 12.066-.034l18.031-18.125 53.751 53.743c4.83 4.838 7.501 11.264 7.501 18.099s-2.671 13.269-7.501 18.099c-9.975 9.975-26.206 9.992-36.198.008l-101.12-101.12c-3.328-3.328-8.73-3.328-12.066 0-3.328 3.337-3.328 8.738 0 12.066l101.12 101.12c8.311 8.32 19.234 12.467 30.157 12.467s21.862-4.156 30.174-12.467c8.055-8.064 12.501-18.773 12.501-30.174 0-11.392-4.446-22.11-12.501-30.165l-59.802-59.801z"/><path d="M409.6 204.814c0-112.922-91.878-204.8-204.8-204.8S0 91.892 0 204.814s91.878 204.8 204.8 204.8 204.8-91.878 204.8-204.8zM204.8 392.547c-103.518 0-187.733-84.215-187.733-187.733S101.282 17.081 204.8 17.081s187.733 84.215 187.733 187.733S308.318 392.547 204.8 392.547z"/></symbol><symbol viewBox="0 0 512 512" id="adv-card-item2"><path d="M375.451 315.733a8.536 8.536 0 0 0-8.533-8.533h-51.2c-4.71 0-8.533 3.823-8.533 8.533s3.823 8.533 8.533 8.533h51.2c4.71.001 8.533-3.822 8.533-8.533zM341.317 93.867V51.2c0-4.71-3.823-8.533-8.533-8.533s-8.533 3.823-8.533 8.533v42.667c0 23.526 19.14 42.667 42.667 42.667h76.8v162.133c0 4.71 3.823 8.533 8.533 8.533s8.533-3.823 8.533-8.533V128a8.536 8.536 0 0 0-8.533-8.533h-85.333c-14.115 0-25.601-11.486-25.601-25.6zm25.6 110.933H298.65a8.536 8.536 0 0 0-8.533 8.533 8.536 8.536 0 0 0 8.533 8.533h68.267a8.536 8.536 0 0 0 8.533-8.533c.001-4.71-3.822-8.533-8.533-8.533zm-93.866 8.533a8.536 8.536 0 0 0-8.533-8.533h-51.2a8.536 8.536 0 0 0-8.533 8.533 8.536 8.536 0 0 0 8.533 8.533h51.2c4.71.001 8.533-3.822 8.533-8.533zM213.317 256a8.536 8.536 0 0 0-8.533 8.533 8.536 8.536 0 0 0 8.533 8.533h17.067a8.536 8.536 0 0 0 8.533-8.533 8.536 8.536 0 0 0-8.533-8.533h-17.067zm0-85.333h85.333a8.536 8.536 0 0 0 8.533-8.533 8.536 8.536 0 0 0-8.533-8.533h-85.333a8.536 8.536 0 0 0-8.533 8.533 8.536 8.536 0 0 0 8.533 8.533zm51.2 102.4h85.333a8.536 8.536 0 0 0 8.533-8.533 8.536 8.536 0 0 0-8.533-8.533h-85.333a8.536 8.536 0 0 0-8.533 8.533 8.536 8.536 0 0 0 8.533 8.533zm51.2 85.333c-4.71 0-8.533 3.823-8.533 8.533s3.823 8.533 8.533 8.533h17.067c4.71 0 8.533-3.823 8.533-8.533s-3.823-8.533-8.533-8.533h-17.067zm-34.133-51.2h-68.267c-4.71 0-8.533 3.823-8.533 8.533s3.823 8.533 8.533 8.533h68.267c4.71 0 8.533-3.823 8.533-8.533s-3.823-8.533-8.533-8.533zm0 51.2h-68.267c-4.71 0-8.533 3.823-8.533 8.533s3.823 8.533 8.533 8.533h68.267c4.71 0 8.533-3.823 8.533-8.533s-3.823-8.533-8.533-8.533zm203.17-6.903l-17.067-17.067c-13.116-13.116-33.101-13.09-46.199 0L309.684 446.234a8.546 8.546 0 0 0-2.5 6.033v51.2a8.536 8.536 0 0 0 8.533 8.533h51.2a8.546 8.546 0 0 0 6.033-2.5l111.804-111.804c13.594-13.594 13.594-32.597 0-46.199zm-74.3 18.099l13.534 13.534-74.138 74.138-13.534-13.534 74.138-74.138zm-86.203 125.337v-39.134l39.134 39.134h-39.134zm51.2-12.066l-13.534-13.534 74.138-74.138 13.534 13.534-74.138 74.138zm97.237-97.237l-11.034 11.034-39.134-39.134 11.034-11.034c6.741-6.733 15.292-6.767 22.067 0l17.067 17.067c6.903 6.912 6.903 15.163 0 22.067z"/><path d="M281.584 494.933H59.717c-14.114 0-25.6-11.486-25.6-25.6V42.667c0-14.114 11.486-25.6 25.6-25.6h269.534L412.084 99.9a8.523 8.523 0 0 0 12.066 0 8.523 8.523 0 0 0 0-12.066L338.817 2.5a8.513 8.513 0 0 0-6.033-2.5H59.717C36.191 0 17.051 19.14 17.051 42.667v426.667c0 23.526 19.14 42.667 42.667 42.667h221.867c4.71 0 8.533-3.823 8.533-8.533s-3.824-8.535-8.534-8.535z"/><path d="M281.584 409.6h-68.267c-4.71 0-8.533 3.823-8.533 8.533s3.823 8.533 8.533 8.533h68.267c4.71 0 8.533-3.823 8.533-8.533s-3.823-8.533-8.533-8.533zM170.651 162.133a8.536 8.536 0 0 0-8.533-8.533h-51.2a8.536 8.536 0 0 0-8.533 8.533v51.2a8.536 8.536 0 0 0 8.533 8.533h51.2a8.536 8.536 0 0 0 8.533-8.533v-51.2zM153.584 204.8h-34.133v-34.133h34.133V204.8zm-42.667 221.867h51.2a8.536 8.536 0 0 0 8.533-8.533v-51.2a8.536 8.536 0 0 0-8.533-8.533h-51.2a8.536 8.536 0 0 0-8.533 8.533v51.2a8.536 8.536 0 0 0 8.533 8.533zm8.534-51.2h34.133V409.6h-34.133v-34.133zm2.5-53.701a8.54 8.54 0 0 0 6.878 2.457 8.513 8.513 0 0 0 6.255-3.755l34.133-51.2c2.611-3.925 1.553-9.225-2.364-11.836a8.533 8.533 0 0 0-11.836 2.364l-28.356 42.539-9.711-9.702c-3.336-3.337-8.73-3.337-12.066 0s-3.337 8.73 0 12.066l17.067 17.067z"/></symbol><symbol viewBox="0 0 334.877 334.877" id="adv-card-item3"><path d="M333.196 155.999h-16.067V82.09c0-17.719-14.415-32.134-32.134-32.134h-21.761L240.965 9.917a19.28 19.28 0 0 0-26.222-7.488l-85.464 47.526H33.815c-17.719 0-32.134 14.415-32.134 32.134v220.653c0 17.719 14.415 32.134 32.134 32.134h251.18c17.719 0 32.134-14.415 32.134-32.134V237.94h16.067v-81.941zm-48.201-93.19c9.897 0 17.982 7.519 19.068 17.14h-24.152l-9.525-17.14h14.609zm-63.999-49.146c3.014-1.69 7.07-.508 8.734 2.494l35.476 63.786H101.798l119.198-66.28zm83.279 289.079c0 10.63-8.651 19.281-19.281 19.281H33.815c-10.63 0-19.281-8.651-19.281-19.281V82.09c0-10.63 8.651-19.281 19.281-19.281h72.353L75.345 79.95H37.832c-3.554 0-6.427 2.879-6.427 6.427s2.873 6.427 6.427 6.427h266.443v63.201h-46.999c-21.826 0-39.589 17.764-39.589 39.589v2.764c0 21.826 17.764 39.589 39.589 39.589h46.999v64.795zm16.067-77.655h-63.066c-14.743 0-26.736-11.992-26.736-26.736v-2.764c0-14.743 11.992-26.736 26.736-26.736h63.066v56.236zm-43.381-27.59c0 7.841-6.35 14.19-14.19 14.19-7.841 0-14.19-6.35-14.19-14.19s6.35-14.19 14.19-14.19c7.841-.001 14.19 6.355 14.19 14.19z"/></symbol><symbol viewBox="0 0 512 512" id="adv-card-item4"><circle cx="441.639" cy="338.1" r="10"/><circle cx="60.965" cy="338.1" r="10"/><path d="M494.298 491.996h-85.876l-.525-245.772c-.012-5.517-4.487-9.98-10.001-9.98h-.022c-5.524.012-9.992 4.499-9.98 10.023l.525 245.729H359.37l-.257-109.348c-.013-5.516-4.488-9.978-10.001-9.978h-.024c-5.524.013-9.992 4.501-9.978 10.025l.257 109.301h-24.285v-132.36c28.31-2.503 50.569-25.767 50.569-54.016v-96.924c0-15.412-3.27-30.519-9.525-44.471 19.751 1.319 38.136 9.355 52.28 23.013 15.478 14.946 24.027 34.82 24.071 55.971l.183 56.916c.018 5.513 4.492 9.97 10.001 9.97h.033c5.523-.018 9.987-4.51 9.97-10.034l-.183-56.905c-.057-26.6-10.775-51.569-30.18-70.307a102.226 102.226 0 0 0-38.597-23.439c10.163-9.673 16.505-23.323 16.473-38.427-.063-29.142-23.79-52.807-52.919-52.807h-.114c-8.486.019-16.924 2.097-24.401 6.01-4.894 2.562-6.785 8.606-4.223 13.5 2.563 4.894 8.608 6.785 13.5 4.223 4.706-2.463 9.809-3.718 15.168-3.73 18.179-.009 32.948 14.696 32.987 32.846.039 18.15-14.696 32.948-32.846 32.987a9.967 9.967 0 0 0-1.267.092c-.533.022-1.065.041-1.599.071-14.45-19.776-34.736-34.122-57.84-41.402 12.266-10.762 20.033-26.535 20.033-44.098C306.652 26.321 280.332 0 247.979 0c-32.354 0-58.675 26.321-58.675 58.675 0 18.414 8.534 34.866 21.847 45.631-21.208 7.654-39.794 21.365-53.292 39.812a105.94 105.94 0 0 0-4.74-.113c-.748 0-1.494.012-2.239.028-.183-.01-.363-.028-.548-.028-18.15 0-32.916-14.766-32.916-32.916s14.766-32.916 32.916-32.916a32.944 32.944 0 0 1 15.693 3.973c4.853 2.637 10.925.843 13.565-4.01 2.638-4.853.843-10.926-4.01-13.565-7.704-4.189-16.435-6.403-25.249-6.403-29.18 0-52.92 23.74-52.92 52.92 0 15.89 7.05 30.156 18.174 39.865-37.813 14.581-64.622 50.512-64.622 92.42v56.72c0 5.524 4.478 10.002 10.002 10.002 5.524 0 10.002-4.478 10.002-10.002v-56.72c0-41.48 33.116-75.606 75.144-79.055a108.564 108.564 0 0 0-9.484 44.378v96.924c0 28.808 23.147 52.433 52.255 54.141v132.234h-27.248V382.668c0-5.524-4.478-10.002-10.002-10.002s-10.002 4.478-10.002 10.002v109.328h-24.586v-245.65c0-5.524-4.478-10.002-10.002-10.002-5.524 0-10.002 4.478-10.002 10.002v245.65H17.702c-5.524 0-10.002 4.478-10.002 10.002S12.177 512 17.702 512h476.597c5.524 0 10.002-4.478 10.002-10.002-.002-5.524-4.479-10.002-10.003-10.002zM209.307 58.675c0-21.323 17.348-38.671 38.671-38.671s38.67 17.348 38.67 38.671-17.348 38.671-38.67 38.671c-21.322 0-38.671-17.348-38.671-38.671zm95.772 143.391c-5.524 0-10.002 4.478-10.002 10.002v279.928h-35.622V352.849c0-5.524-4.478-10.002-10.002-10.002s-10.002 4.478-10.002 10.002v139.148h-30.565V212.068c0-5.524-4.478-10.002-10.002-10.002-5.524 0-10.002 4.478-10.002 10.002v127.641c-18.067-1.64-32.252-16.299-32.252-34.088v-96.924c0-17.31 5.034-34.159 14.558-48.724 17.452-26.689 47.34-42.623 79.95-42.623 32.664 0 62.579 15.975 80.021 42.734 9.477 14.54 14.487 31.35 14.487 48.613v96.924c0 17.232-13.31 31.525-30.565 33.895V212.068c.001-5.524-4.478-10.002-10.002-10.002z"/></symbol><symbol viewBox="-253.5 165.3 512 512" id="advantages-item1"><circle fill="#DDF1F9" cx="-17.4" cy="396.2" r="187.6"/><g fill="#1B9EEA"><path d="M-168.7 370.7l69.4 69.8-19.4 83.1c-1.8 5.8-1.3 10.7 1.4 14.4 2.3 3.2 6 5 10 5 3.2 0 6.5-1.1 9.9-3.5l80.5-41.7 21 10.9c1.6-6.9 3.8-13.6 6.6-19.9l-27.6-14.3-78.7 40.7 19-81.2-69.1-69.6 87.1-11.1 41.7-82.9 41.7 82.9 87.1 11.1L42.8 434l2.8 11.9c8.9-6.5 18.8-11.6 29.6-15.1l59.8-60.2c8.3-6.5 7.2-13.3 6.4-16-.9-2.7-4.1-8.9-14.8-9.2l-88.2-11.2-42-83.5c-3.6-10-10.4-11.1-13.3-11.1-2.8 0-9.7 1.1-13.3 11.1l-42 83.5-88.2 11.2c-10.7.3-13.9 6.5-14.8 9.2-.7 2.7-1.8 9.6 6.5 16.1zm381.4 168.2c0-37.1-20.7-69.4-51-86.1-14-7.7-30-12.1-47.1-12.1-16.7 0-32.4 4.2-46.2 11.6-6.6 3.5-12.7 7.9-18.3 12.7-10 8.8-18.2 19.5-24 31.7-3 6.3-5.3 12.8-7 19.7-1.7 7.2-2.7 14.7-2.7 22.4 0 17.1 4.4 33.1 12.1 47.1 16.7 30.4 49 51 86.1 51 5.5 0 10.9-.6 16.2-1.5 41.2-6.9 73.6-39.4 80.5-80.5.9-5.1 1.4-10.5 1.4-16zm-98.1 77.4c-42.7 0-77.4-34.7-77.4-77.4 0-4.3.4-8.4 1.1-12.5 1.2-7.1 3.3-13.8 6.2-20.1 3-6.3 6.7-12.2 11.2-17.5 5.1-6 11-11.1 17.7-15.3 12-7.6 26.1-12 41.3-12 42.7 0 77.4 34.7 77.4 77.4 0 4.1-.4 8.1-1 12-5.2 33.1-31.3 59.2-64.4 64.4-4 .6-8 1-12.1 1z"/><path d="M118.8 518.6c-4.7 0-8.7.6-12 1.8-2 .7-4.7 2.2-8.2 4.5l4.1-25.1h47v-19.2H86.5l-4 31.9-3.7 29.4-.3 2.3 20.3 1c1.8-3.4 4.5-5.8 8-7.1 2-.7 4.4-1 7.1-1 5.8 0 10.1 2 12.8 6.1 2.7 4 4.1 9 4.1 14.9 0 6-1.5 10.9-4.4 14.9-2.9 3.9-7.2 5.9-12.8 5.9-4.9 0-8.5-1.3-11.1-4-2.5-2.7-4.2-6.5-5.1-11.4H74.9c.8 10.8 4.7 19.1 11.7 25 7 5.9 16 8.8 26.9 8.8 13.6 0 23.8-4.2 30.6-12.5 6.8-8.4 10.2-17.8 10.2-28.5 0-12.2-3.5-21.5-10.6-27.9-7.1-6.6-15.3-9.8-24.9-9.8z"/></g></symbol><symbol viewBox="-41 164.9 512 512" id="advantages-item2"><circle fill="#DDF1F9" cx="169.6" cy="420.3" r="187.6"/><path fill="#1B9EEA" d="M428.6 428.2h-.3V309.3c0-4.9-4-9-9-9h-47.2l-35.2-69.7c-1.1-2.1-2.9-3.7-5.2-4.5-2.3-.7-4.7-.6-6.8.5l-145.6 73.6H85.2c-19.6 0-35.5 15.3-36.2 34.9v244.6c0 20 16.3 36.3 36.3 36.3h334.1c4.9 0 9-4 9-9v-69h.3c12.4 0 22.5-10.1 22.5-22.5v-64.9c-.1-12.3-10.2-22.4-22.6-22.4zm-18.2-109.9V353h-11.6l-17.6-34.7h29.2zm-224.9-1L325 246.8l33.7 66.6 20.1 39.7h-17.4c-.1-.3-.2-.6-.4-.9l-23.1-45.6c-1.8-3.6-5.8-5.5-9.7-4.8l-2.7.5c-10.5 2-21.3-2.8-26.9-11.9l-1.8-2.9c-2.4-4-7.5-5.4-11.7-3.3l-136 68.8h-34.2l70.6-35.7zM341.4 353H188.8l97.3-49.2c9.2 11.7 23.9 18.1 38.8 16.7l16.5 32.5zM85.2 318.3h58.6L78 351.6c-5.1-2.2-8.9-6.5-10.5-11.8v-.2c-.1-.3-.2-.7-.3-1.1-.1-.3-.1-.6-.2-.9 0-.2-.1-.5-.1-.7-.1-.4-.1-.9-.1-1.3.6-9.7 8.6-17.3 18.4-17.3zm325.2 279.8H85.2c-10.1 0-18.4-8.2-18.4-18.4v-4.2h273.7c4.9 0 9-4 9-9s-4-9-9-9H66.9V366c3.6 2.1 7.5 3.6 11.8 4.3h.5c.5.1 1.1.2 1.6.2h.3c.2 0 .5 0 .7.1.4 0 .7.1 1.1.1h.3c.7 0 1.4.1 2 .1h325.2v19.8H134.3c-4.9 0-9 4-9 9s4 9 9 9h276.1v19.6H280.8c-4.9 0-9 4-9 9v91.9c0 4.9 4 9 9 9h129.6v60zm18.2-78H289.8v-74h138.9c2.5 0 4.6 2 4.6 4.6v64.9c-.2 2.5-2.2 4.5-4.7 4.5zm-94.3-70.8c-18.6 0-33.8 15.2-33.8 33.8 0 18.6 15.2 33.8 33.8 33.8 18.6 0 33.8-15.2 33.8-33.8 0-18.6-15.2-33.8-33.8-33.8zm0 49.7c-8.8 0-15.9-7.1-15.9-15.9s7.1-15.9 15.9-15.9 15.9 7.1 15.9 15.9S343 499 334.3 499zm42.3 65.8c-.1-.6-.3-1.1-.5-1.7-.2-.5-.5-1.1-.8-1.5-.3-.5-.7-.9-1.1-1.4-2.1-2.1-5.2-3-8.1-2.4-.6.1-1.1.3-1.7.5-.5.2-1.1.5-1.5.8-.5.3-.9.7-1.4 1.1-.4.4-.8.9-1.1 1.4-.3.5-.6 1-.8 1.5-.2.5-.4 1.1-.5 1.7-.1.6-.2 1.2-.2 1.7 0 .6.1 1.2.2 1.8.1.6.3 1.1.5 1.7.2.5.5 1.1.8 1.5.3.5.7.9 1.1 1.4.4.4.9.8 1.4 1.1.5.3 1 .6 1.5.8.5.2 1.1.4 1.7.5.6.1 1.2.2 1.8.2.6 0 1.2-.1 1.7-.2.6-.1 1.1-.3 1.7-.5.5-.2 1.1-.5 1.5-.8.5-.3 1-.7 1.4-1.1.4-.4.8-.9 1.1-1.4.3-.5.6-1 .8-1.5.2-.5.4-1.1.5-1.7.1-.6.2-1.2.2-1.8 0-.5-.1-1.1-.2-1.7zM115.8 397.9c-.1-.6-.3-1.1-.5-1.7-.2-.5-.5-1.1-.8-1.5-.3-.5-.7-.9-1.1-1.4s-.9-.8-1.4-1.1c-.5-.3-1-.6-1.5-.8-.5-.2-1.1-.4-1.7-.5-1.2-.2-2.3-.2-3.5 0-.6.1-1.1.3-1.7.5-.5.2-1.1.5-1.5.8-.5.3-.9.7-1.4 1.1-.4.4-.8.9-1.1 1.4-.3.5-.6 1-.8 1.5-.2.5-.4 1.1-.5 1.7-.1.6-.2 1.2-.2 1.7 0 .6.1 1.2.2 1.8.1.6.3 1.1.5 1.7.2.5.5 1.1.8 1.5.3.5.7.9 1.1 1.4.4.4.9.8 1.4 1.1.5.3 1 .6 1.5.8.5.2 1.1.4 1.7.5.6.1 1.2.2 1.7.2.6 0 1.2-.1 1.8-.2.6-.1 1.1-.3 1.7-.5.5-.2 1.1-.5 1.5-.8.5-.3.9-.7 1.4-1.1.4-.4.8-.9 1.1-1.4.3-.5.6-1 .8-1.5.2-.5.4-1.1.5-1.7.1-.6.2-1.2.2-1.8 0-.5-.1-1.1-.2-1.7z"/></symbol><symbol viewBox="-41 164.9 512 512" id="advantages-item3"><circle fill="#DDF1F9" cx="146.6" cy="423.3" r="187.6"/><g fill="#1B9EEA"><path d="M424.8 396.2v-10c0-15.3-12.4-27.7-27.7-27.7h-92.4v-46.2c0-5.1-4.1-9.2-9.2-9.2h-27.7v-27.7c0-5.1-4.1-9.2-9.2-9.2H132.9l-15.8-15.8c-3.6-3.6-9.5-3.6-13.1 0L51.3 303H36.7c-5.1 0-9.2 4.1-9.2 9.2V571c0 5.1 4.1 9.2 9.2 9.2h37.9c1.4 6.8 4.3 13.1 8.3 18.5H64.4c-5.1 0-9.2 4.1-9.2 9.2s4.1 9.2 9.2 9.2h55.5c22.3 0 40.9-15.9 45.2-37h168.2c1.4 6.8 4.3 13.1 8.3 18.5h-18.5c-5.1 0-9.2 4.1-9.2 9.2s4.1 9.2 9.2 9.2h55.5c22.3 0 40.9-15.9 45.2-37h37.9c5.1 0 9.2-4.1 9.2-9.2V450.6c.1-27.1-19.9-50-46.1-54.4zM249.2 284.6V303h-79.3l-18.5-18.5h97.8zm-138.6-14.7l11.9 11.9 21.2 21.2H77.5l33.1-33.1zm9.2 328.8c-15.3 0-27.7-12.4-27.7-27.7 0-15.3 12.4-27.7 27.7-27.7 15.3 0 27.7 12.4 27.7 27.7.1 15.3-12.4 27.7-27.7 27.7zm166.4-231v157.1h-62.8c-5.1 0-9.2 4.1-9.2 9.2s4.1 9.2 9.2 9.2h62.8v18.5H165.1c-4.3-21.1-23-37-45.3-37s-41 15.9-45.3 37H45.9V413.9h37c5.1 0 9.2-4.1 9.2-9.2s-4.1-9.2-9.2-9.2h-37V377h110.9c5.1 0 9.2-4.1 9.2-9.2s-4.1-9.2-9.2-9.2H45.9v-37h240.2l.1 46.1zm47.1 194.1h-28.7v-18.5h37c-4 5.4-6.9 11.7-8.3 18.5zm73 9.2c0 15.3-12.4 27.7-27.7 27.7-15.3 0-27.7-12.4-27.7-27.7 0-15.3 12.4-27.7 27.7-27.7h.1c15.2 0 27.6 12.4 27.6 27.7zm46.2-9.2h-28.6c-4.3-21.1-23-37-45.3-37h-74V377H397c5.1 0 9.2 4.1 9.2 9.2v9.2h-64.7c-5.1 0-9.2 4.1-9.2 9.2v83.2c0 5.1 4.1 9.2 9.2 9.2h110.9v64.8zm-83.1-147.9v64.7h-18.5v-64.7h18.5zm83.1 64.7h-64.7v-64.7h27.7c20.4 0 37 16.6 37 37v27.7z"/><path d="M187.2 543.3h5.8c5.1 0 9.2-4.1 9.2-9.2s-4.1-9.2-9.2-9.2h-5.8c-5.1 0-9.2 4.1-9.2 9.2s4.1 9.2 9.2 9.2zm0-166.3h5.8c5.1 0 9.2-4.1 9.2-9.2s-4.1-9.2-9.2-9.2h-5.8c-5.1 0-9.2 4.1-9.2 9.2-.1 5 4.1 9.2 9.2 9.2z"/></g></symbol><symbol viewBox="-41 164.9 512 512" id="advantages-item4"><circle fill="#DDF1F9" cx="166.6" cy="419.3" r="187.6"/><path fill="#1B9EEA" d="M448.9 392.3L392.2 363l56.7-29.3c3.1-1.6 5.1-4.8 5.1-8.3 0-3.5-1.9-6.7-5-8.4l-141.1-75.2c-2.7-1.5-6-1.5-8.7-.1l-70.9 36.6-70.9-36.6c-2.8-1.4-6-1.4-8.7.1L7.5 317.1c-3.1 1.7-5 4.9-5 8.4s2 6.7 5.1 8.3l56.7 29.3-56.7 29.2c-3.1 1.6-5.1 4.8-5.1 8.3 0 3.5 1.9 6.7 5 8.4l70.3 37.5v85.9c0 3.5 1.9 6.7 5 8.3l141.1 75.2c1.4.7 2.9 1.1 4.4 1.1 1.5 0 3-.4 4.4-1.1l141.1-75.2c3.1-1.6 5-4.8 5-8.3v-85.9L449 409c3.1-1.7 5-4.9 5-8.4s-2-6.7-5.1-8.3zM303.4 260.8l120.9 64.5-52.6 27.2L248.8 289l54.6-28.2zM32.2 325.3l120.9-64.5 54.7 28.2-123 63.5-52.6-27.2zm0 75.5l52.6-27.2L207.7 437 153 465.2 32.2 400.8zm186.7 191.1L96.6 526.7v-70.2l52 27.7c1.4.7 2.9 1.1 4.4 1.1 1.5 0 3-.3 4.3-1l61.5-31.8.1 139.4zm9.4-165.4l-122.9-63.4 122.9-63.4 122.9 63.4-122.9 63.4zm131.6 100.2l-122.3 65.2V452.5l61.5 31.8c1.4.7 2.8 1 4.3 1s3-.4 4.4-1.1l52-27.7.1 70.2zm-56.5-61.4l-54.7-28.2 122.9-63.4 52.6 27.2-120.8 64.4z"/></symbol><symbol viewBox="-161.4 165.3 512 512" id="advantages-item5"><circle fill="#DDF1F9" cx="64.6" cy="417.1" r="187.6"/><path fill="#1B9EEA" d="M76.9 324.3C26.1 344-7.9 393.9-7.9 448.4v36.3c0 5-4.4 9.1-9.4 9.1H-36c-15.3 0-27.9-12.6-27.9-27.9v-41c0-12.1 7.8-22.7 19.3-26.4 4.7-1.5 9.8 1.1 11.4 5.8 1.5 4.7-1.1 9.8-5.8 11.3-4 1.3-6.9 5.1-6.9 9.3v41c0 5.4 4.5 9.9 9.9 9.9h10.1v-27.5c0-31.1 9.2-60.9 26.9-86.4 17.3-24.8 41.1-43.7 69.2-54.6 4.6-1.8 9.8.5 11.6 5.1 1.9 4.8-.2 10.1-4.9 11.9zm146.3 5.1c0 18.9-15.4 34.2-34.2 34.2-18.9 0-34.2-15.4-34.2-34.2s15.4-34.2 34.2-34.2c18.8-.1 34.2 15.3 34.2 34.2zm-18 0c0-9-7.3-16.2-16.2-16.2-9 0-16.2 7.3-16.2 16.2s7.3 16.2 16.2 16.2c8.9 0 16.2-7.3 16.2-16.2zM313.1 425v41c0 15.3-12 27.9-27.4 27.9h-16.6c-5.5 17-14.1 33.8-25.8 48.5-19.2 24.2-45.5 42.1-74.9 50.9-1.3 14.8-13.8 26.6-28.9 26.6h-29.3c-16 0-29-13-29-29s13-29 29-29h29.3c10.5 0 19.8 5.5 24.9 13.9 55.5-17.2 93.6-68.6 93.6-127.3 0-18.1-3.6-35.6-10.6-52.1l-11.8-5.3c-5.1 3.9-10.6 7.1-16.5 9.5l-1.5 14.2c-.5 9.4-11.4 15.2-28.7 15.2-17.3 0-28.2-5.8-28.7-15.2l-1.5-14.2c-5.9-2.5-11.4-5.7-16.5-9.5l-13.1 5.9c-8.4 4.2-18.8-2.3-27.4-17.2-3.1-5.4-5.3-11-6.3-15.8-1.9-10.1 2.1-14.6 5.1-16.6l11.6-8.4c-.4-3.1-.6-6.3-.6-9.4 0-3.2.2-6.4.6-9.6l-11.6-8.4c-7.9-5.1-7.5-17.4 1.2-32.4 8.6-15 19.1-21.5 27.4-17.2l13.2 5.9c5.1-3.8 10.5-7 16.3-9.4l1.5-14.3c.4-9.4 11.3-15.2 28.7-15.2 17.3 0 28.2 5.8 28.7 15.2l1.5 14.4c5.8 2.5 11.3 5.6 16.3 9.4l13.2-5.9c3.2-1.6 9.1-2.8 16.9 3.9 3.7 3.2 7.5 8 10.6 13.4 8.6 15 9.1 27.3 1.2 32.4l-11.7 8.4c.4 3.2.6 6.4.6 9.5 0 3.1-.2 6.3-.6 9.4l11.7 8.4c7.9 5.1 7.4 17.4-1.2 32.4-3.1 5.4-6.9 10.1-10.6 13.4 7 17.6 10.5 36.3 10.5 55.5 0 9.3-.8 18.4-2.4 27.4h12.2c5.4 0 9.4-4.5 9.4-9.9v-41c0-4.2-2.6-8-6.7-9.3-4.7-1.5-7.2-6.6-5.7-11.3 1.5-4.7 6.5-7.3 11.2-5.8 11.7 3.3 19.2 14 19.2 26.1zM150.6 590.8c0-.7-.1-1.5-.2-2.2 0-.1 0-.1-.1-.2-1.1-4.9-5.5-8.4-10.8-8.4h-29.3c-6.1 0-11 4.9-11 11s5 11 11 11h29.3c6.1-.1 11.1-5.2 11.1-11.2zm100-282.3l14.1-10.2c-.4-2.1-1.6-5.8-4.2-10.3-2.6-4.5-5.2-7.4-6.8-8.8l-16 7.1c-3.2 1.4-7 .9-9.6-1.5-6-5.3-12.8-9.2-20.3-11.7-3.3-1.1-5.7-4.1-6.1-7.6l-1.8-17.4c-2-.7-5.8-1.5-11-1.5s-9 .8-11 1.5l-1.8 17.4c-.4 3.5-2.7 6.5-6.1 7.6-7.5 2.5-14.3 6.4-20.2 11.7-2.6 2.3-6.4 2.9-9.6 1.5l-16-7.1c-1.6 1.4-4.2 4.3-6.8 8.8-2.6 4.5-3.8 8.2-4.2 10.3l14.1 10.2c2.9 2.1 4.2 5.6 3.5 9.1-.8 3.9-1.2 7.8-1.2 11.8 0 3.9.4 7.9 1.2 11.7.7 3.4-.7 7-3.5 9l-14.1 10.2c.4 2.1 1.6 5.8 4.2 10.3 2.6 4.5 5.2 7.4 6.8 8.8l15.9-7.1c3.2-1.4 7-.9 9.6 1.5 6 5.3 12.8 9.3 20.4 11.8 3.3 1.1 5.7 4.1 6.1 7.6l1.8 17.2c2 .7 5.8 1.5 11 1.5s9-.8 11-1.5l1.8-17.2c.4-3.5 2.7-6.5 6.1-7.6 7.5-2.5 14.4-6.5 20.4-11.8 2.6-2.3 6.4-2.9 9.6-1.5l15.9 7.1c1.6-1.4 4.2-4.3 6.8-8.8 2.6-4.5 3.8-8.2 4.2-10.3l-14.1-10.2c-2.9-2.1-4.2-5.6-3.5-9.1.8-3.8 1.1-7.7 1.1-11.7 0-4-.4-7.9-1.2-11.8-.8-3.4.6-6.9 3.5-9z"/></symbol><symbol viewBox="-59 164.9 512 512" id="advantages-item6"><circle fill="#DDF1F9" cx="172.6" cy="420.3" r="187.6"/><path fill="#1B9EEA" d="M90 481.4c.9 9.3 6 17.6 13.1 23.2-4 4.7-6.4 10.8-6.4 17.4v24.9c0 10.7 6.2 20 15.3 24.3-.5 2.5-.8 5-.8 7.7 0 20.8 16.9 37.7 37.7 37.7 20.8 0 37.7-16.9 37.7-37.7 0-1.7-.1-3.4-.3-5h62c-.2 1.6-.3 3.3-.3 5 0 20.8 16.9 37.7 37.7 37.7 20.8 0 37.7-16.9 37.7-37.7 0-20.8-16.9-37.7-37.7-37.7-12.6 0-23.8 6.2-30.7 15.8h-75.5c-6.9-9.5-18-15.8-30.7-15.8-12.1 0-22.9 5.8-29.8 14.7-3.2-1.7-5.5-5-5.5-8.9v-25c0-5.5 4.5-10 10-10h198.1c16.4 0 33.3-12.1 38.6-27.6l50.3-147.6c2.8-8.4 1.9-16.8-2.7-23.1-4.5-6.3-12.2-10-21-10h-18l-54.4-54.6c-8.5-8.5-22.2-8.5-30.7-.2L192 273.6l-24.6-44.2c-2.3-4.1-7.4-5.5-11.5-3.3l-49.3 27.5c-2 1.1-3.4 2.9-4 5.1-.6 2.2-.3 4.5.8 6.4l21.5 38.6h-20.4c-5.4 0-10.6 1.4-15 4l-4-39.9c-.4-4.3-4.1-7.6-8.4-7.6H22.5c-4.7 0-8.5 3.8-8.5 8.5s3.8 8.5 8.5 8.5h46.9L90 481.4zm195.6 76.7c11.5 0 20.8 9.3 20.8 20.8s-9.3 20.8-20.8 20.8-20.8-9.3-20.8-20.8 9.4-20.8 20.8-20.8zm-136.8 0c11.5 0 20.8 9.3 20.8 20.8s-9.3 20.8-20.8 20.8-20.8-9.3-20.8-20.8 9.4-20.8 20.8-20.8zm153.6-297l42.5 42.7h-92.1l42.7-42.7c1.8-1.9 5-1.9 6.9 0zm-42.7 11.8l-30.9 30.9h-20.1l-8.3-14.9 59.3-16zm-137.5-8.6l34.5-19.2 32.7 58.7h-45.2l-22-39.5zm272.2 67.1L344.2 479c-2.9 8.6-13.5 16.1-22.6 16.1H123.8c-8.4 0-16.2-7-17-15.4l-3-29.5h181.9c4.7 0 8.5-3.8 8.5-8.5s-3.8-8.5-8.5-8.5H102.1l-10-98.8c-.4-3.8.7-7.3 3.1-9.9 2.3-2.6 5.6-4 9.3-4h282.4c3.3 0 5.9 1 7.3 2.9 1.2 2 1.3 4.8.2 8z"/></symbol><symbol viewBox="-97.5 165.4 512 512" id="advantages-item7"><circle fill="#DDF1F9" cx="129.1" cy="421.8" r="187.6"/><g fill="#1B9EEA"><path d="M388.3 463.5c-5.9-3.3-13.4-2.5-20.6 2l-132.4 83.4c-3.7 2.3-4.8 7.2-2.5 10.9s7.2 4.8 10.9 2.5l132.4-83.4c2.8-1.8 4.3-1.6 4.6-1.5.2.1 1.2 1.4 1.2 4.7 0 8.9-6.6 20.8-14.1 25.6l-128.3 80.8c-6.8 4.3-13.1 5.5-17.1 3.2-4.1-2.2-6.4-8.1-6.4-16.2 0-20.4 14.6-46.9 31.9-57.8l146.1-92c2.3-1.4 3.7-4 3.7-6.7s-1.4-5.2-3.7-6.7L113.2 235.5a7.95 7.95 0 0 0-8.4 0l-147.9 93.1c-21 13.2-37.5 43.1-37.5 67.9v4.2c0 24.8 16.5 54.7 37.5 67.9l220 138.5c3.7 2.3 8.6 1.2 10.9-2.5 2.3-3.7 1.2-8.6-2.5-10.9l-220-138.5C-51.1 445-64.9 420-64.9 400.7v-4.2c0-19.3 13.8-44.3 30.1-54.6L109 251.4l266 167.5-135.5 85.3c-22 13.9-39.3 45.1-39.3 71.1 0 14.2 5.2 24.8 14.5 30 3.8 2.1 7.9 3.1 12.3 3.1 6.5 0 13.6-2.3 20.8-6.8l128.3-80.8c12-7.6 21.5-24.7 21.5-38.9 0-8.4-3.4-15.1-9.3-18.4z"/><path d="M291.1 426.8c2.6 0 5.2-1.3 6.7-3.7 2.3-3.7 1.2-8.6-2.5-10.9L113.2 297.6c-3.7-2.3-8.6-1.2-10.9 2.5-2.3 3.7-1.2 8.6 2.5 10.9L287 425.7c1.2.7 2.7 1.1 4.1 1.1zm-31.5 20.9c2.6 0 5.2-1.3 6.7-3.7 2.3-3.7 1.2-8.6-2.5-10.9l-77-48.3c-3.7-2.3-8.6-1.2-10.9 2.5-2.3 3.7-1.2 8.6 2.5 10.9l77 48.3c1.3.9 2.8 1.2 4.2 1.2zm-104.9-42c-3.7-2.3-8.6-1.2-10.9 2.5-2.3 3.7-1.2 8.6 2.5 10.9l77.5 48.4c1.3.8 2.7 1.2 4.2 1.2 2.6 0 5.2-1.3 6.7-3.7 2.3-3.7 1.2-8.6-2.5-10.9l-77.5-48.4zM72 318.2L6.5 359.5c-2.3 1.4-3.7 4-3.7 6.7s1.4 5.2 3.7 6.7l78.1 48.6c1.3.8 2.7 1.2 4.2 1.2s3-.4 4.3-1.3l17.4-11.2c3.7-2.4 4.7-7.2 2.3-10.9-2.4-3.7-7.2-4.7-10.9-2.3l-13.2 8.5-63.2-39.3 50.7-31.9 62.3 39-7.3 4.7c-3.7 2.4-4.7 7.2-2.3 10.9 2.4 3.7 7.2 4.7 10.9 2.3l17.7-11.4c2.3-1.5 3.6-4 3.6-6.7s-1.4-5.2-3.7-6.6l-77-48.3a7.95 7.95 0 0 0-8.4 0zm131.3 167.7c2.3-3.7 1.2-8.6-2.5-10.9l-78.1-48.6c-3.7-2.3-8.6-1.2-10.9 2.5-2.3 3.7-1.2 8.6 2.5 10.9l78.1 48.6c1.3.8 2.7 1.2 4.2 1.2 2.6 0 5.2-1.3 6.7-3.7zM-24.4 385c-2.3 3.7-1.2 8.6 2.5 10.9L171 515.7c1.3.8 2.7 1.2 4.2 1.2 2.6 0 5.2-1.3 6.7-3.7 2.3-3.7 1.2-8.6-2.5-10.9L-13.5 382.4c-3.7-2.3-8.6-1.1-10.9 2.6z"/></g></symbol><symbol viewBox="0 0 976.271 976.271" id="basket"><path d="M275.573 630.437h589.502l111.196-446.076H175.336l-30.94-121.189H0v41.901h112.163L240.44 606.907l-23.529 47.056c-12.57 25.783-11.28 55.438 3.868 79.611 9.669 15.148 23.529 26.429 39.644 32.876-11.604 15.47-18.694 34.485-18.694 55.115 0 50.603 40.935 91.535 91.535 91.535s91.535-40.935 91.535-91.535c0-18.372-5.478-35.454-14.504-49.637h209.179c-9.346 14.18-14.504 31.265-14.504 49.637 0 50.603 40.935 91.535 91.535 91.535 50.6 0 91.541-40.932 91.541-91.535 0-18.372-5.478-35.454-14.504-49.637h67.041V730.03H290.077c-13.861 0-26.107-6.768-33.519-18.694-7.411-11.604-8.059-26.107-1.933-38.678l20.948-42.221zm420.614 141.494c27.398 0 49.637 22.239 49.637 49.637s-22.239 49.637-49.637 49.637-49.637-22.239-49.637-49.637c0-27.397 22.239-49.637 49.637-49.637zm-362.921 0c27.398 0 49.637 22.239 49.637 49.637s-22.239 49.637-49.637 49.637-49.637-22.239-49.637-49.637c0-27.397 22.242-49.637 49.637-49.637zM186.294 226.262h736.474L832.2 588.535H278.797l-92.503-362.273z"/></symbol><symbol viewBox="190 -99.9 1192 944.6" id="basket-add"><path d="M465.6 562.1h589.5l59.8-239.8-72.9-89.7L949 116H365.3L334.4-5.2H190v41.9h112.2l128.3 501.8-23.5 47.1c-12.6 25.8-11.3 55.4 3.9 79.6 9.7 15.1 23.5 26.4 39.6 32.9-11.6 15.5-18.7 34.5-18.7 55.1 0 50.6 40.9 91.5 91.5 91.5s91.5-40.9 91.5-91.5c0-18.4-5.5-35.5-14.5-49.6h209.2c-9.3 14.2-14.5 31.3-14.5 49.6 0 50.6 40.9 91.5 91.5 91.5s91.5-40.9 91.5-91.5c0-18.4-5.5-35.5-14.5-49.6h67v-41.9H480.1c-13.9 0-26.1-6.8-33.5-18.7-7.4-11.6-8.1-26.1-1.9-38.7l20.9-42.2zm420.6 141.5c27.4 0 49.6 22.2 49.6 49.6s-22.2 49.6-49.6 49.6-49.6-22.2-49.6-49.6c-.1-27.4 22.2-49.6 49.6-49.6zm-362.9 0c27.4 0 49.6 22.2 49.6 49.6s-22.2 49.6-49.6 49.6c-27.4 0-49.6-22.2-49.6-49.6-.1-27.4 22.2-49.6 49.6-49.6zm-147-545.7H952l58 65 62.6 95.6-50.4 201.7H468.8l-92.5-362.3z"/><path d="M1143.8-99.9c-131.3 0-237.7 106.4-237.7 237.7s106.4 237.7 237.7 237.7 237.7-106.4 237.7-237.7-106.4-237.7-237.7-237.7zm116 214.9l-102 102c-3.9 3.9-9 5.9-14.1 5.9s-10.2-2-14.1-5.9l-101.7-101.7c-7.8-7.8-7.8-20.5 0-28.3 7.8-7.8 20.5-7.8 28.3 0l87.5 87.5 87.9-87.9c7.8-7.8 20.5-7.8 28.3 0 7.7 7.9 7.7 20.6-.1 28.4z"/></symbol><symbol viewBox="0 0 383.6 383.6" id="basket-remove"><path d="M255.8 112h-12c-4.4 0-8 3.6-8 8s3.6 8 8 8h12c4.4 0 8-3.6 8-8s-3.6-8-8-8z"/><path d="M315.8 48h-48c0-26.4-21.6-48-48-48h-60c-26.4 0-48 21.6-48 48h-44c-22 0-40 18-40 40v16c0 12 9.2 22 20.8 23.6L69 347.2c2 20.8 19.2 36.4 40 36.4h165.6c20.8 0 38-15.6 40-36.4L335 127.6c11.6-1.6 20.8-11.6 20.8-23.6V88c0-22-18-40-40-40zm-156-32h60c17.6 0 32 14.4 32 32h-124c0-17.6 14.4-32 32-32zm180 88c0 4.4-3.6 8-8 8h-4c-4 0-7.6 3.2-8 7.2L298.6 346c-1.2 12.4-11.6 22-24 22H109c-12.4 0-22.8-9.6-24-22L64.6 128h143.2c4.4 0 8-3.6 8-8s-3.6-8-8-8h-156c-4.4 0-8-3.6-8-8V88c0-13.2 10.8-24 24-24h248c13.2 0 24 10.8 24 24v16z"/><path d="M127.8 160c-4.4 0-8 3.6-8 8v152c0 4.4 3.6 8 8 8s8-3.6 8-8V168c0-4.4-3.6-8-8-8zm64 0c-4.4 0-8 3.6-8 8v152c0 4.4 3.6 8 8 8s8-3.6 8-8V168c0-4.4-3.6-8-8-8zm64 0c-4.4 0-8 3.6-8 8v152c0 4.4 3.6 8 8 8s8-3.6 8-8V168c0-4.4-3.6-8-8-8z"/></symbol><symbol viewBox="188 -66.1 972 972" id="calc-item1"><path d="M1052.1 721.3h-14.9V325.6c0-3.6-2.4-6.7-5.9-7.7L685 223.4c-3.5-.9-5.9-4.1-5.9-7.7v-74.9c0-35.7-82.5-64.7-184.2-64.7s-184.2 29-184.2 64.7v580.5h-14.9c-4.4 0-7.9 3.6-7.9 7.9v26.5c0 4.4 3.6 7.9 7.9 7.9h756.3c4.4 0 7.9-3.6 7.9-7.9v-26.5c.1-4.4-3.5-7.9-7.9-7.9zm-678.3-91.7c0 3.6-2.4 6.7-5.8 7.6-11.1 3.1-21.2 6.7-30.1 10.6-5.3 2.3-11.1-1.5-11.1-7.3v-35c0-3.1 1.8-5.8 4.5-7.2 9.4-4.5 20.2-8.7 32.3-12.3 5.1-1.5 10.2 2.3 10.2 7.6v36zm0-84.9c0 3.6-2.4 6.7-5.8 7.7-11.1 3.1-21.2 6.7-30.1 10.6-5.3 2.3-11.1-1.5-11.1-7.3v-35c0-3.1 1.8-5.8 4.5-7.2 9.4-4.5 20.2-8.7 32.3-12.3 5.1-1.5 10.2 2.3 10.2 7.6v35.9zm0-84.9c0 3.6-2.4 6.7-5.8 7.6-11.1 3.1-21.2 6.7-30.1 10.6-5.3 2.3-11.1-1.5-11.1-7.3v-35c0-3.1 1.8-5.8 4.5-7.2 9.4-4.5 20.2-8.7 32.3-12.3 5.1-1.5 10.2 2.3 10.2 7.6v36zm0-84.9c0 3.6-2.4 6.7-5.8 7.7-11.1 3.1-21.2 6.7-30.1 10.6-5.3 2.3-11.1-1.5-11.1-7.3v-35c0-3.1 1.8-5.8 4.5-7.2 9.4-4.5 20.2-8.7 32.3-12.3 5.1-1.5 10.2 2.3 10.2 7.6v35.9zm0-84.9c0 3.6-2.4 6.7-5.8 7.7-11.1 3.1-21.2 6.7-30.1 10.6-5.3 2.3-11.1-1.5-11.1-7.3v-35c0-3.1 1.8-5.8 4.5-7.2 9.4-4.5 20.2-8.7 32.3-12.3 5.1-1.5 10.2 2.3 10.2 7.6V290zm0-84.9c0 3.6-2.4 6.7-5.8 7.6-11.1 3.1-21.2 6.7-30.1 10.6-5.3 2.3-11.1-1.5-11.1-7.3v-35c0-3.1 1.8-5.8 4.5-7.2 9.4-4.5 20.2-8.7 32.3-12.3 5.1-1.5 10.2 2.3 10.2 7.6v36zM485 613.8c0 4.3-3.4 7.8-7.7 7.9-26.5.8-51.5 3.4-74 7.4-4.9.9-9.4-2.9-9.4-7.8V585c0-3.8 2.7-7.1 6.5-7.8 23.2-4.3 49-7.1 76.4-8 4.5-.1 8.2 3.5 8.2 7.9v36.7zm0-84.9c0 4.3-3.4 7.8-7.7 7.9-26.5.8-51.5 3.4-74 7.5-4.9.9-9.4-2.9-9.4-7.8v-36.3c0-3.8 2.7-7.1 6.5-7.8 23.2-4.3 49-7.1 76.4-8 4.5-.1 8.2 3.5 8.2 7.9v36.6zm0-84.9c0 4.3-3.4 7.8-7.7 7.9-26.5.8-51.5 3.4-74 7.4-4.9.9-9.4-2.9-9.4-7.8v-36.3c0-3.8 2.7-7.1 6.5-7.8 23.2-4.3 49-7.1 76.4-8 4.5-.1 8.2 3.5 8.2 7.9V444zm0-84.9c0 4.3-3.4 7.8-7.7 7.9-26.5.8-51.5 3.4-74 7.4-4.9.9-9.4-2.9-9.4-7.8v-36.3c0-3.8 2.7-7.1 6.5-7.8 23.2-4.3 49-7.1 76.4-8 4.5-.1 8.2 3.5 8.2 7.9v36.7zm0-84.9c0 4.3-3.4 7.8-7.7 7.9-26.5.8-51.5 3.4-74 7.4-4.9.9-9.4-2.9-9.4-7.8v-36.3c0-3.8 2.7-7.1 6.5-7.8 23.2-4.3 49-7.1 76.4-8 4.5-.1 8.2 3.5 8.2 7.9v36.7zm0-84.9c0 4.3-3.4 7.8-7.7 7.9-26.5.8-51.5 3.4-74 7.4-4.9.9-9.4-2.9-9.4-7.8v-36.3c0-3.8 2.7-7.1 6.5-7.8 23.2-4.3 49-7.1 76.4-8 4.5-.1 8.2 3.5 8.2 7.9v36.7zm131.2-20.1c0-5.3 5.1-9.1 10.2-7.6 12.1 3.6 22.9 7.8 32.3 12.3 2.8 1.3 4.5 4.1 4.5 7.2v35c0 5.7-5.9 9.6-11.1 7.3-9-3.9-19.1-7.4-30.1-10.6-3.4-1-5.8-4.1-5.8-7.6v-36zm-20.1 452.2c0 5-4.5 8.7-9.4 7.8-22.6-4-47.6-6.6-74-7.4-4.3-.1-7.7-3.6-7.7-7.9v-36.6c0-4.5 3.7-8.1 8.2-7.9 27.4.9 53.3 3.6 76.4 8 3.8.7 6.5 4 6.5 7.8v36.2zm0-84.9c0 5-4.5 8.7-9.4 7.8-22.6-4-47.6-6.6-74-7.5-4.3-.1-7.7-3.6-7.7-7.9v-36.6c0-4.5 3.7-8.1 8.2-7.9 27.4.9 53.3 3.6 76.4 8 3.8.7 6.5 4 6.5 7.8v36.3zm0-84.9c0 5-4.5 8.7-9.4 7.8-22.6-4-47.6-6.6-74-7.4-4.3-.1-7.7-3.6-7.7-7.9v-36.6c0-4.5 3.7-8.1 8.2-7.9 27.4.9 53.3 3.6 76.4 8 3.8.7 6.5 4 6.5 7.8v36.2zm0-84.9c0 5-4.5 8.7-9.4 7.8-22.6-4-47.6-6.6-74-7.4-4.3-.1-7.7-3.6-7.7-7.9v-36.6c0-4.5 3.7-8.1 8.2-7.9 27.4.9 53.3 3.6 76.4 8 3.8.7 6.5 4 6.5 7.8v36.2zm0-84.9c0 5-4.5 8.7-9.4 7.8-22.6-4-47.6-6.6-74-7.4-4.3-.1-7.7-3.6-7.7-7.9v-36.6c0-4.5 3.7-8.1 8.2-7.9 27.4.9 53.3 3.6 76.4 8 3.8.7 6.5 4 6.5 7.8v36.2zm0-85c0 5-4.5 8.7-9.4 7.8-22.6-4-47.6-6.6-74-7.4-4.3-.1-7.7-3.6-7.7-7.9v-36.6c0-4.5 3.7-8.1 8.2-7.9 27.4.9 53.3 3.6 76.4 8 3.8.7 6.5 4 6.5 7.8v36.2zm20.1 93.2v-35.9c0-5.3 5.1-9.1 10.2-7.6 12.1 3.6 22.9 7.8 32.3 12.3 2.8 1.3 4.5 4.1 4.5 7.2v35c0 5.7-5.9 9.6-11.1 7.3-9-3.9-19.1-7.4-30.1-10.6-3.5-1.1-5.8-4.2-5.8-7.7zm257.3 431.3H751.2V648c0-4.4 3.6-7.9 7.9-7.9h106.4c4.4 0 7.9 3.6 7.9 7.9v73.3zm125.6-139.4c0 4.4-3.6 7.9-7.9 7.9H650.7c-4.4 0-7.9-3.6-7.9-7.9v-30.6c0-4.4 3.6-7.9 7.9-7.9h340.4c4.4 0 7.9 3.6 7.9 7.9v30.6zm0-78.7c0 4.4-3.6 7.9-7.9 7.9H650.7c-4.4 0-7.9-3.6-7.9-7.9v-30.6c0-4.4 3.6-7.9 7.9-7.9h340.4c4.4 0 7.9 3.6 7.9 7.9v30.6zm0-78.6c0 4.4-3.6 7.9-7.9 7.9H650.7c-4.4 0-7.9-3.6-7.9-7.9V394c0-4.4 3.6-7.9 7.9-7.9h340.4c4.4 0 7.9 3.6 7.9 7.9v30.6z"/></symbol><symbol viewBox="0 0 972 972" id="calc-item2"><path d="M490.7 169.6L0 386.4v27.2h40.8v388.9h888.1V413.6H972v-27.2L490.7 169.6zM862.2 722H550.1V567.8H433.8V722H103.4V413.6h758.7V722z"/><path d="M322.5 538.7H153v-80.4h169.6v80.4zm147.8-80.4h-62.6v80.4h62.6v-80.4zm90 0h-58v80.4h58v-80.4zm255.2 0H646v80.4h169.6v-80.4zM326 597.3H156.5v80.4H326v-80.4zm493 0H649.5v80.4H819v-80.4z"/></symbol><symbol viewBox="0 0 972 972" id="calc-item3"><path d="M118 429.8l-23.6-37.7L464 152.7l368.8 238-22.9 39.1-346.3-227.9z"/><path d="M661.2 342.8l311 207-20.7 30.7-290.3-188.6z"/><path d="M909 776.8V561.3L652.1 394.1v-56L463.6 214 279.2 334v17.5L0 531l22.9 38.8L40.8 557v218.8H23.9l1 44.5h906.3v-43.5H909zm-630.2-.4H71.5V657.1h207.4v119.3zm0-135.7H71.5V537.6L278.8 404v236.7zm139.1 49.6h-93.1V534.5h93.1v155.8zm0-386.9h83.5v138.1h-83.5V303.4zm167.9 386.9h-93.1V534.5h93.1v155.8zm220.6 0h-93.1V534.5h93.1v155.8zM592.7 158.1H658v122.3h-65.3z"/></symbol><symbol viewBox="0 0 111 113.9" id="delivery-1"><circle fill="#E1F2FA" cx="55.5" cy="55.5" r="55.5"/><path fill="#3699D5" d="M91.1 113.4h-19c-1.3 0-2.4-1.1-2.4-2.4V25.7H58.8c-1.3 0-2.4-1.1-2.4-2.4v-18c0-1.3 1.1-2.4 2.4-2.4h32.3c1.3 0 2.4 1.1 2.4 2.4V111c0 1.3-1 2.4-2.4 2.4zm-16.6-4.8h14.3V7.6H61.2v13.3h10.9c1.3 0 2.4 1.1 2.4 2.4v85.3z"/></symbol><symbol viewBox="0 0 111 113.2" id="delivery-2"><circle fill="#E1F2FA" cx="55.5" cy="57.7" r="55.5"/><path fill="#3699D5" d="M104.3 112.6H35.9c-1.3 0-2.4-1.1-2.4-2.4v-18c0-.7.3-1.3.8-1.7l36.5-33.9c6.9-6.4 12.1-12 12.1-20 0-7.7-5.3-13.1-12.8-13.1-4.1 0-7.4 1.3-9.9 4-3 3.2-4.4 8-4.1 13.3 0 .7-.2 1.3-.6 1.8-.5.5-1.1.8-1.7.8h-19c-1.3 0-2.4-1.1-2.4-2.4v-3.9c0-20.4 16.4-37 36.6-37 21.5 0 37.7 16 37.7 37.3 0 8.6-2.9 16.5-8.8 24.2l-.2.2-13.3 14-.1.1-15.5 13.9h35.6c1.3 0 2.4 1.1 2.4 2.4v18c-.1 1.3-1.2 2.4-2.5 2.4zm-66-4.7h63.6V94.6H62.5c-1 0-1.9-.6-2.2-1.5-.4-.9-.1-2 .6-2.6l20.1-18 13.2-13.9c5.2-6.8 7.7-13.8 7.7-21.2 0-18.5-14.2-32.5-33-32.5-17.5 0-31.8 14.5-31.8 32.2v1.5h14.2c.1-5.6 2-10.8 5.4-14.4 3.4-3.6 8-5.5 13.3-5.5 10.2 0 17.5 7.5 17.5 17.8 0 10.8-7.6 17.8-13.6 23.5L38.3 93.2v14.7z"/></symbol><symbol viewBox="0 0 111 115.5" id="delivery-3"><circle fill="#E1F2FA" cx="55.5" cy="57.9" r="55.5"/><path fill="#3699D5" d="M68.3 115.3c-20.1 0-37-16.2-37.6-36.2 0-.6.2-1.3.7-1.7.4-.5 1.1-.7 1.7-.7h19.2c1.3 0 2.3 1 2.4 2.3.4 7.3 6.9 13 14.8 13 7.8 0 14.2-6.4 14.2-14.2 0-5.4-2.3-9.9-6.4-12.6-3.8-2.5-8.1-3-13.4-3H62c-1.3 0-2.4-1.1-2.4-2.4v-18c0-1.3 1.1-2.4 2.4-2.4h1.3c9.1 0 12.8-2.5 12.8-8.6 0-4.3-3-7.1-7.6-7.1-1.8 0-3.3.6-4.5 1.8-1.2 1.2-1.8 2.9-1.7 4.8 0 .6-.2 1.3-.7 1.7-.4.5-1.1.7-1.7.7h-19c-1.3 0-2.4-1.1-2.4-2.4-.1-7.8 3-15.3 8.7-21 5.7-5.7 13.4-9 21.3-9C85.8.3 99.9 14 99.9 30.9c0 7.5-2.5 13.8-7.1 18.3 9 5 14.6 15.9 14.6 28.8 0 21.2-16.8 37.3-39.1 37.3zM35.6 81.4c1.8 16.3 15.9 29.2 32.7 29.2 19.6 0 34.4-14 34.4-32.7 0-9.5-4-22-15.1-25.9-.9-.3-1.5-1.1-1.6-1.9-.1-.9.3-1.8 1-2.3 6.7-4.5 8.1-11.7 8.1-16.9C95.1 16.6 83.1 5 68.4 5c-6.6 0-13.2 2.8-17.9 7.6-4.2 4.2-6.7 9.6-7.2 15.3h14.4c.4-2.2 1.4-4.2 2.9-5.8 2-2.1 4.8-3.2 7.9-3.2 7.3 0 12.4 4.9 12.4 11.8 0 12.4-11.3 13.3-16.5 13.4v13.3c5.2 0 10.6.6 15.5 3.8 5.5 3.7 8.5 9.5 8.5 16.6 0 10.5-8.5 19-19 19-9.7 0-17.7-6.6-19.3-15.3H35.6z"/></symbol><symbol viewBox="0 0 139.4 44.7" id="dorohovdesign"><path d="M52.2 19.5V8.1H57c3.6 0 6.1 2.1 6.1 5.7 0 3.5-2.6 5.7-6.1 5.7h-4.8zm7.9-5.7c0-1.8-1.1-3.1-3.1-3.1h-1.9v6.2H57c2 0 3.1-1.4 3.1-3.1m4.1 0c0-3.4 2.6-5.9 6.1-5.9 3.5 0 6.1 2.4 6.1 5.9 0 3.5-2.6 5.9-6.1 5.9-3.5 0-6.1-2.4-6.1-5.9m9.2 0c0-1.9-1.2-3.3-3.1-3.3-1.9 0-3.1 1.4-3.1 3.3 0 1.8 1.2 3.3 3.1 3.3 1.9 0 3.1-1.4 3.1-3.3m11 5.7l-1.9-3.8H81v3.8h-2.9V8.1h5.7c2.5 0 3.9 1.7 3.9 3.8 0 2-1.2 3-2.3 3.4l2.3 4.2h-3.3zm.3-7.6c0-.8-.6-1.2-1.4-1.2H81v2.4h2.3c.8 0 1.4-.4 1.4-1.2m4.2 1.9c0-3.4 2.6-5.9 6.1-5.9 3.5 0 6.1 2.4 6.1 5.9 0 3.5-2.6 5.9-6.1 5.9-3.5 0-6.1-2.4-6.1-5.9m9.1 0c0-1.9-1.2-3.3-3.1-3.3-1.9 0-3.1 1.4-3.1 3.3 0 1.8 1.2 3.3 3.1 3.3 1.9 0 3.1-1.4 3.1-3.3m12.4 5.7v-4.6h-4.7v4.6h-3V8.1h3v4.3h4.7V8.1h2.9v11.4zm4.6-5.7c0-3.4 2.6-5.9 6.1-5.9 3.5 0 6.1 2.4 6.1 5.9 0 3.5-2.6 5.9-6.1 5.9-3.5 0-6.1-2.4-6.1-5.9m9.2 0c0-1.9-1.2-3.3-3.1-3.3-1.9 0-3.1 1.4-3.1 3.3 0 1.8 1.2 3.3 3.1 3.3 1.9 0 3.1-1.4 3.1-3.3m7.3 5.7l-4.3-11.4h3.3l2.8 8.2 2.8-8.2h3.3l-4.2 11.4zm-79.3 17V25.1H57c3.6 0 6.1 2.1 6.1 5.7 0 3.5-2.6 5.7-6.1 5.7h-4.8zm7.9-5.7c0-1.8-1.1-3.1-3.1-3.1h-1.9v6.2H57c2 0 3.1-1.4 3.1-3.1m4.7 5.7V25.1h8.3v2.6h-5.3v1.8H73V32h-5.2v1.9h5.3v2.6zm9.6-1.6l1.5-2.2c.8.8 2.1 1.5 3.6 1.5 1 0 1.6-.4 1.6-.9 0-1.5-6.4-.3-6.4-4.7 0-1.9 1.6-3.6 4.5-3.6 1.8 0 3.4.5 4.6 1.6l-1.6 2.1c-1-.8-2.2-1.2-3.3-1.2-.8 0-1.2.3-1.2.8 0 1.4 6.4.4 6.4 4.6 0 2.3-1.7 3.8-4.7 3.8-2.2 0-3.8-.7-5-1.8m11.5-9.8h2.9v11.3h-2.9zm4.7 5.7c0-3.6 2.8-5.9 6.1-5.9 2.5 0 4.1 1.3 4.8 2.8L99.1 29c-.4-.7-1.3-1.4-2.4-1.4-1.9 0-3.2 1.4-3.2 3.3s1.3 3.3 3.2 3.3c.8 0 1.7-.3 2.1-.7v-.9h-2.6V30h5.5v4.5c-1.2 1.3-2.9 2.2-5 2.2-3.4 0-6.1-2.3-6.1-5.9m20.9 5.7l-4.8-6.6v6.6h-2.9V25.1h3l4.6 6.3v-6.3h2.9v11.4zM17.7 0H0v44.7h17.8c15 0 24.6-8.8 24.6-22.4C42.4 8.7 32.7 0 17.7 0m-.4 35.7h-8V9.5h8c9.3 0 15.7 3.7 15.7 12.7.1 7.5-5.8 13.5-15.7 13.5"/><path d="M19.1 17H17v10.6h2c4 0 6.4-2.4 6.4-5.4 0-3.7-2.6-5.2-6.3-5.2"/></symbol><symbol viewBox="0 0 124.099 124.1" id="email"><path d="M18.25 106.7c5.6 5.399 12.3 9.8 20.1 12.8 7.8 3 16.5 4.6 25.9 4.6 10.5 0 20.2-1.6 28.9-4.899 7.9-2.9 1.1-17.601-4.7-15.2-6.399 2.7-14.2 4.1-23.101 4.1-7 0-13.399-1.1-19-3.199-5.6-2.101-10.5-5.101-14.5-9-4-3.9-7.2-8.7-9.4-14.2-2.3-5.601-3.4-12-3.4-19 0-6.6 1.1-12.9 3.3-18.5 2.2-5.6 5.2-10.6 9.2-14.6 3.9-4.1 8.7-7.4 14.2-9.7 5.5-2.3 11.7-3.5 18.5-3.5 6.301 0 12.1.9 17.301 2.5 5.1 1.6 9.5 4.1 13.199 7.4 3.7 3.3 6.6 7.3 8.7 12.1 2.101 4.8 3.101 10.4 3.101 16.8 0 3.7-.4 7.2-1.201 10.5-.799 3.1-1.799 5.899-3.199 8.1-1.301 2.101-2.801 3.8-4.6 5-2.101 1.4-5.201 2.2-7.601 1.4-3-1-2.399-5.2-2.2-7.7.301-3.4 1.2-6.6 1.9-9.9 1.1-5.4 2.3-10.7 3.4-16 .6-2.9 1.299-5.9 1.899-8.8.8-3.7-2-7.3-5.899-7.3h-4.4c-2.7 0-5.1 1.8-5.801 4.4-.299 1.2-.6 2.2-.6 2.2-2.199-6.8-10.3-8.7-16.7-8.6-8.4.1-16.1 4.4-21.7 10.5-.5.6-1.1 1.2-1.6 1.8-2.9 3.5-5.1 7.6-6.6 11.9-1.6 4.6-2.4 9.3-2.4 14.1 0 4.101.6 8 1.7 11.5 1.2 3.601 2.9 6.7 5.1 9.3 2.2 2.601 5 4.7 8.3 6.2 3.3 1.5 7 2.3 11 2.3 3 0 5.8-.5 8.3-1.399 2.4-.9 4.6-2 6.5-3.3 1.5-1 2.9-2.2 4-3.301.699 1.301 1.5 2.4 2.6 3.5 2.801 3 7.1 4.5 12.801 4.5 4.5 0 8.899-.899 13-2.699 4.1-1.801 7.799-4.601 10.899-8.2 3-3.601 5.5-8 7.3-13.2 1.801-5.2 2.7-11.2 2.7-17.8 0-9-1.7-17-5-23.7s-7.8-12.4-13.399-16.9c-5.5-4.5-11.9-7.8-19-10.1C79.05 1.1 71.75 0 64.25 0c-8.7 0-17 1.6-24.7 4.7-7.7 3.2-14.5 7.6-20.2 13.1-5.8 5.5-10.4 12.2-13.7 19.7-3.3 7.5-5 15.9-5 24.7 0 8.899 1.5 17.3 4.6 24.8 3 7.6 7.4 14.2 13 19.7zm54.099-42c-.699 2.7-1.699 5.3-3.1 7.7-1.4 2.3-3.1 4.199-5.3 5.699-2 1.4-4.4 2.101-7.4 2.101-1.9 0-3.4-.4-4.5-1.101-1.2-.8-2.2-1.8-2.9-3.1-.8-1.4-1.3-2.9-1.6-4.4-.3-1.6-.5-3.1-.5-4.399 0-2.8.4-5.6 1.2-8.5.8-2.8 1.9-5.4 3.4-7.6 1.5-2.2 3.2-4 5.3-5.4 1.9-1.3 4-1.9 6.5-1.9 2 0 3.601.3 4.8 1 1.2.7 2.2 1.6 2.9 2.7.8 1.2 1.3 2.6 1.699 4.1.4 1.7.601 3.5.601 5.2-.1 2.5-.399 5.1-1.1 7.9z"/></symbol><symbol viewBox="0 0 96.124 96.123" id="fb"><path d="M72.089.02L59.624 0C45.62 0 36.57 9.285 36.57 23.656v10.907H24.037a1.96 1.96 0 0 0-1.96 1.961v15.803a1.96 1.96 0 0 0 1.96 1.96H36.57v39.876a1.96 1.96 0 0 0 1.96 1.96h16.352a1.96 1.96 0 0 0 1.96-1.96V54.287h14.654a1.96 1.96 0 0 0 1.96-1.96l.006-15.803a1.963 1.963 0 0 0-1.961-1.961H56.842v-9.246c0-4.444 1.059-6.7 6.848-6.7l8.397-.003a1.96 1.96 0 0 0 1.959-1.96V1.98A1.96 1.96 0 0 0 72.089.02z"/></symbol><symbol viewBox="0 0 97.395 97.395" id="inst"><path d="M12.501 0h72.393c6.875 0 12.5 5.09 12.5 12.5v72.395c0 7.41-5.625 12.5-12.5 12.5H12.501C5.624 97.395 0 92.305 0 84.895V12.5C0 5.09 5.624 0 12.501 0zm58.447 10.821a4.395 4.395 0 0 0-4.383 4.385v10.495a4.396 4.396 0 0 0 4.383 4.385h11.008a4.398 4.398 0 0 0 4.385-4.385V15.206a4.397 4.397 0 0 0-4.385-4.385H70.948zm15.439 30.367h-8.572a28.486 28.486 0 0 1 1.25 8.355c0 16.2-13.556 29.332-30.275 29.332-16.718 0-30.272-13.132-30.272-29.332 0-2.904.438-5.708 1.25-8.355h-8.945v41.141a3.884 3.884 0 0 0 3.872 3.872h67.822a3.883 3.883 0 0 0 3.872-3.872V41.188h-.002zM48.789 29.533c-10.802 0-19.56 8.485-19.56 18.953s8.758 18.953 19.56 18.953c10.803 0 19.562-8.485 19.562-18.953s-8.758-18.953-19.562-18.953z"/></symbol><symbol viewBox="0 0 97.713 97.713" id="location"><path d="M48.855 0C29.021 0 12.883 16.138 12.883 35.974c0 5.174 1.059 10.114 3.146 14.684 8.994 19.681 26.238 40.46 31.31 46.359a2.003 2.003 0 0 0 3.034 0c5.07-5.898 22.314-26.676 31.311-46.359 2.088-4.57 3.146-9.51 3.146-14.684C84.828 16.138 68.69 0 48.855 0zm0 54.659c-10.303 0-18.686-8.383-18.686-18.686 0-10.304 8.383-18.687 18.686-18.687s18.686 8.383 18.686 18.687c.001 10.303-8.382 18.686-18.686 18.686z"/></symbol><symbol viewBox="0 0 344.3 147.5" id="logotip"><path d="M76 .1c-.7-.1-1.5-.1-2.2-.1C33.1 0 0 33.1 0 73.8s33.1 73.7 73.8 73.7c40.7 0 73.8-33.1 73.8-73.7-.1-40-32-72.5-71.6-73.7zm-2.2 143.4C35.3 143.5 4 112.2 4 73.8 4 35.3 35.3 4 73.8 4s69.8 31.3 69.8 69.8c0 38.4-31.4 69.7-69.8 69.7z"/><path d="M73.8 6.6c-37 0-67.2 30.1-67.2 67.2 0 37 30.1 67.2 67.2 67.2 37 0 67.2-30.1 67.2-67.2-.1-37.1-30.2-67.2-67.2-67.2zM52 33c0-12 9.8-21.8 21.8-21.8 16.2 0 29.3 13.3 29.3 29.7 0 1.3-.1 2.5-.3 3.8-2.2 15.3-25.1 13.4-25.1-2.1 0-2.2-1.7-3.9-3.9-3.9s-3.9 1.7-3.9 3.9v27.2H52V33zM11.2 73.8c0-3 .2-5.9.6-8.8 5.4 6.2 12.6 10.4 20.7 11.9l-17 19.4c-2.8-7-4.3-14.6-4.3-22.5zM36.6 124c-4.8-3.6-9.1-7.8-12.7-12.5-3.1-4.1-2.9-9.7.5-13.6L36.6 84v40zm0-54.3c-4.2-.4-8.2-1.8-11.7-3.9-7.6-4.5-10.2-14.4-6-22.1 4.4-8 10.4-14.9 17.7-20.3v46.3zm37.2 66.6h-.2c-12 0-21.5-10-21.5-22V77.7h18.1c2 18.5 17.8 33.2 36.9 33.2H124c-11.4 15.4-29.6 25.4-50.2 25.4zm33.2-33.2c-14.9 0-27.2-11.3-29-25.7 18.4-2.1 32.7-17.6 32.9-36.5 0-8.2-2.6-15.8-7.1-22 9.3 5.1 17.2 12.6 22.9 21.6h-7.9c.5 3.8 2.5 7.2 5.6 9.5 6.3 4.6 10.6 11.6 11.8 19.6.1 1.4.1 2.7.1 4.1v.6c-.2 16-13.4 28.8-29.3 28.8zM211.9 80.9c0 1.2.4 2.2 1.2 2.9.8.7 2 1.1 3.7 1.1h2.1v.7h-21.7v-.7h2.1c3.3 0 4.9-1.4 4.9-4.2V62h-6.9c-2 .5-3.3 1.8-4.1 3.8-.7 2.1-1.2 4.7-1.5 7.9-.1 2.4-.4 4.4-.8 5.9-.4 1.6-1 2.8-1.7 3.7-.7.9-1.6 1.6-2.6 1.9-1 .4-2.2.6-3.5.6-1.4 0-2.5-.3-3.4-.9-.9-.6-1.5-1.4-1.8-2.4-.4-1-.5-2.1-.4-3.4.1-1.3.4-2.6.9-4 .3-.2.6-.3.9-.3.3 0 .6.2.8.4-.8 1.1-1.3 2.2-1.6 3.3-.3 1.1-.3 2-.2 2.8.1.8.4 1.5.8 2s1 .8 1.6.8c.8 0 1.3-.3 1.6-.8.3-.5.5-1.2.6-2.2.1-.9.1-2.1.1-3.4 0-1.3.1-2.8.3-4.4.1-1.4.4-2.8.9-4.1.4-1.4 1-2.6 1.8-3.7.7-1.1 1.6-2.1 2.7-2.8 1-.8 2.3-1.3 3.7-1.5V61c-1.4-.1-2.7-.5-4-1-1.3-.6-2.4-1.3-3.5-2.2-1-.9-1.9-2.1-2.5-3.4-.6-1.4-.9-2.9-.9-4.7 0-4.5 1.4-7.9 4.3-10.1 2.9-2.2 7.5-3.3 13.9-3.3 2 0 4 .1 6.1.2 2.1.1 3.9.2 5.3.2h7.8v.7h-2.1c-3.3 0-4.9 1.4-4.9 4.2v39.3zm-7.7-43.2c-1.8-.5-3.4-.8-4.6-.8-2.8 0-4.9.4-6.2 1.3-1.4.9-2.3 1.9-2.8 3.2-.5 1.3-.7 2.7-.6 4.3.1 1.6.1 3 .1 4.4 0 1.6.1 3.1.2 4.5s.5 2.5 1.1 3.5c.6 1 1.5 1.7 2.7 2.3 1.2.6 2.9.8 5 .8 1 0 2-.1 2.8-.2.9-.1 1.6-.4 2.3-.9V37.7zm27.2 3.8c0-2.8-1.6-4.2-4.9-4.2h-2.1v-.7h7.8c1.5 0 3.3-.1 5.3-.2 2.1-.1 4.1-.2 6.1-.2 3.5 0 6.5.3 9 .9 2.4.6 4.4 1.5 5.8 2.7 1.5 1.2 2.5 2.7 3.1 4.4.6 1.8.9 3.8.9 6 0 4.8-1.6 8.7-4.8 11.5-3.2 2.8-7.9 4.3-14 4.3-.7 0-1.4 0-2.3-.1-.9 0-1.6-.1-2.3-.2v14.8c0 2.8 1.6 4.2 4.9 4.2h2.1v.7h-21.7v-.7h2.1c1.7 0 3-.4 3.7-1.1.8-.7 1.2-1.7 1.2-2.9V41.5zm7.7 22.5c.5.5 1.4.8 2.5 1.1 1.2.3 2.3.4 3.3.4 2.2 0 3.9-.4 5.1-1.1 1.2-.7 2.1-1.8 2.7-3.1.6-1.3.9-2.9 1-4.6.1-1.8.2-3.7.2-5.8v-4.5c0-1.6-.3-3.1-.9-4.5-.6-1.4-1.6-2.5-3-3.5-1.4-.9-3.5-1.4-6.2-1.4-.7 0-1.4 0-2.1.1-.8 0-1.6.2-2.5.4V64zm49.1 13.3l-17.3-34.4c-.5-1-1-1.8-1.3-2.6-.4-.7-.8-1.3-1.2-1.7-.4-.4-.9-.8-1.5-1-.6-.2-1.3-.3-2.2-.3h-.8v-.7h21.7v.7h-2.1c-1.7 0-3 .5-3.8 1.5-.8 1-.8 2.3.1 4l11.6 23.8h.3l6.6-21.8c.7-2.3.7-4.1.1-5.5-.6-1.4-1.8-2-3.5-2h-2.1v-.7h14.3v.7h-.7c-1.7 0-3.2.8-4.5 2.5-1.3 1.7-2.4 4-3.3 6.9L289 77.3c-.6 1.9-1.2 3.4-1.9 4.5-.7 1.2-1.4 2.1-2.2 2.7-.7.7-1.5 1.1-2.2 1.3-.7.2-1.3.4-1.8.4-.7 0-1.4-.1-2.2-.4-.7-.3-1.4-.6-2-1.2-.6-.5-1.1-1.1-1.5-1.9-.4-.7-.6-1.6-.6-2.6 0-1.2.2-2.2.7-3.1.4-.8 1-1.5 1.7-1.9.7-.4 1.5-.6 2.3-.6.8 0 1.7.4 2.4 1l.1.5c-.3.7-.4 1.5-.4 2.2 0 .7.1 1.3.3 1.9.2.6.5 1 .9 1.3.4.3.8.5 1.4.5.5 0 1-.2 1.7-.6.7-.4 1.2-1.2 1.5-2.3l1-1.7zm41.1-41.4c2 0 3.7.1 5.2.3 1.5.2 2.9.3 4 .3s2.1-.1 2.9-.3c.8-.3 1.4-.8 1.8-1.7l.5.3c-.3 1.2-.6 2.6-.7 4.2-.2 1.6-.3 3.2-.4 5-.1 1.7-.2 3.6-.2 5.4 0 1.9-.1 3.7-.1 5.5h-.5c-.4-6.5-1.6-11.1-3.7-14-2.1-2.8-5-4.3-8.8-4.3-2.2 0-4 .4-5.4 1.2-1.4.8-2.5 1.8-3.4 3.1-.8 1.3-1.4 2.7-1.7 4.4-.4 1.6-.6 3.3-.7 5.1-.1 1.7-.1 3.5-.1 5.2.1 1.7.1 3.2.1 4.6 0 1.5 0 3.2-.1 5-.1 1.8-.1 3.7 0 5.6.1 1.9.3 3.7.6 5.5.4 1.8.9 3.4 1.8 4.8.8 1.4 2 2.5 3.4 3.3 1.4.8 3.3 1.3 5.6 1.3 2.1 0 3.9-.7 5.4-2 1.5-1.3 2.7-3 3.8-5.1 1-2.1 1.8-4.3 2.4-6.8.6-2.5 1-4.8 1.2-7.1h.5v5.9c0 2.1.1 4.2.3 6.3.1 2.1.3 4 .5 5.7.2 1.8.5 3.2.8 4.3l-.6.4c-.5-1.4-1.4-2.3-2.6-2.6-1.2-.3-2.5-.3-3.9 0s-2.9.6-4.3 1.1c-1.4.5-2.7.7-3.6.7-3 0-5.7-.6-8.3-1.8-2.5-1.2-4.7-2.9-6.5-5.2-1.8-2.2-3.3-4.9-4.3-8.1-1-3.2-1.5-6.7-1.5-10.6 0-3.6.5-7 1.5-10s2.5-5.6 4.3-7.8c1.8-2.2 4-3.9 6.5-5.1 2.6-1.4 5.3-2 8.3-2zm-142.9 65.2c-.3-.2-.8-.4-1.5-.4-1 0-2.3.4-2.3 4.2 0 3.1.8 3.7 2.1 3.7.8 0 1.4-.3 1.7-.6.1.2.1.4.1.6 0 .4-.9.9-2.2.9-1.7 0-2.8-.6-2.8-4.7 0-4.5 1.9-5.1 3.4-5.1.8 0 1.6.3 1.6.8 0 .1 0 .4-.1.6zm9.8-.3v8.3c0 .2 0 .2-1 .2v-8.5h-2.3c0-.9 0-.9.3-.9h5.4c0 .8 0 .9-.3.9h-2.1zm8.7-.6c-.1-.3-.1-.3 1-.3l1.4 5.6c.3 1.4.5 2.9.5 2.9s.2-1.5.5-3l1.3-5.2c.1-.3.1-.3 1.1-.3l-2.5 10c-.6 2.3-1.3 3.1-2.6 3.1-.9 0-1.4-.2-1.4-.6 0-.2.1-.5.2-.6.3.2.8.2 1.2.2.7 0 1.3-.6 1.7-2.4l-2.4-9.4zm11 8.4c0-.3.3-.2.9-.3 1.1-2.1 1.2-5.4 1.3-8.2 0-.3.1-.3 1.8-.3h2.9v8.5h.9v3.4c0 .2-.3.2-.7.2-.2-1.1-.3-2.1-.3-2.7H217c0 1-.2 2.2-.2 2.5-.1.2-.4.2-.7.2v-3.3zm5.8-7.8h-2.6c-.2 2.9-.2 5.3-1.2 7.5h3.9v-7.5zm13.3-.6c.1-.2.2-.3 1-.3v9.2c0 .2-.1.2-1 .2v-3.5c0-.2.2-3.4.2-4.4-.5 1-2 3.9-2.1 4.1l-1.9 3.5c-.1.3-.2.3-.9.3v-9.2c0-.2.1-.2 1-.2v5c0 1-.1 2.2-.2 2.9.5-.9 2-3.9 2.1-4.1l1.8-3.5zm10.3 5.2c-.7.8-1.1 1.9-1.3 3.7-.1.2-.2.3-.4.3h-.7c.1-2.3.9-3.7 1.5-4.3-.8-.3-1.6-1-1.6-2.4 0-1.9 1-2.8 3.1-2.8h2.2v9.1c0 .3 0 .3-1 .3v-4h-1.8zm1.8-4.6h-1.4c-1.2 0-1.8.6-1.8 1.9 0 1.4.8 1.9 1.6 1.9h1.6v-3.8zm15.8-.3c.8-.5 1.7-.8 2.7-.8 1.9 0 3.1.9 3.1 4 0 5.1-1.9 5.8-3.1 5.8-.8 0-1.4-.3-1.7-.7v4.1c-.2 0-.4.1-.5.1-.3 0-.5-.1-.5-.4v-12.1zm1 7.2c.3.6.9.9 1.4.9.8 0 2.2-.5 2.2-4.7 0-2.6-.7-3.3-2-3.3-.6 0-1.2.2-1.6.5v6.6zm16.9.2c.1.2.1.5.1.7 0 .5-1.2.9-2.5.9-1.8 0-3.1-.6-3.1-4.4 0-4.9 1.8-5.4 3.4-5.4 1.6 0 2.4 1.1 2.4 3 0 .8-.1 1.6-.2 2.3-1.5.3-3.6.3-4.5.3 0 2.8.8 3.2 2.2 3.2.7 0 1.6-.2 2.2-.6zm-4.5-3.5c.8 0 2.5 0 3.6-.2.1-.5.1-.9.1-1.3 0-1.5-.3-2.2-1.4-2.2-1 0-2.2.4-2.3 3.7zm11.4-4.3s0-.2.3-.2h.7l2.1 4.7c.2.3.6 1.5.6 1.5.2-.6.6-1.6.8-2.1l1.7-4c0-.1.1-.2.3-.2h.8v9.3c0 .2.1.2-1 .2v-3.5c0-.7.2-2.2.2-4.4l-1.5 3.5-1 2.2c0 .1-.1.1-.2.1h-.5l-1-2.3c-.1-.2-1-2.4-1.5-3.4 0 1.9.2 3.5.2 4.1v3.4c0 .2 0 .2-1 .2v-9.1zm17.2-.4c1.9 0 2.9 1 2.9 4.9 0 3.4-1.1 4.9-3.1 4.9-1.9 0-2.9-.6-2.9-4.9 0-3.5 1.1-4.9 3.1-4.9zm-.2 8.9c1.2 0 2-1.1 2-4 0-3.3-.7-3.9-1.9-3.9s-2 .9-2 4.1c.1 3.2.7 3.8 1.9 3.8zm15.5.5c0 .2 0 .2-1.1.2v-4.2h-3.5v4c0 .2 0 .2-1 .2v-9.2c0-.3 0-.3 1-.3v4.3h3.5v-4c0-.3 0-.3 1.1-.3v9.3zm10-8.3v8.3c0 .2 0 .2-1 .2v-8.5h-2.3c0-.9 0-.9.3-.9h5.4c0 .8 0 .9-.3.9h-2.1zm14.1 2.3c0 2.2 0 4.2-.1 5.7-.4.3-1.2.7-2.6.7-1.4 0-2.7-.2-2.7-2.8 0-2.7 1.4-3.1 2.8-3.1.5 0 1.1.1 1.5.2v-1.7c0-1.2-.6-1.5-1.5-1.5-1.2 0-2.2.2-2.7.5-.1-.2-.2-.4-.2-.6 0-.2.1-.3.2-.4.4-.2 1.6-.5 3-.5 1.5 0 2.3.6 2.3 2.3v1.2zm-2.3 1.3c-1.1 0-2.1.2-2.1 2.2 0 1.8.8 1.9 1.8 1.9.6 0 1.2-.2 1.4-.4.1-.8.1-2.3.1-3.6-.3 0-.8-.1-1.2-.1z"/></symbol><symbol viewBox="0 0 41.756 41.756" id="modal-close"><path d="M27.948 20.878L40.291 8.536a5 5 0 1 0-7.07-7.071L20.878 13.809 8.535 1.465a5 5 0 0 0-7.07 7.071l12.342 12.342L1.465 33.22a5 5 0 1 0 7.07 7.071l12.343-12.342 12.343 12.343c.976.977 2.256 1.464 3.535 1.464s2.56-.487 3.535-1.464a5 5 0 0 0 0-7.071L27.948 20.878z"/></symbol><symbol viewBox="0 0 309.156 309.156" id="owl-bottom"><path fill="#010002" d="M288.461 64.929L154.589 202.766 20.723 64.94 0 85.07l154.589 159.158L309.156 85.07z"/></symbol><symbol viewBox="0 0 306 306" id="owl-next"><path d="M94.35 0l-35.7 35.7L175.95 153 58.65 270.3l35.7 35.7 153-153z"/></symbol><symbol viewBox="0 0 306 306" id="owl-prev"><path d="M247.35 270.3L130.05 153l117.3-117.3L211.65 0l-153 153 153 153z"/></symbol><symbol viewBox="0 0 558.45 558.45" id="password-hidden"><path d="M280.5 138.975c71.4 0 127.5 56.1 127.5 127.5 0 15.3-2.55 33.15-10.2 45.9l73.95 73.949c38.25-33.149 68.85-73.949 86.7-119.85-43.351-112.2-153-191.25-280.5-191.25-35.7 0-68.85 7.65-102 17.85l56.1 56.1c15.3-7.649 33.15-10.199 48.45-10.199zm-255-68.85l58.65 58.65 10.2 10.2c-43.35 33.15-76.5 76.5-94.35 127.5 43.35 112.2 153 191.25 280.5 191.25 38.25 0 76.5-7.65 112.2-20.4l10.2 10.2 73.949 73.95 33.15-33.15L58.65 36.975 25.5 70.125zm140.25 140.25l38.25 38.25v17.85c0 43.35 33.15 76.5 76.5 76.5 5.1 0 10.2 0 17.85-2.55l38.25 38.25c-17.85 10.2-35.699 15.3-56.1 15.3-71.4 0-127.5-56.1-127.5-127.5 0-20.4 5.1-38.25 12.75-56.1zm109.65-20.4l79.05 79.05v-5.1c0-43.35-33.15-76.5-76.5-76.5 0 2.55 0 2.55-2.55 2.55z"/></symbol><symbol viewBox="-18 141.4 558.5 558.5" id="password-visible"><path d="M260 216.7C47.3 216.7-18 408-18 408s58 191.2 275.4 191.2 283-191.2 283-191.2S472.7 216.7 260 216.7zm3 319.6c-70.7 0-128-57.3-128-128s57.3-128 128-128 128 57.3 128 128-57.3 128-128 128z"/><circle cx="260.5" cy="406.9" r="76"/></symbol><symbol viewBox="0 0 42 42" id="plus"><path d="M42 19H23V0h-4v19H0v4h19v19h4V23h19z"/></symbol><symbol viewBox="0 0 510.127 510.127" id="ruble"><path d="M34.786 428.963h81.158v69.572c0 3.385 1.083 6.156 3.262 8.322 2.173 2.18 4.951 3.27 8.335 3.27h60.502c3.14 0 5.857-1.09 8.152-3.27 2.295-2.166 3.439-4.938 3.439-8.322v-69.572h182.964c3.377 0 6.156-1.076 8.334-3.256 2.18-2.178 3.262-4.951 3.262-8.336v-46.377c0-3.365-1.082-6.156-3.262-8.322-2.172-2.18-4.957-3.27-8.334-3.27h-182.97v-42.754h123.184c48.305 0 87.73-14.719 118.293-44.199 30.551-29.449 45.834-67.49 45.834-114.125 0-46.604-15.283-84.646-45.834-114.125C410.548 14.749 371.116 0 322.812 0H127.535c-3.385 0-6.157 1.089-8.335 3.256-2.173 2.179-3.262 4.969-3.262 8.335v227.896H34.786c-3.384 0-6.157 1.145-8.335 3.439-2.172 2.295-3.262 5.012-3.262 8.151v53.978c0 3.385 1.083 6.158 3.262 8.336 2.179 2.18 4.945 3.256 8.335 3.256h81.158v42.754H34.786c-3.384 0-6.157 1.09-8.335 3.27-2.172 2.166-3.262 4.951-3.262 8.322v46.377c0 3.385 1.083 6.158 3.262 8.336 2.178 2.181 4.95 3.257 8.335 3.257zM199.628 77.179h115.938c25.6 0 46.248 7.485 61.953 22.46 15.697 14.976 23.549 34.547 23.549 58.691 0 24.156-7.852 43.733-23.549 58.691-15.705 14.988-36.354 22.473-61.953 22.473H199.628V77.179z"/></symbol><symbol viewBox="0 0 56.966 56.966" id="search"><path d="M55.146 51.887L41.588 37.786A22.926 22.926 0 0 0 46.984 23c0-12.682-10.318-23-23-23s-23 10.318-23 23 10.318 23 23 23c4.761 0 9.298-1.436 13.177-4.162l13.661 14.208c.571.593 1.339.92 2.162.92.779 0 1.518-.297 2.079-.837a3.004 3.004 0 0 0 .083-4.242zM23.984 6c9.374 0 17 7.626 17 17s-7.626 17-17 17-17-7.626-17-17 7.626-17 17-17z"/></symbol><symbol viewBox="-169 262.9 277 286" id="swape"><path d="M44.5 310.8l-23-23c-2.3-2.3-6.1-2.3-8.5 0-2.3 2.3-2.3 6.1 0 8.5l12.2 12.2h-57.5c-3.3 0-6 2.7-6 6s2.7 6 6 6h58.6l-12.7 12.7c-2.3 2.3-2.3 6.1 0 8.5 1.2 1.2 2.7 1.8 4.2 1.8s3.1-.6 4.2-1.8l22.4-22.4c2.4-2.4 2.4-6.2.1-8.5zm-20.9 79c-6.4-4.2-13-5.9-18.1-6.4-6.6-8.9-16.2-13.7-27.2-13.7-2.4 0-4.9.2-7.4.7-6.5-7.5-15.5-11.5-25.6-11.5h-.6v-36.8c0-8.5-3.3-16-9.2-21.2-5.2-4.6-12-7.1-19.2-7.1-7.8 0-15.2 3-20.4 8.2-5.2 5.2-8 12.2-8 20.2l.1 53.2v33.7c-7.6 4.1-12.8 10.5-15.3 18.8-3.7 12.7-.8 29.1 9.1 50.2 6.5 13.8 14.3 25.9 18.1 31.4l1.7 22.1c.7 9.9 9.1 17.6 18.9 17.6l78.6-.1c9.5 0 17.6-7.1 18.8-16.5L21 509c18.6-29.1 25.4-59.3 20.2-89.7-2.8-16.5-11.1-25.2-17.6-29.5zM10.3 503.4c-.6.9-.9 1.9-1.1 2.9L6 530.7c-.5 3.5-3.4 5.9-6.9 5.9l-78.6-.1c-3.7 0-6.7-2.6-7-6.3l-1.8-23.3c-.1-1.2-.5-2.4-1.2-3.4-7.2-10.5-47.4-71.4-14.8-85 2.6-1.1 4.3-3.6 4.3-6.4 0-16.6-.1-71.7-.1-90.1 0-10.9 8.2-16.4 16.4-16.4s16.4 5.5 16.4 16.4l.1 42.3c0 3.9 3.2 7 7 7 .4 0 .7 0 1.1-.1 1.4-.2 2.9-.4 4.5-.4 5.9 0 12.8 2 18.1 9.3 1.3 1.8 3.4 2.8 5.6 2.8.6 0 1.2-.1 1.8-.2 2.1-.5 4.7-1 7.5-1 6.2 0 13.4 2.2 18.8 10.7 1 1.6 2.8 2.6 4.8 2.7 7.1.3 23.6 3.4 27.4 26.2 3.6 21.2 1.9 49.6-19.1 82.1z"/><path d="M-125.8 350.4c-1.8 0-3.6-.9-4.6-2.5-5.6-8.8-8.6-19.1-8.6-29.6 0-30.4 24.7-55 55-55 30.4 0 55 24.7 55 55 0 10.4-2.9 20.6-8.5 29.4-1.6 2.6-5 3.3-7.6 1.7-2.6-1.6-3.3-5-1.7-7.6 4.4-7 6.8-15.1 6.8-23.5 0-24.3-19.8-44-44-44-24.3 0-44 19.8-44 44 0 8.4 2.4 16.6 6.9 23.7 1.6 2.6.9 6-1.7 7.6-1 .6-2 .8-3 .8z"/></symbol><symbol viewBox="0 0 29.731 29.731" id="tel"><path d="M23.895 29.731c-1.237 0-2.731-.31-4.374-.93-3.602-1.358-7.521-4.042-11.035-7.556C4.971 17.73 2.287 13.81.928 10.208-.307 6.933-.31 4.245.921 3.015c.177-.177.357-.367.543-.563C2.587 1.271 3.856-.058 5.538.002 6.697.05 7.82.77 8.97 2.201c3.398 4.226 1.866 5.732.093 7.478l-.313.31c-.29.29-.838 1.633 4.26 6.731 1.664 1.664 3.083 2.882 4.217 3.619.714.464 1.991 1.166 2.515.642l.315-.318c1.744-1.769 3.25-3.296 7.473.099 1.431 1.15 2.15 2.272 2.198 3.433.069 1.681-1.27 2.953-2.452 4.075-.195.186-.385.366-.562.542-.611.612-1.588.919-2.819.919zM5.418 1C4.223 1 3.144 2.136 2.189 3.141c-.192.202-.378.398-.561.581-.917.916-.824 3.323.236 6.134 1.31 3.472 3.913 7.266 7.33 10.683 3.416 3.415 7.208 6.018 10.681 7.327 2.811 1.062 5.218 1.152 6.133.237.183-.183.379-.369.581-.56 1.027-.976 2.192-2.082 2.141-3.309-.035-.843-.649-1.75-1.825-2.695-3.519-2.83-4.503-1.831-6.135-.176l-.32.323c-.78.781-2.047.608-3.767-.51-1.193-.776-2.667-2.038-4.379-3.751-4.231-4.23-5.584-6.819-4.26-8.146l.319-.315c1.659-1.632 2.66-2.617-.171-6.138-.947-1.175-1.853-1.789-2.696-1.825L5.418 1z"/></symbol><symbol viewBox="0 0 304.36 304.36" id="vk"><path d="M261.945 175.576c10.096 9.857 20.752 19.131 29.807 29.982 4 4.822 7.787 9.798 10.684 15.394 4.105 7.955.387 16.709-6.746 17.184l-44.34-.02c-11.436.949-20.559-3.655-28.23-11.474-6.139-6.253-11.824-12.908-17.727-19.372-2.42-2.642-4.953-5.128-7.979-7.093-6.053-3.929-11.307-2.726-14.766 3.587-3.523 6.421-4.322 13.531-4.668 20.687-.475 10.441-3.631 13.186-14.119 13.664-22.414 1.057-43.686-2.334-63.447-13.641-17.422-9.968-30.932-24.04-42.691-39.971-22.895-31.021-40.428-65.108-56.186-100.15C-2.01 76.458.584 72.22 9.295 72.07c14.465-.281 28.928-.261 43.41-.02 5.879.086 9.771 3.458 12.041 9.012 7.826 19.243 17.402 37.551 29.422 54.521 3.201 4.518 6.465 9.036 11.113 12.216 5.142 3.521 9.057 2.354 11.476-3.374 1.535-3.632 2.207-7.544 2.553-11.434 1.146-13.383 1.297-26.743-.713-40.079-1.234-8.323-5.922-13.711-14.227-15.286-4.238-.803-3.607-2.38-1.555-4.799 3.564-4.172 6.916-6.769 13.598-6.769h50.111c7.889 1.557 9.641 5.101 10.721 13.039l.043 55.663c-.086 3.073 1.535 12.192 7.07 14.226 4.43 1.448 7.35-2.096 10.008-4.905 11.998-12.734 20.561-27.783 28.211-43.366 3.395-6.852 6.314-13.968 9.143-21.078 2.096-5.276 5.385-7.872 11.328-7.757l48.229.043c1.43 0 2.877.021 4.262.258 8.127 1.385 10.354 4.881 7.844 12.817-3.955 12.451-11.65 22.827-19.174 33.251-8.043 11.129-16.645 21.877-24.621 33.072-7.328 10.223-6.746 15.376 2.357 24.255zm0 0" fill-rule="evenodd" clip-rule="evenodd"/></symbol></svg>