<?xml version="1.0" encoding="utf-8"?><svg xmlns="http://www.w3.org/2000/svg" xmlns:xlink="http://www.w3.org/1999/xlink"><symbol viewBox="-253.5 165.3 512 512" id="advantages-item1"><circle fill="#DDF1F9" cx="-17.4" cy="396.2" r="187.6"/><g fill="#1B9EEA"><path d="M-168.7 370.7l69.4 69.8-19.4 83.1c-1.8 5.8-1.3 10.7 1.4 14.4 2.3 3.2 6 5 10 5 3.2 0 6.5-1.1 9.9-3.5l80.5-41.7 21 10.9c1.6-6.9 3.8-13.6 6.6-19.9l-27.6-14.3-78.7 40.7 19-81.2-69.1-69.6 87.1-11.1 41.7-82.9 41.7 82.9 87.1 11.1L42.8 434l2.8 11.9c8.9-6.5 18.8-11.6 29.6-15.1l59.8-60.2c8.3-6.5 7.2-13.3 6.4-16-.9-2.7-4.1-8.9-14.8-9.2l-88.2-11.2-42-83.5c-3.6-10-10.4-11.1-13.3-11.1-2.8 0-9.7 1.1-13.3 11.1l-42 83.5-88.2 11.2c-10.7.3-13.9 6.5-14.8 9.2-.7 2.7-1.8 9.6 6.5 16.1zm381.4 168.2c0-37.1-20.7-69.4-51-86.1-14-7.7-30-12.1-47.1-12.1-16.7 0-32.4 4.2-46.2 11.6-6.6 3.5-12.7 7.9-18.3 12.7-10 8.8-18.2 19.5-24 31.7-3 6.3-5.3 12.8-7 19.7-1.7 7.2-2.7 14.7-2.7 22.4 0 17.1 4.4 33.1 12.1 47.1 16.7 30.4 49 51 86.1 51 5.5 0 10.9-.6 16.2-1.5 41.2-6.9 73.6-39.4 80.5-80.5.9-5.1 1.4-10.5 1.4-16zm-98.1 77.4c-42.7 0-77.4-34.7-77.4-77.4 0-4.3.4-8.4 1.1-12.5 1.2-7.1 3.3-13.8 6.2-20.1 3-6.3 6.7-12.2 11.2-17.5 5.1-6 11-11.1 17.7-15.3 12-7.6 26.1-12 41.3-12 42.7 0 77.4 34.7 77.4 77.4 0 4.1-.4 8.1-1 12-5.2 33.1-31.3 59.2-64.4 64.4-4 .6-8 1-12.1 1z"/><path d="M118.8 518.6c-4.7 0-8.7.6-12 1.8-2 .7-4.7 2.2-8.2 4.5l4.1-25.1h47v-19.2H86.5l-4 31.9-3.7 29.4-.3 2.3 20.3 1c1.8-3.4 4.5-5.8 8-7.1 2-.7 4.4-1 7.1-1 5.8 0 10.1 2 12.8 6.1 2.7 4 4.1 9 4.1 14.9 0 6-1.5 10.9-4.4 14.9-2.9 3.9-7.2 5.9-12.8 5.9-4.9 0-8.5-1.3-11.1-4-2.5-2.7-4.2-6.5-5.1-11.4H74.9c.8 10.8 4.7 19.1 11.7 25 7 5.9 16 8.8 26.9 8.8 13.6 0 23.8-4.2 30.6-12.5 6.8-8.4 10.2-17.8 10.2-28.5 0-12.2-3.5-21.5-10.6-27.9-7.1-6.6-15.3-9.8-24.9-9.8z"/></g></symbol><symbol viewBox="-41 164.9 512 512" id="advantages-item2"><circle fill="#DDF1F9" cx="169.6" cy="420.3" r="187.6"/><path fill="#1B9EEA" d="M428.6 428.2h-.3V309.3c0-4.9-4-9-9-9h-47.2l-35.2-69.7c-1.1-2.1-2.9-3.7-5.2-4.5-2.3-.7-4.7-.6-6.8.5l-145.6 73.6H85.2c-19.6 0-35.5 15.3-36.2 34.9v244.6c0 20 16.3 36.3 36.3 36.3h334.1c4.9 0 9-4 9-9v-69h.3c12.4 0 22.5-10.1 22.5-22.5v-64.9c-.1-12.3-10.2-22.4-22.6-22.4zm-18.2-109.9V353h-11.6l-17.6-34.7h29.2zm-224.9-1L325 246.8l33.7 66.6 20.1 39.7h-17.4c-.1-.3-.2-.6-.4-.9l-23.1-45.6c-1.8-3.6-5.8-5.5-9.7-4.8l-2.7.5c-10.5 2-21.3-2.8-26.9-11.9l-1.8-2.9c-2.4-4-7.5-5.4-11.7-3.3l-136 68.8h-34.2l70.6-35.7zM341.4 353H188.8l97.3-49.2c9.2 11.7 23.9 18.1 38.8 16.7l16.5 32.5zM85.2 318.3h58.6L78 351.6c-5.1-2.2-8.9-6.5-10.5-11.8v-.2c-.1-.3-.2-.7-.3-1.1-.1-.3-.1-.6-.2-.9 0-.2-.1-.5-.1-.7-.1-.4-.1-.9-.1-1.3.6-9.7 8.6-17.3 18.4-17.3zm325.2 279.8H85.2c-10.1 0-18.4-8.2-18.4-18.4v-4.2h273.7c4.9 0 9-4 9-9s-4-9-9-9H66.9V366c3.6 2.1 7.5 3.6 11.8 4.3h.5c.5.1 1.1.2 1.6.2h.3c.2 0 .5 0 .7.1.4 0 .7.1 1.1.1h.3c.7 0 1.4.1 2 .1h325.2v19.8H134.3c-4.9 0-9 4-9 9s4 9 9 9h276.1v19.6H280.8c-4.9 0-9 4-9 9v91.9c0 4.9 4 9 9 9h129.6v60zm18.2-78H289.8v-74h138.9c2.5 0 4.6 2 4.6 4.6v64.9c-.2 2.5-2.2 4.5-4.7 4.5zm-94.3-70.8c-18.6 0-33.8 15.2-33.8 33.8 0 18.6 15.2 33.8 33.8 33.8 18.6 0 33.8-15.2 33.8-33.8 0-18.6-15.2-33.8-33.8-33.8zm0 49.7c-8.8 0-15.9-7.1-15.9-15.9s7.1-15.9 15.9-15.9 15.9 7.1 15.9 15.9S343 499 334.3 499zm42.3 65.8c-.1-.6-.3-1.1-.5-1.7-.2-.5-.5-1.1-.8-1.5-.3-.5-.7-.9-1.1-1.4-2.1-2.1-5.2-3-8.1-2.4-.6.1-1.1.3-1.7.5-.5.2-1.1.5-1.5.8-.5.3-.9.7-1.4 1.1-.4.4-.8.9-1.1 1.4-.3.5-.6 1-.8 1.5-.2.5-.4 1.1-.5 1.7-.1.6-.2 1.2-.2 1.7 0 .6.1 1.2.2 1.8.1.6.3 1.1.5 1.7.2.5.5 1.1.8 1.5.3.5.7.9 1.1 1.4.4.4.9.8 1.4 1.1.5.3 1 .6 1.5.8.5.2 1.1.4 1.7.5.6.1 1.2.2 1.8.2.6 0 1.2-.1 1.7-.2.6-.1 1.1-.3 1.7-.5.5-.2 1.1-.5 1.5-.8.5-.3 1-.7 1.4-1.1.4-.4.8-.9 1.1-1.4.3-.5.6-1 .8-1.5.2-.5.4-1.1.5-1.7.1-.6.2-1.2.2-1.8 0-.5-.1-1.1-.2-1.7zM115.8 397.9c-.1-.6-.3-1.1-.5-1.7-.2-.5-.5-1.1-.8-1.5-.3-.5-.7-.9-1.1-1.4s-.9-.8-1.4-1.1c-.5-.3-1-.6-1.5-.8-.5-.2-1.1-.4-1.7-.5-1.2-.2-2.3-.2-3.5 0-.6.1-1.1.3-1.7.5-.5.2-1.1.5-1.5.8-.5.3-.9.7-1.4 1.1-.4.4-.8.9-1.1 1.4-.3.5-.6 1-.8 1.5-.2.5-.4 1.1-.5 1.7-.1.6-.2 1.2-.2 1.7 0 .6.1 1.2.2 1.8.1.6.3 1.1.5 1.7.2.5.5 1.1.8 1.5.3.5.7.9 1.1 1.4.4.4.9.8 1.4 1.1.5.3 1 .6 1.5.8.5.2 1.1.4 1.7.5.6.1 1.2.2 1.7.2.6 0 1.2-.1 1.8-.2.6-.1 1.1-.3 1.7-.5.5-.2 1.1-.5 1.5-.8.5-.3.9-.7 1.4-1.1.4-.4.8-.9 1.1-1.4.3-.5.6-1 .8-1.5.2-.5.4-1.1.5-1.7.1-.6.2-1.2.2-1.8 0-.5-.1-1.1-.2-1.7z"/></symbol><symbol viewBox="-41 164.9 512 512" id="advantages-item3"><circle fill="#DDF1F9" cx="146.6" cy="423.3" r="187.6"/><g fill="#1B9EEA"><path d="M424.8 396.2v-10c0-15.3-12.4-27.7-27.7-27.7h-92.4v-46.2c0-5.1-4.1-9.2-9.2-9.2h-27.7v-27.7c0-5.1-4.1-9.2-9.2-9.2H132.9l-15.8-15.8c-3.6-3.6-9.5-3.6-13.1 0L51.3 303H36.7c-5.1 0-9.2 4.1-9.2 9.2V571c0 5.1 4.1 9.2 9.2 9.2h37.9c1.4 6.8 4.3 13.1 8.3 18.5H64.4c-5.1 0-9.2 4.1-9.2 9.2s4.1 9.2 9.2 9.2h55.5c22.3 0 40.9-15.9 45.2-37h168.2c1.4 6.8 4.3 13.1 8.3 18.5h-18.5c-5.1 0-9.2 4.1-9.2 9.2s4.1 9.2 9.2 9.2h55.5c22.3 0 40.9-15.9 45.2-37h37.9c5.1 0 9.2-4.1 9.2-9.2V450.6c.1-27.1-19.9-50-46.1-54.4zM249.2 284.6V303h-79.3l-18.5-18.5h97.8zm-138.6-14.7l11.9 11.9 21.2 21.2H77.5l33.1-33.1zm9.2 328.8c-15.3 0-27.7-12.4-27.7-27.7 0-15.3 12.4-27.7 27.7-27.7 15.3 0 27.7 12.4 27.7 27.7.1 15.3-12.4 27.7-27.7 27.7zm166.4-231v157.1h-62.8c-5.1 0-9.2 4.1-9.2 9.2s4.1 9.2 9.2 9.2h62.8v18.5H165.1c-4.3-21.1-23-37-45.3-37s-41 15.9-45.3 37H45.9V413.9h37c5.1 0 9.2-4.1 9.2-9.2s-4.1-9.2-9.2-9.2h-37V377h110.9c5.1 0 9.2-4.1 9.2-9.2s-4.1-9.2-9.2-9.2H45.9v-37h240.2l.1 46.1zm47.1 194.1h-28.7v-18.5h37c-4 5.4-6.9 11.7-8.3 18.5zm73 9.2c0 15.3-12.4 27.7-27.7 27.7-15.3 0-27.7-12.4-27.7-27.7 0-15.3 12.4-27.7 27.7-27.7h.1c15.2 0 27.6 12.4 27.6 27.7zm46.2-9.2h-28.6c-4.3-21.1-23-37-45.3-37h-74V377H397c5.1 0 9.2 4.1 9.2 9.2v9.2h-64.7c-5.1 0-9.2 4.1-9.2 9.2v83.2c0 5.1 4.1 9.2 9.2 9.2h110.9v64.8zm-83.1-147.9v64.7h-18.5v-64.7h18.5zm83.1 64.7h-64.7v-64.7h27.7c20.4 0 37 16.6 37 37v27.7z"/><path d="M187.2 543.3h5.8c5.1 0 9.2-4.1 9.2-9.2s-4.1-9.2-9.2-9.2h-5.8c-5.1 0-9.2 4.1-9.2 9.2s4.1 9.2 9.2 9.2zm0-166.3h5.8c5.1 0 9.2-4.1 9.2-9.2s-4.1-9.2-9.2-9.2h-5.8c-5.1 0-9.2 4.1-9.2 9.2-.1 5 4.1 9.2 9.2 9.2z"/></g></symbol><symbol viewBox="-41 164.9 512 512" id="advantages-item4"><circle fill="#DDF1F9" cx="166.6" cy="419.3" r="187.6"/><path fill="#1B9EEA" d="M448.9 392.3L392.2 363l56.7-29.3c3.1-1.6 5.1-4.8 5.1-8.3 0-3.5-1.9-6.7-5-8.4l-141.1-75.2c-2.7-1.5-6-1.5-8.7-.1l-70.9 36.6-70.9-36.6c-2.8-1.4-6-1.4-8.7.1L7.5 317.1c-3.1 1.7-5 4.9-5 8.4s2 6.7 5.1 8.3l56.7 29.3-56.7 29.2c-3.1 1.6-5.1 4.8-5.1 8.3 0 3.5 1.9 6.7 5 8.4l70.3 37.5v85.9c0 3.5 1.9 6.7 5 8.3l141.1 75.2c1.4.7 2.9 1.1 4.4 1.1 1.5 0 3-.4 4.4-1.1l141.1-75.2c3.1-1.6 5-4.8 5-8.3v-85.9L449 409c3.1-1.7 5-4.9 5-8.4s-2-6.7-5.1-8.3zM303.4 260.8l120.9 64.5-52.6 27.2L248.8 289l54.6-28.2zM32.2 325.3l120.9-64.5 54.7 28.2-123 63.5-52.6-27.2zm0 75.5l52.6-27.2L207.7 437 153 465.2 32.2 400.8zm186.7 191.1L96.6 526.7v-70.2l52 27.7c1.4.7 2.9 1.1 4.4 1.1 1.5 0 3-.3 4.3-1l61.5-31.8.1 139.4zm9.4-165.4l-122.9-63.4 122.9-63.4 122.9 63.4-122.9 63.4zm131.6 100.2l-122.3 65.2V452.5l61.5 31.8c1.4.7 2.8 1 4.3 1s3-.4 4.4-1.1l52-27.7.1 70.2zm-56.5-61.4l-54.7-28.2 122.9-63.4 52.6 27.2-120.8 64.4z"/></symbol><symbol viewBox="-161.4 165.3 512 512" id="advantages-item5"><circle fill="#DDF1F9" cx="64.6" cy="417.1" r="187.6"/><path fill="#1B9EEA" d="M76.9 324.3C26.1 344-7.9 393.9-7.9 448.4v36.3c0 5-4.4 9.1-9.4 9.1H-36c-15.3 0-27.9-12.6-27.9-27.9v-41c0-12.1 7.8-22.7 19.3-26.4 4.7-1.5 9.8 1.1 11.4 5.8 1.5 4.7-1.1 9.8-5.8 11.3-4 1.3-6.9 5.1-6.9 9.3v41c0 5.4 4.5 9.9 9.9 9.9h10.1v-27.5c0-31.1 9.2-60.9 26.9-86.4 17.3-24.8 41.1-43.7 69.2-54.6 4.6-1.8 9.8.5 11.6 5.1 1.9 4.8-.2 10.1-4.9 11.9zm146.3 5.1c0 18.9-15.4 34.2-34.2 34.2-18.9 0-34.2-15.4-34.2-34.2s15.4-34.2 34.2-34.2c18.8-.1 34.2 15.3 34.2 34.2zm-18 0c0-9-7.3-16.2-16.2-16.2-9 0-16.2 7.3-16.2 16.2s7.3 16.2 16.2 16.2c8.9 0 16.2-7.3 16.2-16.2zM313.1 425v41c0 15.3-12 27.9-27.4 27.9h-16.6c-5.5 17-14.1 33.8-25.8 48.5-19.2 24.2-45.5 42.1-74.9 50.9-1.3 14.8-13.8 26.6-28.9 26.6h-29.3c-16 0-29-13-29-29s13-29 29-29h29.3c10.5 0 19.8 5.5 24.9 13.9 55.5-17.2 93.6-68.6 93.6-127.3 0-18.1-3.6-35.6-10.6-52.1l-11.8-5.3c-5.1 3.9-10.6 7.1-16.5 9.5l-1.5 14.2c-.5 9.4-11.4 15.2-28.7 15.2-17.3 0-28.2-5.8-28.7-15.2l-1.5-14.2c-5.9-2.5-11.4-5.7-16.5-9.5l-13.1 5.9c-8.4 4.2-18.8-2.3-27.4-17.2-3.1-5.4-5.3-11-6.3-15.8-1.9-10.1 2.1-14.6 5.1-16.6l11.6-8.4c-.4-3.1-.6-6.3-.6-9.4 0-3.2.2-6.4.6-9.6l-11.6-8.4c-7.9-5.1-7.5-17.4 1.2-32.4 8.6-15 19.1-21.5 27.4-17.2l13.2 5.9c5.1-3.8 10.5-7 16.3-9.4l1.5-14.3c.4-9.4 11.3-15.2 28.7-15.2 17.3 0 28.2 5.8 28.7 15.2l1.5 14.4c5.8 2.5 11.3 5.6 16.3 9.4l13.2-5.9c3.2-1.6 9.1-2.8 16.9 3.9 3.7 3.2 7.5 8 10.6 13.4 8.6 15 9.1 27.3 1.2 32.4l-11.7 8.4c.4 3.2.6 6.4.6 9.5 0 3.1-.2 6.3-.6 9.4l11.7 8.4c7.9 5.1 7.4 17.4-1.2 32.4-3.1 5.4-6.9 10.1-10.6 13.4 7 17.6 10.5 36.3 10.5 55.5 0 9.3-.8 18.4-2.4 27.4h12.2c5.4 0 9.4-4.5 9.4-9.9v-41c0-4.2-2.6-8-6.7-9.3-4.7-1.5-7.2-6.6-5.7-11.3 1.5-4.7 6.5-7.3 11.2-5.8 11.7 3.3 19.2 14 19.2 26.1zM150.6 590.8c0-.7-.1-1.5-.2-2.2 0-.1 0-.1-.1-.2-1.1-4.9-5.5-8.4-10.8-8.4h-29.3c-6.1 0-11 4.9-11 11s5 11 11 11h29.3c6.1-.1 11.1-5.2 11.1-11.2zm100-282.3l14.1-10.2c-.4-2.1-1.6-5.8-4.2-10.3-2.6-4.5-5.2-7.4-6.8-8.8l-16 7.1c-3.2 1.4-7 .9-9.6-1.5-6-5.3-12.8-9.2-20.3-11.7-3.3-1.1-5.7-4.1-6.1-7.6l-1.8-17.4c-2-.7-5.8-1.5-11-1.5s-9 .8-11 1.5l-1.8 17.4c-.4 3.5-2.7 6.5-6.1 7.6-7.5 2.5-14.3 6.4-20.2 11.7-2.6 2.3-6.4 2.9-9.6 1.5l-16-7.1c-1.6 1.4-4.2 4.3-6.8 8.8-2.6 4.5-3.8 8.2-4.2 10.3l14.1 10.2c2.9 2.1 4.2 5.6 3.5 9.1-.8 3.9-1.2 7.8-1.2 11.8 0 3.9.4 7.9 1.2 11.7.7 3.4-.7 7-3.5 9l-14.1 10.2c.4 2.1 1.6 5.8 4.2 10.3 2.6 4.5 5.2 7.4 6.8 8.8l15.9-7.1c3.2-1.4 7-.9 9.6 1.5 6 5.3 12.8 9.3 20.4 11.8 3.3 1.1 5.7 4.1 6.1 7.6l1.8 17.2c2 .7 5.8 1.5 11 1.5s9-.8 11-1.5l1.8-17.2c.4-3.5 2.7-6.5 6.1-7.6 7.5-2.5 14.4-6.5 20.4-11.8 2.6-2.3 6.4-2.9 9.6-1.5l15.9 7.1c1.6-1.4 4.2-4.3 6.8-8.8 2.6-4.5 3.8-8.2 4.2-10.3l-14.1-10.2c-2.9-2.1-4.2-5.6-3.5-9.1.8-3.8 1.1-7.7 1.1-11.7 0-4-.4-7.9-1.2-11.8-.8-3.4.6-6.9 3.5-9z"/></symbol><symbol viewBox="-59 164.9 512 512" id="advantages-item6"><circle fill="#DDF1F9" cx="172.6" cy="420.3" r="187.6"/><path fill="#1B9EEA" d="M90 481.4c.9 9.3 6 17.6 13.1 23.2-4 4.7-6.4 10.8-6.4 17.4v24.9c0 10.7 6.2 20 15.3 24.3-.5 2.5-.8 5-.8 7.7 0 20.8 16.9 37.7 37.7 37.7 20.8 0 37.7-16.9 37.7-37.7 0-1.7-.1-3.4-.3-5h62c-.2 1.6-.3 3.3-.3 5 0 20.8 16.9 37.7 37.7 37.7 20.8 0 37.7-16.9 37.7-37.7 0-20.8-16.9-37.7-37.7-37.7-12.6 0-23.8 6.2-30.7 15.8h-75.5c-6.9-9.5-18-15.8-30.7-15.8-12.1 0-22.9 5.8-29.8 14.7-3.2-1.7-5.5-5-5.5-8.9v-25c0-5.5 4.5-10 10-10h198.1c16.4 0 33.3-12.1 38.6-27.6l50.3-147.6c2.8-8.4 1.9-16.8-2.7-23.1-4.5-6.3-12.2-10-21-10h-18l-54.4-54.6c-8.5-8.5-22.2-8.5-30.7-.2L192 273.6l-24.6-44.2c-2.3-4.1-7.4-5.5-11.5-3.3l-49.3 27.5c-2 1.1-3.4 2.9-4 5.1-.6 2.2-.3 4.5.8 6.4l21.5 38.6h-20.4c-5.4 0-10.6 1.4-15 4l-4-39.9c-.4-4.3-4.1-7.6-8.4-7.6H22.5c-4.7 0-8.5 3.8-8.5 8.5s3.8 8.5 8.5 8.5h46.9L90 481.4zm195.6 76.7c11.5 0 20.8 9.3 20.8 20.8s-9.3 20.8-20.8 20.8-20.8-9.3-20.8-20.8 9.4-20.8 20.8-20.8zm-136.8 0c11.5 0 20.8 9.3 20.8 20.8s-9.3 20.8-20.8 20.8-20.8-9.3-20.8-20.8 9.4-20.8 20.8-20.8zm153.6-297l42.5 42.7h-92.1l42.7-42.7c1.8-1.9 5-1.9 6.9 0zm-42.7 11.8l-30.9 30.9h-20.1l-8.3-14.9 59.3-16zm-137.5-8.6l34.5-19.2 32.7 58.7h-45.2l-22-39.5zm272.2 67.1L344.2 479c-2.9 8.6-13.5 16.1-22.6 16.1H123.8c-8.4 0-16.2-7-17-15.4l-3-29.5h181.9c4.7 0 8.5-3.8 8.5-8.5s-3.8-8.5-8.5-8.5H102.1l-10-98.8c-.4-3.8.7-7.3 3.1-9.9 2.3-2.6 5.6-4 9.3-4h282.4c3.3 0 5.9 1 7.3 2.9 1.2 2 1.3 4.8.2 8z"/></symbol><symbol viewBox="-97.5 165.4 512 512" id="advantages-item7"><circle fill="#DDF1F9" cx="129.1" cy="421.8" r="187.6"/><g fill="#1B9EEA"><path d="M388.3 463.5c-5.9-3.3-13.4-2.5-20.6 2l-132.4 83.4c-3.7 2.3-4.8 7.2-2.5 10.9s7.2 4.8 10.9 2.5l132.4-83.4c2.8-1.8 4.3-1.6 4.6-1.5.2.1 1.2 1.4 1.2 4.7 0 8.9-6.6 20.8-14.1 25.6l-128.3 80.8c-6.8 4.3-13.1 5.5-17.1 3.2-4.1-2.2-6.4-8.1-6.4-16.2 0-20.4 14.6-46.9 31.9-57.8l146.1-92c2.3-1.4 3.7-4 3.7-6.7s-1.4-5.2-3.7-6.7L113.2 235.5a7.95 7.95 0 0 0-8.4 0l-147.9 93.1c-21 13.2-37.5 43.1-37.5 67.9v4.2c0 24.8 16.5 54.7 37.5 67.9l220 138.5c3.7 2.3 8.6 1.2 10.9-2.5 2.3-3.7 1.2-8.6-2.5-10.9l-220-138.5C-51.1 445-64.9 420-64.9 400.7v-4.2c0-19.3 13.8-44.3 30.1-54.6L109 251.4l266 167.5-135.5 85.3c-22 13.9-39.3 45.1-39.3 71.1 0 14.2 5.2 24.8 14.5 30 3.8 2.1 7.9 3.1 12.3 3.1 6.5 0 13.6-2.3 20.8-6.8l128.3-80.8c12-7.6 21.5-24.7 21.5-38.9 0-8.4-3.4-15.1-9.3-18.4z"/><path d="M291.1 426.8c2.6 0 5.2-1.3 6.7-3.7 2.3-3.7 1.2-8.6-2.5-10.9L113.2 297.6c-3.7-2.3-8.6-1.2-10.9 2.5-2.3 3.7-1.2 8.6 2.5 10.9L287 425.7c1.2.7 2.7 1.1 4.1 1.1zm-31.5 20.9c2.6 0 5.2-1.3 6.7-3.7 2.3-3.7 1.2-8.6-2.5-10.9l-77-48.3c-3.7-2.3-8.6-1.2-10.9 2.5-2.3 3.7-1.2 8.6 2.5 10.9l77 48.3c1.3.9 2.8 1.2 4.2 1.2zm-104.9-42c-3.7-2.3-8.6-1.2-10.9 2.5-2.3 3.7-1.2 8.6 2.5 10.9l77.5 48.4c1.3.8 2.7 1.2 4.2 1.2 2.6 0 5.2-1.3 6.7-3.7 2.3-3.7 1.2-8.6-2.5-10.9l-77.5-48.4zM72 318.2L6.5 359.5c-2.3 1.4-3.7 4-3.7 6.7s1.4 5.2 3.7 6.7l78.1 48.6c1.3.8 2.7 1.2 4.2 1.2s3-.4 4.3-1.3l17.4-11.2c3.7-2.4 4.7-7.2 2.3-10.9-2.4-3.7-7.2-4.7-10.9-2.3l-13.2 8.5-63.2-39.3 50.7-31.9 62.3 39-7.3 4.7c-3.7 2.4-4.7 7.2-2.3 10.9 2.4 3.7 7.2 4.7 10.9 2.3l17.7-11.4c2.3-1.5 3.6-4 3.6-6.7s-1.4-5.2-3.7-6.6l-77-48.3a7.95 7.95 0 0 0-8.4 0zm131.3 167.7c2.3-3.7 1.2-8.6-2.5-10.9l-78.1-48.6c-3.7-2.3-8.6-1.2-10.9 2.5-2.3 3.7-1.2 8.6 2.5 10.9l78.1 48.6c1.3.8 2.7 1.2 4.2 1.2 2.6 0 5.2-1.3 6.7-3.7zM-24.4 385c-2.3 3.7-1.2 8.6 2.5 10.9L171 515.7c1.3.8 2.7 1.2 4.2 1.2 2.6 0 5.2-1.3 6.7-3.7 2.3-3.7 1.2-8.6-2.5-10.9L-13.5 382.4c-3.7-2.3-8.6-1.1-10.9 2.6z"/></g></symbol><symbol viewBox="0 0 976.271 976.271" id="basket"><path d="M275.573 630.437h589.502l111.196-446.076H175.336l-30.94-121.189H0v41.901h112.163L240.44 606.907l-23.529 47.056c-12.57 25.783-11.28 55.438 3.868 79.611 9.669 15.148 23.529 26.429 39.644 32.876-11.604 15.47-18.694 34.485-18.694 55.115 0 50.603 40.935 91.535 91.535 91.535s91.535-40.935 91.535-91.535c0-18.372-5.478-35.454-14.504-49.637h209.179c-9.346 14.18-14.504 31.265-14.504 49.637 0 50.603 40.935 91.535 91.535 91.535 50.6 0 91.541-40.932 91.541-91.535 0-18.372-5.478-35.454-14.504-49.637h67.041V730.03H290.077c-13.861 0-26.107-6.768-33.519-18.694-7.411-11.604-8.059-26.107-1.933-38.678l20.948-42.221zm420.614 141.494c27.398 0 49.637 22.239 49.637 49.637s-22.239 49.637-49.637 49.637-49.637-22.239-49.637-49.637c0-27.397 22.239-49.637 49.637-49.637zm-362.921 0c27.398 0 49.637 22.239 49.637 49.637s-22.239 49.637-49.637 49.637-49.637-22.239-49.637-49.637c0-27.397 22.242-49.637 49.637-49.637zM186.294 226.262h736.474L832.2 588.535H278.797l-92.503-362.273z"/></symbol><symbol viewBox="190 -99.9 1192 944.6" id="basket-add"><path d="M465.6 562.1h589.5l59.8-239.8-72.9-89.7L949 116H365.3L334.4-5.2H190v41.9h112.2l128.3 501.8-23.5 47.1c-12.6 25.8-11.3 55.4 3.9 79.6 9.7 15.1 23.5 26.4 39.6 32.9-11.6 15.5-18.7 34.5-18.7 55.1 0 50.6 40.9 91.5 91.5 91.5s91.5-40.9 91.5-91.5c0-18.4-5.5-35.5-14.5-49.6h209.2c-9.3 14.2-14.5 31.3-14.5 49.6 0 50.6 40.9 91.5 91.5 91.5s91.5-40.9 91.5-91.5c0-18.4-5.5-35.5-14.5-49.6h67v-41.9H480.1c-13.9 0-26.1-6.8-33.5-18.7-7.4-11.6-8.1-26.1-1.9-38.7l20.9-42.2zm420.6 141.5c27.4 0 49.6 22.2 49.6 49.6s-22.2 49.6-49.6 49.6-49.6-22.2-49.6-49.6c-.1-27.4 22.2-49.6 49.6-49.6zm-362.9 0c27.4 0 49.6 22.2 49.6 49.6s-22.2 49.6-49.6 49.6c-27.4 0-49.6-22.2-49.6-49.6-.1-27.4 22.2-49.6 49.6-49.6zm-147-545.7H952l58 65 62.6 95.6-50.4 201.7H468.8l-92.5-362.3z"/><path d="M1143.8-99.9c-131.3 0-237.7 106.4-237.7 237.7s106.4 237.7 237.7 237.7 237.7-106.4 237.7-237.7-106.4-237.7-237.7-237.7zm116 214.9l-102 102c-3.9 3.9-9 5.9-14.1 5.9s-10.2-2-14.1-5.9l-101.7-101.7c-7.8-7.8-7.8-20.5 0-28.3 7.8-7.8 20.5-7.8 28.3 0l87.5 87.5 87.9-87.9c7.8-7.8 20.5-7.8 28.3 0 7.7 7.9 7.7 20.6-.1 28.4z"/></symbol><symbol viewBox="0 0 383.6 383.6" id="basket-remove"><path d="M255.8 112h-12c-4.4 0-8 3.6-8 8s3.6 8 8 8h12c4.4 0 8-3.6 8-8s-3.6-8-8-8z"/><path d="M315.8 48h-48c0-26.4-21.6-48-48-48h-60c-26.4 0-48 21.6-48 48h-44c-22 0-40 18-40 40v16c0 12 9.2 22 20.8 23.6L69 347.2c2 20.8 19.2 36.4 40 36.4h165.6c20.8 0 38-15.6 40-36.4L335 127.6c11.6-1.6 20.8-11.6 20.8-23.6V88c0-22-18-40-40-40zm-156-32h60c17.6 0 32 14.4 32 32h-124c0-17.6 14.4-32 32-32zm180 88c0 4.4-3.6 8-8 8h-4c-4 0-7.6 3.2-8 7.2L298.6 346c-1.2 12.4-11.6 22-24 22H109c-12.4 0-22.8-9.6-24-22L64.6 128h143.2c4.4 0 8-3.6 8-8s-3.6-8-8-8h-156c-4.4 0-8-3.6-8-8V88c0-13.2 10.8-24 24-24h248c13.2 0 24 10.8 24 24v16z"/><path d="M127.8 160c-4.4 0-8 3.6-8 8v152c0 4.4 3.6 8 8 8s8-3.6 8-8V168c0-4.4-3.6-8-8-8zm64 0c-4.4 0-8 3.6-8 8v152c0 4.4 3.6 8 8 8s8-3.6 8-8V168c0-4.4-3.6-8-8-8zm64 0c-4.4 0-8 3.6-8 8v152c0 4.4 3.6 8 8 8s8-3.6 8-8V168c0-4.4-3.6-8-8-8z"/></symbol><symbol viewBox="0 0 111 113.9" id="delivery-1"><circle fill="#E1F2FA" cx="55.5" cy="55.5" r="55.5"/><path fill="#3699D5" d="M91.1 113.4h-19c-1.3 0-2.4-1.1-2.4-2.4V25.7H58.8c-1.3 0-2.4-1.1-2.4-2.4v-18c0-1.3 1.1-2.4 2.4-2.4h32.3c1.3 0 2.4 1.1 2.4 2.4V111c0 1.3-1 2.4-2.4 2.4zm-16.6-4.8h14.3V7.6H61.2v13.3h10.9c1.3 0 2.4 1.1 2.4 2.4v85.3z"/></symbol><symbol viewBox="0 0 111 113.2" id="delivery-2"><circle fill="#E1F2FA" cx="55.5" cy="57.7" r="55.5"/><path fill="#3699D5" d="M104.3 112.6H35.9c-1.3 0-2.4-1.1-2.4-2.4v-18c0-.7.3-1.3.8-1.7l36.5-33.9c6.9-6.4 12.1-12 12.1-20 0-7.7-5.3-13.1-12.8-13.1-4.1 0-7.4 1.3-9.9 4-3 3.2-4.4 8-4.1 13.3 0 .7-.2 1.3-.6 1.8-.5.5-1.1.8-1.7.8h-19c-1.3 0-2.4-1.1-2.4-2.4v-3.9c0-20.4 16.4-37 36.6-37 21.5 0 37.7 16 37.7 37.3 0 8.6-2.9 16.5-8.8 24.2l-.2.2-13.3 14-.1.1-15.5 13.9h35.6c1.3 0 2.4 1.1 2.4 2.4v18c-.1 1.3-1.2 2.4-2.5 2.4zm-66-4.7h63.6V94.6H62.5c-1 0-1.9-.6-2.2-1.5-.4-.9-.1-2 .6-2.6l20.1-18 13.2-13.9c5.2-6.8 7.7-13.8 7.7-21.2 0-18.5-14.2-32.5-33-32.5-17.5 0-31.8 14.5-31.8 32.2v1.5h14.2c.1-5.6 2-10.8 5.4-14.4 3.4-3.6 8-5.5 13.3-5.5 10.2 0 17.5 7.5 17.5 17.8 0 10.8-7.6 17.8-13.6 23.5L38.3 93.2v14.7z"/></symbol><symbol viewBox="0 0 111 115.5" id="delivery-3"><circle fill="#E1F2FA" cx="55.5" cy="57.9" r="55.5"/><path fill="#3699D5" d="M68.3 115.3c-20.1 0-37-16.2-37.6-36.2 0-.6.2-1.3.7-1.7.4-.5 1.1-.7 1.7-.7h19.2c1.3 0 2.3 1 2.4 2.3.4 7.3 6.9 13 14.8 13 7.8 0 14.2-6.4 14.2-14.2 0-5.4-2.3-9.9-6.4-12.6-3.8-2.5-8.1-3-13.4-3H62c-1.3 0-2.4-1.1-2.4-2.4v-18c0-1.3 1.1-2.4 2.4-2.4h1.3c9.1 0 12.8-2.5 12.8-8.6 0-4.3-3-7.1-7.6-7.1-1.8 0-3.3.6-4.5 1.8-1.2 1.2-1.8 2.9-1.7 4.8 0 .6-.2 1.3-.7 1.7-.4.5-1.1.7-1.7.7h-19c-1.3 0-2.4-1.1-2.4-2.4-.1-7.8 3-15.3 8.7-21 5.7-5.7 13.4-9 21.3-9C85.8.3 99.9 14 99.9 30.9c0 7.5-2.5 13.8-7.1 18.3 9 5 14.6 15.9 14.6 28.8 0 21.2-16.8 37.3-39.1 37.3zM35.6 81.4c1.8 16.3 15.9 29.2 32.7 29.2 19.6 0 34.4-14 34.4-32.7 0-9.5-4-22-15.1-25.9-.9-.3-1.5-1.1-1.6-1.9-.1-.9.3-1.8 1-2.3 6.7-4.5 8.1-11.7 8.1-16.9C95.1 16.6 83.1 5 68.4 5c-6.6 0-13.2 2.8-17.9 7.6-4.2 4.2-6.7 9.6-7.2 15.3h14.4c.4-2.2 1.4-4.2 2.9-5.8 2-2.1 4.8-3.2 7.9-3.2 7.3 0 12.4 4.9 12.4 11.8 0 12.4-11.3 13.3-16.5 13.4v13.3c5.2 0 10.6.6 15.5 3.8 5.5 3.7 8.5 9.5 8.5 16.6 0 10.5-8.5 19-19 19-9.7 0-17.7-6.6-19.3-15.3H35.6z"/></symbol><symbol viewBox="0 0 139.4 44.7" id="dorohovdesign"><path d="M52.2 19.5V8.1H57c3.6 0 6.1 2.1 6.1 5.7 0 3.5-2.6 5.7-6.1 5.7h-4.8zm7.9-5.7c0-1.8-1.1-3.1-3.1-3.1h-1.9v6.2H57c2 0 3.1-1.4 3.1-3.1m4.1 0c0-3.4 2.6-5.9 6.1-5.9 3.5 0 6.1 2.4 6.1 5.9 0 3.5-2.6 5.9-6.1 5.9-3.5 0-6.1-2.4-6.1-5.9m9.2 0c0-1.9-1.2-3.3-3.1-3.3-1.9 0-3.1 1.4-3.1 3.3 0 1.8 1.2 3.3 3.1 3.3 1.9 0 3.1-1.4 3.1-3.3m11 5.7l-1.9-3.8H81v3.8h-2.9V8.1h5.7c2.5 0 3.9 1.7 3.9 3.8 0 2-1.2 3-2.3 3.4l2.3 4.2h-3.3zm.3-7.6c0-.8-.6-1.2-1.4-1.2H81v2.4h2.3c.8 0 1.4-.4 1.4-1.2m4.2 1.9c0-3.4 2.6-5.9 6.1-5.9 3.5 0 6.1 2.4 6.1 5.9 0 3.5-2.6 5.9-6.1 5.9-3.5 0-6.1-2.4-6.1-5.9m9.1 0c0-1.9-1.2-3.3-3.1-3.3-1.9 0-3.1 1.4-3.1 3.3 0 1.8 1.2 3.3 3.1 3.3 1.9 0 3.1-1.4 3.1-3.3m12.4 5.7v-4.6h-4.7v4.6h-3V8.1h3v4.3h4.7V8.1h2.9v11.4zm4.6-5.7c0-3.4 2.6-5.9 6.1-5.9 3.5 0 6.1 2.4 6.1 5.9 0 3.5-2.6 5.9-6.1 5.9-3.5 0-6.1-2.4-6.1-5.9m9.2 0c0-1.9-1.2-3.3-3.1-3.3-1.9 0-3.1 1.4-3.1 3.3 0 1.8 1.2 3.3 3.1 3.3 1.9 0 3.1-1.4 3.1-3.3m7.3 5.7l-4.3-11.4h3.3l2.8 8.2 2.8-8.2h3.3l-4.2 11.4zm-79.3 17V25.1H57c3.6 0 6.1 2.1 6.1 5.7 0 3.5-2.6 5.7-6.1 5.7h-4.8zm7.9-5.7c0-1.8-1.1-3.1-3.1-3.1h-1.9v6.2H57c2 0 3.1-1.4 3.1-3.1m4.7 5.7V25.1h8.3v2.6h-5.3v1.8H73V32h-5.2v1.9h5.3v2.6zm9.6-1.6l1.5-2.2c.8.8 2.1 1.5 3.6 1.5 1 0 1.6-.4 1.6-.9 0-1.5-6.4-.3-6.4-4.7 0-1.9 1.6-3.6 4.5-3.6 1.8 0 3.4.5 4.6 1.6l-1.6 2.1c-1-.8-2.2-1.2-3.3-1.2-.8 0-1.2.3-1.2.8 0 1.4 6.4.4 6.4 4.6 0 2.3-1.7 3.8-4.7 3.8-2.2 0-3.8-.7-5-1.8m11.5-9.8h2.9v11.3h-2.9zm4.7 5.7c0-3.6 2.8-5.9 6.1-5.9 2.5 0 4.1 1.3 4.8 2.8L99.1 29c-.4-.7-1.3-1.4-2.4-1.4-1.9 0-3.2 1.4-3.2 3.3s1.3 3.3 3.2 3.3c.8 0 1.7-.3 2.1-.7v-.9h-2.6V30h5.5v4.5c-1.2 1.3-2.9 2.2-5 2.2-3.4 0-6.1-2.3-6.1-5.9m20.9 5.7l-4.8-6.6v6.6h-2.9V25.1h3l4.6 6.3v-6.3h2.9v11.4zM17.7 0H0v44.7h17.8c15 0 24.6-8.8 24.6-22.4C42.4 8.7 32.7 0 17.7 0m-.4 35.7h-8V9.5h8c9.3 0 15.7 3.7 15.7 12.7.1 7.5-5.8 13.5-15.7 13.5"/><path d="M19.1 17H17v10.6h2c4 0 6.4-2.4 6.4-5.4 0-3.7-2.6-5.2-6.3-5.2"/></symbol><symbol viewBox="0 0 124.099 124.1" id="email"><path d="M18.25 106.7c5.6 5.399 12.3 9.8 20.1 12.8 7.8 3 16.5 4.6 25.9 4.6 10.5 0 20.2-1.6 28.9-4.899 7.9-2.9 1.1-17.601-4.7-15.2-6.399 2.7-14.2 4.1-23.101 4.1-7 0-13.399-1.1-19-3.199-5.6-2.101-10.5-5.101-14.5-9-4-3.9-7.2-8.7-9.4-14.2-2.3-5.601-3.4-12-3.4-19 0-6.6 1.1-12.9 3.3-18.5 2.2-5.6 5.2-10.6 9.2-14.6 3.9-4.1 8.7-7.4 14.2-9.7 5.5-2.3 11.7-3.5 18.5-3.5 6.301 0 12.1.9 17.301 2.5 5.1 1.6 9.5 4.1 13.199 7.4 3.7 3.3 6.6 7.3 8.7 12.1 2.101 4.8 3.101 10.4 3.101 16.8 0 3.7-.4 7.2-1.201 10.5-.799 3.1-1.799 5.899-3.199 8.1-1.301 2.101-2.801 3.8-4.6 5-2.101 1.4-5.201 2.2-7.601 1.4-3-1-2.399-5.2-2.2-7.7.301-3.4 1.2-6.6 1.9-9.9 1.1-5.4 2.3-10.7 3.4-16 .6-2.9 1.299-5.9 1.899-8.8.8-3.7-2-7.3-5.899-7.3h-4.4c-2.7 0-5.1 1.8-5.801 4.4-.299 1.2-.6 2.2-.6 2.2-2.199-6.8-10.3-8.7-16.7-8.6-8.4.1-16.1 4.4-21.7 10.5-.5.6-1.1 1.2-1.6 1.8-2.9 3.5-5.1 7.6-6.6 11.9-1.6 4.6-2.4 9.3-2.4 14.1 0 4.101.6 8 1.7 11.5 1.2 3.601 2.9 6.7 5.1 9.3 2.2 2.601 5 4.7 8.3 6.2 3.3 1.5 7 2.3 11 2.3 3 0 5.8-.5 8.3-1.399 2.4-.9 4.6-2 6.5-3.3 1.5-1 2.9-2.2 4-3.301.699 1.301 1.5 2.4 2.6 3.5 2.801 3 7.1 4.5 12.801 4.5 4.5 0 8.899-.899 13-2.699 4.1-1.801 7.799-4.601 10.899-8.2 3-3.601 5.5-8 7.3-13.2 1.801-5.2 2.7-11.2 2.7-17.8 0-9-1.7-17-5-23.7s-7.8-12.4-13.399-16.9c-5.5-4.5-11.9-7.8-19-10.1C79.05 1.1 71.75 0 64.25 0c-8.7 0-17 1.6-24.7 4.7-7.7 3.2-14.5 7.6-20.2 13.1-5.8 5.5-10.4 12.2-13.7 19.7-3.3 7.5-5 15.9-5 24.7 0 8.899 1.5 17.3 4.6 24.8 3 7.6 7.4 14.2 13 19.7zm54.099-42c-.699 2.7-1.699 5.3-3.1 7.7-1.4 2.3-3.1 4.199-5.3 5.699-2 1.4-4.4 2.101-7.4 2.101-1.9 0-3.4-.4-4.5-1.101-1.2-.8-2.2-1.8-2.9-3.1-.8-1.4-1.3-2.9-1.6-4.4-.3-1.6-.5-3.1-.5-4.399 0-2.8.4-5.6 1.2-8.5.8-2.8 1.9-5.4 3.4-7.6 1.5-2.2 3.2-4 5.3-5.4 1.9-1.3 4-1.9 6.5-1.9 2 0 3.601.3 4.8 1 1.2.7 2.2 1.6 2.9 2.7.8 1.2 1.3 2.6 1.699 4.1.4 1.7.601 3.5.601 5.2-.1 2.5-.399 5.1-1.1 7.9z"/></symbol><symbol viewBox="0 0 97.713 97.713" id="location"><path d="M48.855 0C29.021 0 12.883 16.138 12.883 35.974c0 5.174 1.059 10.114 3.146 14.684 8.994 19.681 26.238 40.46 31.31 46.359a2.003 2.003 0 0 0 3.034 0c5.07-5.898 22.314-26.676 31.311-46.359 2.088-4.57 3.146-9.51 3.146-14.684C84.828 16.138 68.69 0 48.855 0zm0 54.659c-10.303 0-18.686-8.383-18.686-18.686 0-10.304 8.383-18.687 18.686-18.687s18.686 8.383 18.686 18.687c.001 10.303-8.382 18.686-18.686 18.686z"/></symbol><symbol viewBox="0 0 240.1 186.9" id="logotip"><path fill-rule="evenodd" clip-rule="evenodd" fill="#A1DAF8" d="M121.4 0c18 0 34.4 7.3 46.2 19.1 2.6 2.6 4.9 5.4 7 8.3-2 .3-4 .8-5.9 1.4-1.6-2-3.2-3.9-5-5.7-6.2-6.1-13.5-10.8-21.7-13.9 3 2.9 5.7 6.4 8.1 10.4 2.1 3.6 4 7.6 5.6 12h6.3c-4.8 3.2-7.5 7.6-8.4 12.9-.5-2.5-1.2-5-1.9-7.4h-28.2V41c-1.7-.2-3.4-.3-5.1-.4 0-.8.3-1.5.8-2.3 1.5-2.1 2.4-4 1.1-6.5-.6-1.1-1.4-1.9-2.4-2.3V5.9c-7.8 1.4-14.9 7.5-20.3 16.6-1.7 2.8-3.2 5.9-4.5 9.2h9.9c-2.4 1.3-4.5 3.1-6.6 5.6h-5.3c-.6 2-1.2 4.2-1.7 6.3-2 .5-4.1 1.2-6.1 1.9.5-2.8 1.2-5.6 2-8.2H68.6c-3.3 6.2-5.6 13.1-6.5 20.4-2.2 2-4.2 4.2-6.1 6.6.3-17.6 7.5-33.6 19.1-45.2C87 7.3 103.3 0 121.4 0zm64.5 55.3c.2 1.2.3 2.3.4 3.5-1.1 0-2.2 0-3.3-.1.7-.7 1.3-1.4 1.9-2.2.4-.4.7-.8 1-1.2zm-2.8 31.4c-3.3 9.4-8.6 17.8-15.5 24.7-11.8 11.8-28.1 19.1-46.2 19.1s-34.4-7.3-46.2-19.1C67.7 103.9 62 94.5 58.8 84l1.9 1c2.4 2.5 4.9 5.1 7.5 7.3.3.5.5 1 .8 1.5h1c2.8 2.3 5.9 4.3 9.3 5.6h-6.8c2 2.8 4.2 5.5 6.7 7.9 6.1 6.1 13.4 10.8 21.6 13.8-3-2.9-5.7-6.4-8.1-10.4-1.6-2.7-3.1-5.6-4.4-8.8 2.1.3 4.2.5 6.3.5.9 1.9 1.9 3.8 2.9 5.5 5.4 9.1 12.5 15.2 20.3 16.6V116c1.6-1.2 2.5-3.1 2.6-5.2.1-1.5-.3-3.1-.9-4.5l-.9-1.5c-.3-.4-.6-.8-.8-1.4v-3.9h-.8c0-.4-.1-.8-.1-1.2 2.7-.8 5.4-1.6 8-2.5l1.2.5c2.6 1.1 5.2 2.1 7.7 3.2h-10.4v25.3c8.4-.9 16-7.1 21.8-16.8 1-1.7 1.9-3.5 2.8-5.3 1.5-.4 2.8-1.2 3.8-2.6.9-1.3 1.2-2.7 1.2-4.1 0-1.5-.4-2.6-1.1-3.6 1.3-4.2 2.2-8.8 2.9-13.5 1-.9 1.9-1.9 2.9-3 .5-.5 1-1.1 1.5-1.7.2-.3.6-.7 1-1 .3.5.5.9.7 1.4-.6 6.9-1.8 13.4-3.6 19.4h16.5c1.4-2.6 2.6-5.3 3.7-8.1 1.6.4 3.4.7 5.6.8zm-12.8 12.9h-14.8c-1.5 4.1-3.3 7.9-5.4 11.3-2.4 4-5.1 7.5-8.1 10.4 8.2-3 15.6-7.8 21.6-13.8 2.4-2.4 4.7-5.1 6.7-7.9zM72 31.7h15.1c1.6-4.4 3.5-8.4 5.6-12 2.4-4 5.1-7.5 8.1-10.4-8.2 3-15.6 7.8-21.6 13.8-2.7 2.6-5.1 5.5-7.2 8.6zm51.4 0h26.3c-1.3-3.3-2.8-6.4-4.5-9.2-5.7-9.7-13.4-15.9-21.8-16.8v26z"/><path fill-rule="evenodd" clip-rule="evenodd" fill="#005883" d="M60.7 85.1c-2.7-1.5-5.4-2.9-8.1-4.4-5.2-2.6-3.3-3.9-1.7-7.7 1.3-3 3-5.9 5-8.6 8.7-11.6 22.4-18.3 36.2-21.5l1.5-2.1c.7-.9 1.3-1.8 2-2.7 4.7-6.1 10-8.8 17.7-8.9h1c2.4-.1 4.5.5 5.7 2.8 1.3 2.5.4 4.4-1.1 6.5-.5.8-.8 1.5-.8 2.3 11.9.7 24.5 3.6 34.9 9.7v-1.1c0-7.7 2.9-14.2 9.7-18.3l.2-.1.2-.1c7.1-3.3 14.5-4.5 22.3-3.6l4.6.5-.1 4.6c0 2.1-.1 4.1-.1 6.2-.2 7.5-.1 11.7-4.9 18-.6.8-1.3 1.5-1.9 2.2 2.6 0 5.3.1 7.9.3 10.2.7 13.2 1.8 21.5 7.9l4.6 3.4-3.9 4.1c-2.2 2.4-4.7 4.6-7.4 6.4-5.3 3.5-15.6 6.2-21.9 5.9-8.8-.4-13.1-3.3-19.8-8.6-2.3-1.8-2.8-3-3.9-5-.3.3-.7.8-1 1-.5.5-1 1.1-1.5 1.7-1.1 1.2-2.2 2.4-3.4 3.4-2.9 2.5-5.9 4.7-9.1 6.8.3.2.6.5.9.7 1.1.9 2.2 1.9 3.3 2.8 2.2 1.8 3.6 3.4 3.7 6.4 0 1.4-.3 2.8-1.2 4.1-2 2.9-5.2 3.2-8.3 2.8-3-.4-4.5-1.1-7.1-2.2l-10.2-4.2-1.2-.5c-2.6.9-5.3 1.8-8 2.5.1 2.2.4 5.1 1.6 6.5l.9 1.5c.6 1.4 1 2.9.9 4.5-.1 2.3-1.2 4.4-3.2 5.6-.6.3-1.2.6-1.8.7-3.3.8-7-1.1-9.5-3.1-4-3-5.9-6.9-5.7-11.8-6.8.8-13.6.3-20-2.4-4.1-1.4-7.7-3.9-11-6.7-3.1-2.6-5.8-5.4-8.5-8.2z"/><path fill-rule="evenodd" clip-rule="evenodd" fill="#A1DAF8" d="M63.8 81.1c-2.2-1.2-4.4-2.4-6.5-3.6-2.8-1.6-2.5-1.2-.8-4.4 14.8-28.9 64.3-34.4 92.5-19.2 2.1 1.1 3.2 2.3 4.9 3.3 1.8 1.1 3.8 1 6.2-.8 2.2-2.6 4.8-3.4 7.8-1.4s5.6 5.7 5.5 9.3c0 .9-.2 1.7-.6 2.5-1.6 3.1-3.5 2.9-5.9 2.5-1.3-.2-6.5-1.3-7.4-1.2-.7.1-1.3.3-1.9.7-1.4.9-4.7 5-6.6 6.7-11.6 10-26 16.1-42.3 19.9-10 2.9-19 3.1-26.8-.2-3.4-1.2-6.5-3.2-9.6-5.8 5.4 1.7 11.5 1.5 16-1.8 4.7 2.8 9.1 3.3 13.5 2.8-6.4-1.2-10.8-4-9-11.7-1.3 1.5-2.7 3-4 4.5-8.6 2.4-16.2 2.4-22.9.1-.7-.8-1.4-1.5-2.1-2.2z"/><path fill-rule="evenodd" clip-rule="evenodd" fill="#009FE3" d="M135.2 88.5c-2.4 1.1-4.7 2.2-7.1 3.2l12.9 5.4c6.1 1.9 7.7.7 6.7-2.3-4-3-8.4-8.7-12.5-6.3zm-21.7-54.2c-9.3.1-12.4 4.9-15.7 9.5 4.9-.9 10.4-1.1 15.7-1.2-.8-2.8-.2-4.5 1.6-7 1.1-1.7 1.1-1.4-1.6-1.3zm-8.3 67.7c0-1.1-.1-2.3-.1-3.4 2.3-.5 4.6-1 6.8-1.5.1 4.5.7 8.5 3 11.1.4.9.5 1.7.5 2.3-.2 3.7-5.1.6-6.5-.5-2.4-1.7-4-4.1-3.7-8zm53-52.6c0 1.4.1 2.7.1 4.1 6.8-5.6 14.9-.5 16.1 5.2 2.5-1.1 4.8-2.8 6.6-5.2 4.1-5.4 3.7-8.8 3.9-15 0-2.1.1-4.1.1-6.2-7.4-.8-13.8.5-19.6 3.2-5.3 3.1-7.2 8-7.2 13.9zm9.7 23.5c5.5-.1 8.9-2.4 8.5-9 5.2-.1 10-.1 14.2.2 9.5.7 11.2 1.3 18.8 6.9-2.5 2.6-4.6 4.5-6.5 5.7-4.4 2.9-13.8 5.3-18.9 5.1-8-.3-11.5-3.2-16.8-7.5-2.5-2.1-2-1.4.7-1.4z"/><path fill-rule="evenodd" clip-rule="evenodd" fill="#005883" d="M101.6 77.8c9.3 0 16.9-5.7 16.9-12.7s-7.6-12.7-16.9-12.7c-9.3 0-16.9 5.7-16.9 12.7s7.5 12.7 16.9 12.7z"/><path fill-rule="evenodd" clip-rule="evenodd" fill="#FFF" d="M101.6 54.9c7.9 0 14.4 4.5 14.4 10.1s-6.4 10.1-14.4 10.1c-7.9 0-14.4-4.5-14.4-10.1 0-5.5 6.4-10.1 14.4-10.1zm2.1 3.4c-2.4 0-4.4 1.4-4.4 3.1 0 1.7 2 3.1 4.4 3.1 2.4 0 4.4-1.4 4.4-3.1 0-1.7-2-3.1-4.4-3.1zM88.3 85.4c-4.9 4.1-12.3 3.7-19.7.9 6.7.3 14.1.9 19.7-.9z"/><path fill-rule="evenodd" clip-rule="evenodd" fill="#009FE3" d="M25.1 167.1v-14.4c0-1.6-.7-3.1-2.1-4.5-1.4-1.4-2.9-2.1-4.5-2.1h-10c-1.6 0-3.1.7-4.5 2.1-1.4 1.4-2.1 2.9-2.1 4.5v14.4c0 1.6.7 3.1 2.1 4.5 1.4 1.4 2.9 2.1 4.5 2.1h9.9c1.7 0 3.3-.7 4.6-2.1 1.4-1.4 2.1-2.9 2.1-4.5zm-5-13.3V166c0 .8-.4 1.6-1 2.3-.7.7-1.5 1.1-2.3 1.1h-6.6c-.8 0-1.6-.4-2.3-1.1-.7-.7-1.1-1.5-1.1-2.3v-12.2c0-.8.4-1.6 1.1-2.3.7-.7 1.5-1.1 2.3-1.1h6.6c.8 0 1.6.3 2.3 1 .7.8 1 1.5 1 2.4zm16.8 18.8c1.3.7 2.7 1.1 4.1 1.1h3.9c1.6 0 3.1-.7 4.5-2.1 1.4-1.4 2.1-2.9 2.1-4.5v-14.4c0-1.6-.7-3.1-2.1-4.5-1.4-1.4-2.9-2.1-4.5-2.1h-3.3c-1.5 0-2.9.4-4.1 1.1l-3.9 2.2-.4-2.5c-.1-.6-.4-.9-.9-.9H32l-1.5.2c-.4 0-.7.1-.9.3-.1.2-.2.5-.2 1V186c0 .6.3.9.8.9h.3l2.8-.4c.4-.1.7-.2.9-.4.1-.2.2-.5.2-.9v-14l2.5 1.4zm6.3-3.3h-1.7c-1.4 0-2.9-.3-4.3-.8l-2.9-1.1v-14.6l3.5-1.4c1.4-.6 2.8-.8 4.3-.8h1.1c.8 0 1.6.4 2.3 1.1.7.7 1 1.5 1 2.3v12.2c0 .8-.4 1.6-1 2.3-.7.4-1.5.8-2.3.8zm19.2 4.4h5.3l8.3-.7c.5 0 .8-.1.9-.3.1-.1.2-.5.4-.9l.3-1.8c0-.5-.3-.7-1-.7H64.1c-.8 0-1.6-.4-2.3-1.1-.7-.7-1.1-1.5-1.1-2.3v-2.8H72c1.6 0 3.1-.7 4.5-2.1 1.4-1.4 2.1-2.9 2.1-4.5v-3.9c0-1.6-.7-3.1-2.1-4.5-1.4-1.4-2.9-2.1-4.5-2.1h-9.7c-1.6 0-3.1.7-4.5 2.1-1.4 1.4-2.1 2.9-2.1 4.5V167c0 1.7.7 3.3 2.1 4.6 1.5 1.4 3 2.1 4.6 2.1zm-1.6-19.9c.1-.8.4-1.6 1.1-2.3.6-.7 1.4-1.1 2.2-1.1h6.4c.8 0 1.6.4 2.3 1.1.7.7 1.1 1.5 1.1 2.3v1.8c0 .8-.4 1.6-1.1 2.3-.7.7-1.5 1.1-2.3 1.1h-9.7v-5.2zm19.5 15.5c1.1 0 1.9-.2 2.3-.5.4-.3.6-1.1.8-2.3l3.2-19.3c.1-.5.2-.8.4-.9.2-.1.5-.2.9-.2h15.6c.5 0 .8.1.9.2.1.1.2.4.2.9v25.4c0 .5-.1.8-.2.9-.1.1-.4.2-.9.2h-2.8c-.5 0-.8-.1-.9-.2s-.2-.4-.2-.9v-22.1h-8.7l-2.7 17c-.4 2.6-1 4.3-1.9 5.1-.8.8-2.6 1.1-5.2 1.1h-1.6c-.6 0-.9-.2-.9-.7l.4-2.6c.1-.5.2-.8.4-.9 0-.2.3-.2.9-.2zm57.8-2.2c0 1.7-.7 3.2-2 4.6-1.3 1.4-2.9 2.1-4.6 2.1h-9.9c-1.6 0-3.1-.7-4.5-2.1-1.4-1.4-2.1-2.9-2.1-4.5v-14.4c0-1.6.7-3.1 2.1-4.5 1.4-1.4 2.9-2.1 4.5-2.1h9.9c1.6 0 3.1.7 4.5 2.1 1.4 1.4 2.1 2.9 2.1 4.5v14.3zm-5-13.3V166c0 .8-.4 1.6-1.1 2.3-.7.7-1.5 1.1-2.3 1.1h-6.6c-.8 0-1.6-.4-2.3-1.1-.7-.7-1.1-1.5-1.1-2.3v-12.2c0-.8.3-1.6 1.1-2.3.7-.7 1.5-1.1 2.3-1.1h6.6c.8 0 1.6.3 2.3 1 .8.8 1.1 1.5 1.1 2.4zm14.3-6.9c0-.4 0-.7-.1-.8-.1-.1-.2-.2-.5-.2-.2 0-.4 0-.6.1l-2.8.4c-.4.1-.7.2-.9.4-.1.2-.2.5-.2.9v24.9c0 .5.1.8.2.9s.4.2.9.2h2.8c.5 0 .8-.1.9-.2.1-.1.2-.4.2-.9v-11.1h4l7 11.2c.4.7 1 1 1.7 1h3.2c.6 0 .8-.1.8-.3 0-.1-.1-.4-.4-.8l-8.2-13.2L163 147c.1-.3.2-.5.2-.6 0-.3-.3-.4-.8-.4h-3.2c-.7 0-1.3.3-1.7 1l-6.2 10.1h-4v-10.2h.1zm25.3 26.8h5.3l8.3-.7c.5 0 .8-.1.9-.3s.2-.5.4-.9l.3-1.8c0-.5-.3-.7-1-.7h-12.4c-.8 0-1.6-.4-2.3-1.1-.7-.7-1.1-1.5-1.1-2.3v-2.8h11.3c1.6 0 3.1-.7 4.5-2.1 1.4-1.4 2.1-2.9 2.1-4.5v-3.9c0-1.6-.7-3.1-2.1-4.5-1.4-1.4-2.9-2.1-4.5-2.1h-9.7c-1.6 0-3.1.7-4.5 2.1-1.4 1.4-2.1 2.9-2.1 4.5V167c0 1.7.7 3.3 2.1 4.6 1.4 1.4 2.9 2.1 4.5 2.1zm-1.6-19.9c.1-.8.4-1.6 1.1-2.3.6-.7 1.4-1.1 2.2-1.1h6.4c.8 0 1.6.4 2.3 1.1.7.7 1 1.5 1 2.3v1.8c0 .8-.3 1.6-1 2.3-.7.7-1.5 1.1-2.3 1.1h-9.7v-5.2zm23.9-3.3h10.2c.8.1 1.5.5 2.1 1.2.6.7 1 1.4 1 2.2v3.9h-9.9c-1.6 0-3.1.7-4.5 2.1-1.4 1.4-2.1 2.9-2.1 4.5v2.8c0 1.6.7 3.1 2.1 4.5 1.4 1.4 2.9 2.1 4.5 2.1h2.8c1.5 0 2.9-.4 4.1-1.1l3.9-2.2.4 2.5c.1.6.4.9.9.9h.3l1.5-.2c.4 0 .7-.1.9-.3.1-.2.2-.5.2-1v-19.6c0-1.6-.7-3.1-2.1-4.5-1.4-1.4-2.9-2.1-4.5-2.1H204l-8.3.7c-.5 0-.8.1-.9.3-.1.1-.2.5-.4.9l-.2 1.4v.3c-.1.4.2.7.8.7zm9.8 17.9c-1.4.6-2.8.8-4.3.8h-.5c-.8 0-1.6-.4-2.3-1.1-.7-.7-1.1-1.5-1.1-2.3v-.7c0-.8.4-1.6 1.1-2.3.7-.7 1.5-1 2.3-1h8.3v5.1l-3.5 1.5zm35.3-21.5c0-.7-.2-1-.6-1-.2 0-.4 0-.6.1l-2.8.4c-.4.1-.7.2-.9.4-.1.2-.2.5-.2.9v10h-12v-10.8c0-.4 0-.7-.1-.8-.1-.1-.2-.2-.5-.2-.2 0-.4 0-.6.1l-2.8.4c-.4.1-.7.2-.9.4-.1.2-.2.5-.2.9v24.9c0 .5.1.8.2.9s.4.2.9.2h2.8c.5 0 .8-.1.9-.2.1-.1.2-.4.2-.9v-10.5h12.2v10.5c0 .5.1.8.2.9.1.1.4.2.9.2h2.8c.5 0 .8-.1.9-.2.1-.1.2-.4.2-.9v-25.7z"/></symbol><symbol viewBox="0 0 41.756 41.756" id="modal-close"><path d="M27.948 20.878L40.291 8.536a5 5 0 1 0-7.07-7.071L20.878 13.809 8.535 1.465a5 5 0 0 0-7.07 7.071l12.342 12.342L1.465 33.22a5 5 0 1 0 7.07 7.071l12.343-12.342 12.343 12.343c.976.977 2.256 1.464 3.535 1.464s2.56-.487 3.535-1.464a5 5 0 0 0 0-7.071L27.948 20.878z"/></symbol><symbol viewBox="0 0 309.156 309.156" id="owl-bottom"><path fill="#010002" d="M288.461 64.929L154.589 202.766 20.723 64.94 0 85.07l154.589 159.158L309.156 85.07z"/></symbol><symbol viewBox="0 0 558.45 558.45" id="password-hidden"><path d="M280.5 138.975c71.4 0 127.5 56.1 127.5 127.5 0 15.3-2.55 33.15-10.2 45.9l73.95 73.949c38.25-33.149 68.85-73.949 86.7-119.85-43.351-112.2-153-191.25-280.5-191.25-35.7 0-68.85 7.65-102 17.85l56.1 56.1c15.3-7.649 33.15-10.199 48.45-10.199zm-255-68.85l58.65 58.65 10.2 10.2c-43.35 33.15-76.5 76.5-94.35 127.5 43.35 112.2 153 191.25 280.5 191.25 38.25 0 76.5-7.65 112.2-20.4l10.2 10.2 73.949 73.95 33.15-33.15L58.65 36.975 25.5 70.125zm140.25 140.25l38.25 38.25v17.85c0 43.35 33.15 76.5 76.5 76.5 5.1 0 10.2 0 17.85-2.55l38.25 38.25c-17.85 10.2-35.699 15.3-56.1 15.3-71.4 0-127.5-56.1-127.5-127.5 0-20.4 5.1-38.25 12.75-56.1zm109.65-20.4l79.05 79.05v-5.1c0-43.35-33.15-76.5-76.5-76.5 0 2.55 0 2.55-2.55 2.55z"/></symbol><symbol viewBox="-18 141.4 558.5 558.5" id="password-visible"><path d="M260 216.7C47.3 216.7-18 408-18 408s58 191.2 275.4 191.2 283-191.2 283-191.2S472.7 216.7 260 216.7zm3 319.6c-70.7 0-128-57.3-128-128s57.3-128 128-128 128 57.3 128 128-57.3 128-128 128z"/><circle cx="260.5" cy="406.9" r="76"/></symbol><symbol viewBox="0 0 31.059 31.059" id="qty-add"><path d="M15.529 31.059C6.966 31.059 0 24.092 0 15.529 0 6.966 6.966 0 15.529 0c8.563 0 15.529 6.966 15.529 15.529.001 8.563-6.966 15.53-15.529 15.53zm0-29.285c-7.585 0-13.755 6.171-13.755 13.755s6.17 13.754 13.755 13.754c7.584 0 13.754-6.17 13.754-13.754S23.113 1.774 15.529 1.774z"/><path d="M21.652 16.416H9.406a.887.887 0 1 1 0-1.775h12.246a.888.888 0 0 1 0 1.775z"/><path d="M15.529 22.539a.888.888 0 0 1-.888-.887V9.406a.889.889 0 0 1 1.775 0v12.246a.886.886 0 0 1-.887.887z"/></symbol><symbol viewBox="0 0 31.059 31.059" id="qty-remove"><path d="M15.529 31.059C6.966 31.059 0 24.092 0 15.529 0 6.966 6.966 0 15.529 0s15.529 6.966 15.529 15.529c.001 8.563-6.966 15.53-15.529 15.53zm0-29.285c-7.584 0-13.754 6.171-13.754 13.755s6.17 13.754 13.754 13.754 13.754-6.17 13.754-13.754S23.114 1.774 15.529 1.774z"/><path d="M21.652 16.416H9.406a.888.888 0 0 1 0-1.775h12.246a.888.888 0 0 1 0 1.775z"/></symbol><symbol viewBox="0 0 510.127 510.127" id="ruble"><path d="M34.786 428.963h81.158v69.572c0 3.385 1.083 6.156 3.262 8.322 2.173 2.18 4.951 3.27 8.335 3.27h60.502c3.14 0 5.857-1.09 8.152-3.27 2.295-2.166 3.439-4.938 3.439-8.322v-69.572h182.964c3.377 0 6.156-1.076 8.334-3.256 2.18-2.178 3.262-4.951 3.262-8.336v-46.377c0-3.365-1.082-6.156-3.262-8.322-2.172-2.18-4.957-3.27-8.334-3.27h-182.97v-42.754h123.184c48.305 0 87.73-14.719 118.293-44.199 30.551-29.449 45.834-67.49 45.834-114.125 0-46.604-15.283-84.646-45.834-114.125C410.548 14.749 371.116 0 322.812 0H127.535c-3.385 0-6.157 1.089-8.335 3.256-2.173 2.179-3.262 4.969-3.262 8.335v227.896H34.786c-3.384 0-6.157 1.145-8.335 3.439-2.172 2.295-3.262 5.012-3.262 8.151v53.978c0 3.385 1.083 6.158 3.262 8.336 2.179 2.18 4.945 3.256 8.335 3.256h81.158v42.754H34.786c-3.384 0-6.157 1.09-8.335 3.27-2.172 2.166-3.262 4.951-3.262 8.322v46.377c0 3.385 1.083 6.158 3.262 8.336 2.178 2.181 4.95 3.257 8.335 3.257zM199.628 77.179h115.938c25.6 0 46.248 7.485 61.953 22.46 15.697 14.976 23.549 34.547 23.549 58.691 0 24.156-7.852 43.733-23.549 58.691-15.705 14.988-36.354 22.473-61.953 22.473H199.628V77.179z"/></symbol><symbol viewBox="0 0 56.966 56.966" id="search"><path d="M55.146 51.887L41.588 37.786A22.926 22.926 0 0 0 46.984 23c0-12.682-10.318-23-23-23s-23 10.318-23 23 10.318 23 23 23c4.761 0 9.298-1.436 13.177-4.162l13.661 14.208c.571.593 1.339.92 2.162.92.779 0 1.518-.297 2.079-.837a3.004 3.004 0 0 0 .083-4.242zM23.984 6c9.374 0 17 7.626 17 17s-7.626 17-17 17-17-7.626-17-17 7.626-17 17-17z"/></symbol><symbol viewBox="0 0 348.077 348.077" id="tel"><path d="M340.273 275.083l-53.755-53.761c-10.707-10.664-28.438-10.34-39.518.744l-27.082 27.076a792.327 792.327 0 0 1-5.344-2.973c-17.102-9.476-40.509-22.464-65.14-47.113-24.704-24.701-37.704-48.144-47.209-65.257-1.003-1.813-1.964-3.561-2.913-5.221l18.176-18.149 8.936-8.947c11.097-11.1 11.403-28.826.721-39.521L73.39 8.194c-10.682-10.68-28.421-10.356-39.518.744l-15.15 15.237.414.411c-5.08 6.482-9.325 13.958-12.484 22.02C3.74 54.28 1.927 61.603 1.098 68.941-6 127.785 20.89 181.564 93.866 254.541c100.875 100.868 182.167 93.248 185.674 92.876 7.638-.913 14.958-2.738 22.397-5.627 7.992-3.122 15.463-7.361 21.941-12.43l.331.294 15.348-15.029c11.074-11.098 11.393-28.83.716-39.542z"/></symbol></svg>