<?xml version="1.0" encoding="utf-8"?><svg xmlns="http://www.w3.org/2000/svg" xmlns:xlink="http://www.w3.org/1999/xlink"><symbol viewBox="0 0 512.002 512.002" id="adv-card-item1"><path d="M386.313 338.062c-3.328 3.328-3.328 8.738 0 12.066l18.108 18.108a8.473 8.473 0 0 0 6.033 2.5 8.504 8.504 0 0 0 6.033-2.5c3.328-3.328 3.328-8.73 0-12.066l-18.099-18.108a8.55 8.55 0 0 0-12.075 0zm91.554-146.782v81.801h-34.133v-42.667c0-4.71-3.814-8.533-8.533-8.533s-8.533 3.823-8.533 8.533v51.2a8.53 8.53 0 0 0 8.533 8.533h51.2a8.53 8.53 0 0 0 8.533-8.533v-73.267l2.5 2.5a8.51 8.51 0 0 0 6.033 2.5 8.509 8.509 0 0 0 6.033-2.5 8.523 8.523 0 0 0 0-12.066l-17.058-17.058-.017-.017-76.791-76.791a8.523 8.523 0 0 0-12.066 0 8.523 8.523 0 0 0 0 12.066l74.299 74.299zm-190.225-9.557l-.017-.017-76.792-76.791a8.523 8.523 0 0 0-12.066 0l-76.792 76.791-.017.017-17.058 17.058a8.523 8.523 0 0 0 0 12.066 8.525 8.525 0 0 0 12.066 0l2.5-2.5v73.267a8.53 8.53 0 0 0 8.533 8.533h59.733a8.53 8.53 0 0 0 8.533-8.533v-42.667h17.067v42.667a8.53 8.53 0 0 0 8.533 8.533H281.6a8.53 8.53 0 0 0 8.533-8.533v-73.267l2.5 2.5a8.51 8.51 0 0 0 6.033 2.5 8.509 8.509 0 0 0 6.033-2.5 8.525 8.525 0 0 0 0-12.066l-17.057-17.058zm-14.575 91.358H230.4v-42.667a8.53 8.53 0 0 0-8.533-8.533h-34.133a8.53 8.53 0 0 0-8.533 8.533v42.667h-42.667V191.28l68.267-68.267 68.267 68.267v81.801z"/><path d="M204.8 34.147c-94.106 0-170.667 76.561-170.667 170.667S110.694 375.481 204.8 375.481s170.667-76.561 170.667-170.667S298.906 34.147 204.8 34.147zm0 324.267c-84.693 0-153.6-68.907-153.6-153.6s68.907-153.6 153.6-153.6 153.6 68.907 153.6 153.6-68.907 153.6-153.6 153.6zm234.897 20.966a8.53 8.53 0 0 0-6.033-2.5h-.008a8.6 8.6 0 0 0-6.042 2.517l-24.064 24.201c-3.328 3.337-3.311 8.738.034 12.066 3.345 3.328 8.747 3.32 12.066-.034l18.031-18.125 53.751 53.743c4.83 4.838 7.501 11.264 7.501 18.099s-2.671 13.269-7.501 18.099c-9.975 9.975-26.206 9.992-36.198.008l-101.12-101.12c-3.328-3.328-8.73-3.328-12.066 0-3.328 3.337-3.328 8.738 0 12.066l101.12 101.12c8.311 8.32 19.234 12.467 30.157 12.467s21.862-4.156 30.174-12.467c8.055-8.064 12.501-18.773 12.501-30.174 0-11.392-4.446-22.11-12.501-30.165l-59.802-59.801z"/><path d="M409.6 204.814c0-112.922-91.878-204.8-204.8-204.8S0 91.892 0 204.814s91.878 204.8 204.8 204.8 204.8-91.878 204.8-204.8zM204.8 392.547c-103.518 0-187.733-84.215-187.733-187.733S101.282 17.081 204.8 17.081s187.733 84.215 187.733 187.733S308.318 392.547 204.8 392.547z"/></symbol><symbol viewBox="0 0 512 512" id="adv-card-item2"><path d="M375.451 315.733a8.536 8.536 0 0 0-8.533-8.533h-51.2c-4.71 0-8.533 3.823-8.533 8.533s3.823 8.533 8.533 8.533h51.2c4.71.001 8.533-3.822 8.533-8.533zM341.317 93.867V51.2c0-4.71-3.823-8.533-8.533-8.533s-8.533 3.823-8.533 8.533v42.667c0 23.526 19.14 42.667 42.667 42.667h76.8v162.133c0 4.71 3.823 8.533 8.533 8.533s8.533-3.823 8.533-8.533V128a8.536 8.536 0 0 0-8.533-8.533h-85.333c-14.115 0-25.601-11.486-25.601-25.6zm25.6 110.933H298.65a8.536 8.536 0 0 0-8.533 8.533 8.536 8.536 0 0 0 8.533 8.533h68.267a8.536 8.536 0 0 0 8.533-8.533c.001-4.71-3.822-8.533-8.533-8.533zm-93.866 8.533a8.536 8.536 0 0 0-8.533-8.533h-51.2a8.536 8.536 0 0 0-8.533 8.533 8.536 8.536 0 0 0 8.533 8.533h51.2c4.71.001 8.533-3.822 8.533-8.533zM213.317 256a8.536 8.536 0 0 0-8.533 8.533 8.536 8.536 0 0 0 8.533 8.533h17.067a8.536 8.536 0 0 0 8.533-8.533 8.536 8.536 0 0 0-8.533-8.533h-17.067zm0-85.333h85.333a8.536 8.536 0 0 0 8.533-8.533 8.536 8.536 0 0 0-8.533-8.533h-85.333a8.536 8.536 0 0 0-8.533 8.533 8.536 8.536 0 0 0 8.533 8.533zm51.2 102.4h85.333a8.536 8.536 0 0 0 8.533-8.533 8.536 8.536 0 0 0-8.533-8.533h-85.333a8.536 8.536 0 0 0-8.533 8.533 8.536 8.536 0 0 0 8.533 8.533zm51.2 85.333c-4.71 0-8.533 3.823-8.533 8.533s3.823 8.533 8.533 8.533h17.067c4.71 0 8.533-3.823 8.533-8.533s-3.823-8.533-8.533-8.533h-17.067zm-34.133-51.2h-68.267c-4.71 0-8.533 3.823-8.533 8.533s3.823 8.533 8.533 8.533h68.267c4.71 0 8.533-3.823 8.533-8.533s-3.823-8.533-8.533-8.533zm0 51.2h-68.267c-4.71 0-8.533 3.823-8.533 8.533s3.823 8.533 8.533 8.533h68.267c4.71 0 8.533-3.823 8.533-8.533s-3.823-8.533-8.533-8.533zm203.17-6.903l-17.067-17.067c-13.116-13.116-33.101-13.09-46.199 0L309.684 446.234a8.546 8.546 0 0 0-2.5 6.033v51.2a8.536 8.536 0 0 0 8.533 8.533h51.2a8.546 8.546 0 0 0 6.033-2.5l111.804-111.804c13.594-13.594 13.594-32.597 0-46.199zm-74.3 18.099l13.534 13.534-74.138 74.138-13.534-13.534 74.138-74.138zm-86.203 125.337v-39.134l39.134 39.134h-39.134zm51.2-12.066l-13.534-13.534 74.138-74.138 13.534 13.534-74.138 74.138zm97.237-97.237l-11.034 11.034-39.134-39.134 11.034-11.034c6.741-6.733 15.292-6.767 22.067 0l17.067 17.067c6.903 6.912 6.903 15.163 0 22.067z"/><path d="M281.584 494.933H59.717c-14.114 0-25.6-11.486-25.6-25.6V42.667c0-14.114 11.486-25.6 25.6-25.6h269.534L412.084 99.9a8.523 8.523 0 0 0 12.066 0 8.523 8.523 0 0 0 0-12.066L338.817 2.5a8.513 8.513 0 0 0-6.033-2.5H59.717C36.191 0 17.051 19.14 17.051 42.667v426.667c0 23.526 19.14 42.667 42.667 42.667h221.867c4.71 0 8.533-3.823 8.533-8.533s-3.824-8.535-8.534-8.535z"/><path d="M281.584 409.6h-68.267c-4.71 0-8.533 3.823-8.533 8.533s3.823 8.533 8.533 8.533h68.267c4.71 0 8.533-3.823 8.533-8.533s-3.823-8.533-8.533-8.533zM170.651 162.133a8.536 8.536 0 0 0-8.533-8.533h-51.2a8.536 8.536 0 0 0-8.533 8.533v51.2a8.536 8.536 0 0 0 8.533 8.533h51.2a8.536 8.536 0 0 0 8.533-8.533v-51.2zM153.584 204.8h-34.133v-34.133h34.133V204.8zm-42.667 221.867h51.2a8.536 8.536 0 0 0 8.533-8.533v-51.2a8.536 8.536 0 0 0-8.533-8.533h-51.2a8.536 8.536 0 0 0-8.533 8.533v51.2a8.536 8.536 0 0 0 8.533 8.533zm8.534-51.2h34.133V409.6h-34.133v-34.133zm2.5-53.701a8.54 8.54 0 0 0 6.878 2.457 8.513 8.513 0 0 0 6.255-3.755l34.133-51.2c2.611-3.925 1.553-9.225-2.364-11.836a8.533 8.533 0 0 0-11.836 2.364l-28.356 42.539-9.711-9.702c-3.336-3.337-8.73-3.337-12.066 0s-3.337 8.73 0 12.066l17.067 17.067z"/></symbol><symbol viewBox="0 0 334.877 334.877" id="adv-card-item3"><path d="M333.196 155.999h-16.067V82.09c0-17.719-14.415-32.134-32.134-32.134h-21.761L240.965 9.917a19.28 19.28 0 0 0-26.222-7.488l-85.464 47.526H33.815c-17.719 0-32.134 14.415-32.134 32.134v220.653c0 17.719 14.415 32.134 32.134 32.134h251.18c17.719 0 32.134-14.415 32.134-32.134V237.94h16.067v-81.941zm-48.201-93.19c9.897 0 17.982 7.519 19.068 17.14h-24.152l-9.525-17.14h14.609zm-63.999-49.146c3.014-1.69 7.07-.508 8.734 2.494l35.476 63.786H101.798l119.198-66.28zm83.279 289.079c0 10.63-8.651 19.281-19.281 19.281H33.815c-10.63 0-19.281-8.651-19.281-19.281V82.09c0-10.63 8.651-19.281 19.281-19.281h72.353L75.345 79.95H37.832c-3.554 0-6.427 2.879-6.427 6.427s2.873 6.427 6.427 6.427h266.443v63.201h-46.999c-21.826 0-39.589 17.764-39.589 39.589v2.764c0 21.826 17.764 39.589 39.589 39.589h46.999v64.795zm16.067-77.655h-63.066c-14.743 0-26.736-11.992-26.736-26.736v-2.764c0-14.743 11.992-26.736 26.736-26.736h63.066v56.236zm-43.381-27.59c0 7.841-6.35 14.19-14.19 14.19-7.841 0-14.19-6.35-14.19-14.19s6.35-14.19 14.19-14.19c7.841-.001 14.19 6.355 14.19 14.19z"/></symbol><symbol viewBox="0 0 512 512" id="adv-card-item4"><circle cx="441.639" cy="338.1" r="10"/><circle cx="60.965" cy="338.1" r="10"/><path d="M494.298 491.996h-85.876l-.525-245.772c-.012-5.517-4.487-9.98-10.001-9.98h-.022c-5.524.012-9.992 4.499-9.98 10.023l.525 245.729H359.37l-.257-109.348c-.013-5.516-4.488-9.978-10.001-9.978h-.024c-5.524.013-9.992 4.501-9.978 10.025l.257 109.301h-24.285v-132.36c28.31-2.503 50.569-25.767 50.569-54.016v-96.924c0-15.412-3.27-30.519-9.525-44.471 19.751 1.319 38.136 9.355 52.28 23.013 15.478 14.946 24.027 34.82 24.071 55.971l.183 56.916c.018 5.513 4.492 9.97 10.001 9.97h.033c5.523-.018 9.987-4.51 9.97-10.034l-.183-56.905c-.057-26.6-10.775-51.569-30.18-70.307a102.226 102.226 0 0 0-38.597-23.439c10.163-9.673 16.505-23.323 16.473-38.427-.063-29.142-23.79-52.807-52.919-52.807h-.114c-8.486.019-16.924 2.097-24.401 6.01-4.894 2.562-6.785 8.606-4.223 13.5 2.563 4.894 8.608 6.785 13.5 4.223 4.706-2.463 9.809-3.718 15.168-3.73 18.179-.009 32.948 14.696 32.987 32.846.039 18.15-14.696 32.948-32.846 32.987a9.967 9.967 0 0 0-1.267.092c-.533.022-1.065.041-1.599.071-14.45-19.776-34.736-34.122-57.84-41.402 12.266-10.762 20.033-26.535 20.033-44.098C306.652 26.321 280.332 0 247.979 0c-32.354 0-58.675 26.321-58.675 58.675 0 18.414 8.534 34.866 21.847 45.631-21.208 7.654-39.794 21.365-53.292 39.812a105.94 105.94 0 0 0-4.74-.113c-.748 0-1.494.012-2.239.028-.183-.01-.363-.028-.548-.028-18.15 0-32.916-14.766-32.916-32.916s14.766-32.916 32.916-32.916a32.944 32.944 0 0 1 15.693 3.973c4.853 2.637 10.925.843 13.565-4.01 2.638-4.853.843-10.926-4.01-13.565-7.704-4.189-16.435-6.403-25.249-6.403-29.18 0-52.92 23.74-52.92 52.92 0 15.89 7.05 30.156 18.174 39.865-37.813 14.581-64.622 50.512-64.622 92.42v56.72c0 5.524 4.478 10.002 10.002 10.002 5.524 0 10.002-4.478 10.002-10.002v-56.72c0-41.48 33.116-75.606 75.144-79.055a108.564 108.564 0 0 0-9.484 44.378v96.924c0 28.808 23.147 52.433 52.255 54.141v132.234h-27.248V382.668c0-5.524-4.478-10.002-10.002-10.002s-10.002 4.478-10.002 10.002v109.328h-24.586v-245.65c0-5.524-4.478-10.002-10.002-10.002-5.524 0-10.002 4.478-10.002 10.002v245.65H17.702c-5.524 0-10.002 4.478-10.002 10.002S12.177 512 17.702 512h476.597c5.524 0 10.002-4.478 10.002-10.002-.002-5.524-4.479-10.002-10.003-10.002zM209.307 58.675c0-21.323 17.348-38.671 38.671-38.671s38.67 17.348 38.67 38.671-17.348 38.671-38.67 38.671c-21.322 0-38.671-17.348-38.671-38.671zm95.772 143.391c-5.524 0-10.002 4.478-10.002 10.002v279.928h-35.622V352.849c0-5.524-4.478-10.002-10.002-10.002s-10.002 4.478-10.002 10.002v139.148h-30.565V212.068c0-5.524-4.478-10.002-10.002-10.002-5.524 0-10.002 4.478-10.002 10.002v127.641c-18.067-1.64-32.252-16.299-32.252-34.088v-96.924c0-17.31 5.034-34.159 14.558-48.724 17.452-26.689 47.34-42.623 79.95-42.623 32.664 0 62.579 15.975 80.021 42.734 9.477 14.54 14.487 31.35 14.487 48.613v96.924c0 17.232-13.31 31.525-30.565 33.895V212.068c.001-5.524-4.478-10.002-10.002-10.002z"/></symbol><symbol viewBox="-41.5 164.4 513 513" id="adv-card-item5"><path d="M164.6 344c-.5 7.9-.8 16.4-.8 25.7 0 42.7 12.8 68.3 34.1 68.3 26.9 0 34.1-32.2 34.1-51.2 0-4.7-3.8-8.5-8.5-8.5s-8.5 3.8-8.5 8.5c0 .3-.7 34.1-17.1 34.1-9.9 0-17.1-21.5-17.1-51.2 0-99.5 34.9-110.8 36-111.1 4.5-1 7.4-5.4 6.5-10-.9-4.6-5.4-7.6-10-6.7-1.7.3-7.9 2-15.3 8.3 0-1.5.1-2.9.5-4.4 1.2-4.4 4-8.1 8-10.4 4-2.3 8.5-2.9 12.9-1.7s8.1 4 10.4 8c4.7 8.1 1.9 18.6-6.2 23.3-4.1 2.4-5.5 7.6-3.1 11.7 1.6 2.7 4.4 4.3 7.4 4.3 1.5 0 2.9-.4 4.3-1.1 16.3-9.4 21.9-30.3 12.5-46.6-4.6-7.9-11.9-13.5-20.7-15.9-8.8-2.4-18-1.1-25.9 3.4-7.9 4.6-13.6 11.9-15.9 20.7-2.2 8.2-1.2 16.8 2.9 24.6-7.3 11.9-14.2 29.7-18 56-12.8-15.3-20.2-34.8-20.2-54.7 0-47.1 38.3-85.3 85.3-85.3s85.3 38.3 85.3 85.3-38.3 85.3-85.3 85.3c-9.3 0-18.4-1.5-27.1-4.4-4.5-1.5-9.3.9-10.8 5.4s.9 9.3 5.4 10.8c10.4 3.5 21.4 5.3 32.5 5.3 56.5 0 102.4-45.9 102.4-102.4 0-56.5-45.9-102.4-102.4-102.4s-102.4 45.9-102.4 102.4c-.1 29 12.9 57.3 34.8 76.6z"/><path d="M197.9 438.5c-21.7 0-34.6-25.7-34.6-68.8 0-8.7.3-17 .8-25.5-21.9-19.4-35-48.2-35-76.9 0-56.7 46.2-102.9 102.9-102.9s103 46.1 103 102.9-46.2 102.9-102.9 102.9c-11.2 0-22.1-1.8-32.6-5.3-4.7-1.6-7.3-6.7-5.7-11.4 1.6-4.7 6.7-7.3 11.4-5.7 8.7 2.9 17.7 4.4 26.9 4.4 46.8 0 84.8-38.1 84.8-84.8s-38.1-84.8-84.8-84.8-84.8 38.1-84.8 84.8c0 19.2 6.9 38.2 19.3 53.5 3.4-22.7 9.3-41.1 17.7-54.9-4-7.9-5-16.5-2.8-24.7 2.4-8.9 8.1-16.4 16.1-21 8-4.6 17.3-5.8 26.3-3.5 8.9 2.4 16.4 8.1 21 16.1 9.5 16.5 3.8 37.8-12.7 47.3-1.4.8-2.9 1.2-4.5 1.2-3.2 0-6.2-1.7-7.8-4.5-1.2-2.1-1.5-4.5-.9-6.9.6-2.3 2.1-4.3 4.2-5.5 3.8-2.2 6.6-5.8 7.7-10.1 1.1-4.3.6-8.7-1.6-12.6-2.2-3.8-5.8-6.6-10.1-7.7-4.3-1.1-8.7-.6-12.6 1.6-3.8 2.2-6.6 5.8-7.7 10.1-.3 1-.4 2-.5 3.2 7.2-5.9 13-7.4 14.7-7.7 2.4-.5 4.8 0 6.8 1.3s3.4 3.4 3.8 5.7c1 4.8-2 9.5-6.9 10.6-1.4.4-35.6 11.7-35.6 110.7 0 29.4 7 50.7 16.6 50.7 15.7 0 16.6-33.3 16.6-33.6 0-5 4.1-9 9-9s9 4.1 9 9c.2 19.3-7.1 51.8-34.5 51.8zm34.2-273.1c-56.2 0-101.9 45.7-101.9 101.9 0 28.6 13 57.1 34.8 76.4l.2.2v.2c-.6 8.5-.8 16.9-.8 25.6 0 42.4 12.6 67.8 33.6 67.8 11.7 0 20.7-6.1 26.7-18.2 4.3-8.7 6.9-20.9 6.9-32.5 0-4.4-3.6-8-8-8s-8 3.6-8 8c0 .3-.8 34.6-17.6 34.6-10.2 0-17.6-21.7-17.6-51.7 0-99.7 34.9-111.2 36.4-111.6 4.3-1 7-5.1 6.1-9.4-.4-2.1-1.6-3.9-3.4-5.1-1.8-1.2-3.9-1.6-6-1.2-1.7.3-7.7 1.9-15.1 8.2l-.8.7v-1.1c0-1.8.2-3.2.5-4.5 1.2-4.5 4.1-8.3 8.2-10.7 4.1-2.3 8.8-3 13.3-1.7 4.5 1.2 8.3 4.1 10.7 8.2 2.3 4.1 3 8.8 1.7 13.3-1.2 4.5-4.1 8.3-8.2 10.7-1.9 1.1-3.2 2.8-3.7 4.9-.6 2.1-.3 4.2.8 6.1 1.4 2.5 4.1 4 7 4 1.4 0 2.8-.4 4-1.1 16-9.3 21.6-29.9 12.3-45.9-4.5-7.8-11.7-13.3-20.4-15.7-8.7-2.3-17.7-1.1-25.5 3.4-7.8 4.5-13.4 11.8-15.7 20.4-2.2 8.1-1.2 16.5 2.8 24.2l.1.3-.1.2c-8.5 13.9-14.6 32.7-17.9 55.8l-.2 1.1-.7-.9c-13.1-15.7-20.3-35.2-20.3-55 0-47.3 38.5-85.8 85.8-85.8s85.8 38.5 85.8 85.8-38.5 85.8-85.8 85.8c-9.3 0-18.5-1.5-27.2-4.4-4.2-1.4-8.8.9-10.2 5.1-1.4 4.2.9 8.8 5.1 10.2 10.4 3.5 21.3 5.2 32.3 5.2 56.2 0 101.9-45.7 101.9-101.9s-45.7-101.9-101.9-101.9zM69.9 489.2h68.3c9.9 0 26.9 12.7 41.8 23.9 18.7 14 36.4 27.3 52.1 27.3h51.2c13 0 19.4 5.9 19.6 6 1.7 1.7 3.8 2.5 6 2.5s4.4-.8 6-2.5c3.3-3.3 3.3-8.7 0-12.1-1.1-1.1-11.6-11-31.6-11h-51.2c-10 0-26.9-12.7-41.8-23.9-18.7-14-36.4-27.3-52.1-27.3H69.9c-4.7 0-8.5 3.8-8.5 8.5s3.8 8.6 8.5 8.6z"/><path d="M308.9 549.4c-2.4 0-4.7-.9-6.4-2.6-.3-.2-6.7-5.9-19.2-5.9h-51.2c-15.8 0-33.6-13.3-52.4-27.4-14.9-11.2-31.7-23.8-41.5-23.8H69.9c-5 0-9-4.1-9-9 0-5 4.1-9 9-9h68.3c15.8 0 33.6 13.3 52.4 27.4 14.9 11.2 31.7 23.8 41.5 23.8h51.2c20.3 0 30.9 10 32 11.2 3.5 3.5 3.5 9.2 0 12.8-1.8 1.5-4 2.5-6.4 2.5zm-239-76.8c-4.4 0-8 3.6-8 8s3.6 8 8 8h68.3c10.1 0 27.1 12.7 42.1 24 18.7 14 36.3 27.2 51.8 27.2h51.2c12.7 0 19.2 5.5 19.9 6.2 1.5 1.5 3.6 2.4 5.7 2.4s4.2-.8 5.7-2.4c3.1-3.1 3.1-8.2 0-11.4-1.1-1.1-11.4-10.9-31.3-10.9h-51.2c-10.1 0-27.1-12.7-42-23.9-18.7-14-36.3-27.3-51.8-27.3H69.9zm263.8-134.3l86.1 86.1V455h-30.6l-3.5-3.5v-22.1c0-4.7-3.8-8.5-8.5-8.5h-8.5v-8.5c0-4.7-3.8-8.5-8.5-8.5H338l-3.5-3.5v-22.1c0-4.7-3.8-8.5-8.5-8.5h-22.1l-.8-.8c-3.3-3.3-8.7-3.3-12.1 0s-3.3 8.7 0 12.1l3.3 3.3c1.6 1.6 3.8 2.5 6 2.5h17.1v17c0 2.3.9 4.4 2.5 6l8.5 8.5c1.6 1.6 3.8 2.5 6 2.5h17.1v8.5c0 4.7 3.8 8.5 8.5 8.5h8.5V455c0 2.3.9 4.4 2.5 6l8.5 8.5c1.6 1.6 3.8 2.5 6 2.5h42.7c4.7 0 8.5-3.8 8.5-8.5v-42.7c0-2.3-.9-4.4-2.5-6l-88.6-88.6c-3.3-3.3-8.7-3.3-12.1 0-3.2 3.4-3.2 8.8.2 12.1z"/><path d="M428.3 472.6h-42.7c-2.4 0-4.7-.9-6.4-2.6l-8.5-8.5c-1.7-1.7-2.6-4-2.6-6.4v-16.6h-8c-5 0-9-4.1-9-9v-8h-16.6c-2.4 0-4.7-1-6.4-2.7l-8.5-8.5c-1.7-1.7-2.6-4-2.6-6.4v-16.6h-16.6c-2.4 0-4.7-.9-6.4-2.6l-3.3-3.3c-3.5-3.5-3.5-9.3 0-12.8 1.7-1.7 4-2.6 6.4-2.6 2.4 0 4.7.9 6.4 2.6l.7.7h21.9c5 0 9 4.1 9 9v21.9l3.2 3.2h21.9c5 0 9 4.1 9 9v8h8c5 0 9 4.1 9 9v21.9l3.2 3.2h29.9v-29.9l-86-86c-1.7-1.7-2.6-4-2.6-6.4s.9-4.7 2.6-6.4c3.5-3.5 9.3-3.5 12.8 0l88.6 88.6c1.7 1.7 2.6 4 2.6 6.4v42.7c.1 5-4 9.1-9 9.1zM297 366.9c-2.1 0-4.2.8-5.7 2.4-3.1 3.1-3.1 8.2 0 11.4l3.3 3.3c1.5 1.5 3.5 2.4 5.7 2.4h17.6V404c0 2.1.8 4.2 2.3 5.7l8.5 8.5c1.5 1.5 3.6 2.4 5.7 2.4H352v9c0 4.4 3.6 8 8 8h9V455c0 2.1.8 4.2 2.4 5.7l8.5 8.5c1.5 1.5 3.5 2.4 5.7 2.4h42.7c4.4 0 8-3.6 8-8v-42.7c0-2.1-.9-4.2-2.4-5.7l-88.6-88.6c-3.1-3.1-8.2-3.1-11.4 0-1.5 1.5-2.4 3.5-2.4 5.7s.8 4.2 2.4 5.7l86.3 86.3v31.3H389l-3.8-3.8v-22.3c0-4.4-3.6-8-8-8h-9v-9c0-4.4-3.6-8-8-8h-22.3l-3.8-3.8v-22.3c0-4.4-3.6-8-8-8h-22.3l-1-1c-1.6-1.7-3.6-2.5-5.8-2.5zM1.7 621.4c0-7.1-5.7-12.8-12.8-12.8s-12.8 5.7-12.8 12.8c0 7.1 5.7 12.8 12.8 12.8s12.8-5.7 12.8-12.8z"/><path d="M-11.1 634.7c-7.3 0-13.3-6-13.3-13.3s6-13.3 13.3-13.3c7.3 0 13.3 6 13.3 13.3s-6 13.3-13.3 13.3zm0-25.6c-6.8 0-12.3 5.5-12.3 12.3s5.5 12.3 12.3 12.3 12.3-5.5 12.3-12.3-5.6-12.3-12.3-12.3z"/><path d="M18.7 438h-51.2c-4.7 0-8.5 3.8-8.5 8.5s3.8 8.5 8.5 8.5h51.2c4.7 0 8.5 3.8 8.5 8.5v187.7c0 4.7-3.8 8.5-8.5 8.5h-51.2c-4.7 0-8.5 3.8-8.5 8.5s3.8 8.5 8.5 8.5h51.2c14.1 0 25.6-11.5 25.6-25.6V463.6c0-14.2-11.5-25.6-25.6-25.6z"/><path d="M18.7 677.4h-51.2c-5 0-9-4.1-9-9s4.1-9 9-9h51.2c4.4 0 8-3.6 8-8V463.6c0-4.4-3.6-8-8-8h-51.2c-5 0-9-4.1-9-9s4.1-9 9-9h51.2c14.4 0 26.1 11.7 26.1 26.1v187.7c0 14.3-11.7 26-26.1 26zm-51.2-17.1c-4.4 0-8 3.6-8 8s3.6 8 8 8h51.2c13.8 0 25.1-11.3 25.1-25.1V463.6c0-13.8-11.3-25.1-25.1-25.1h-51.2c-4.4 0-8 3.6-8 8s3.6 8 8 8h51.2c5 0 9 4.1 9 9v187.7c0 5-4.1 9-9 9h-51.2z"/><g><path d="M466.4 523.3c-9.4-16.3-30.4-21.9-46.1-12.8l-98.2 47.8c-15.3 7.6-30.7 7.6-64.5 7.6-33 0-83.4-8.3-83.9-8.4-4.7-.8-9 2.4-9.8 7-.8 4.7 2.4 9 7 9.8 2.1.4 52.3 8.7 86.7 8.7 35.4 0 53.2 0 72-9.4l98.7-48.1c3.9-2.3 8.5-2.9 12.9-1.7s8.1 4 10.4 8c2.3 4 2.9 8.5 1.7 13-1.2 4.4-4 8.1-8.2 10.5l-115.4 71.8c-.2.2-24.9 15.7-80.6 15.7-48.4 0-123.1-41.2-124.2-41.8-.8-.4-19.3-9.4-55-9.4-4.7 0-8.5 3.8-8.5 8.5s3.8 8.5 8.5 8.5c31 0 47 7.5 47.1 7.5 3.2 1.8 79.3 43.7 132.1 43.7 61.6 0 88.9-17.7 89.8-18.4l115-71.6c7.9-4.6 13.5-11.9 15.9-20.7 2.4-8.7 1.2-17.9-3.4-25.8z"/><path d="M249.1 660.3c-52.8 0-128.8-41.8-132.4-43.8-1.7-.8-17.6-7.4-46.8-7.4-5 0-9-4.1-9-9s4.1-9 9-9c35.9 0 54.5 9.1 55.2 9.5 3.2 1.7 76.6 41.7 124 41.7 55.4 0 80.1-15.4 80.4-15.6l115.4-71.8c4.1-2.3 6.8-5.9 8-10.2 1.2-4.3.6-8.7-1.7-12.6-2.2-3.8-5.8-6.6-10.1-7.7-4.3-1.1-8.7-.6-12.6 1.7l-98.7 48.1c-18.9 9.4-36.7 9.4-72.2 9.4-35.1 0-86.3-8.6-86.8-8.7-4.9-.8-8.2-5.5-7.4-10.4.8-4.9 5.5-8.2 10.4-7.4.5.1 50.8 8.4 83.9 8.4 33.7 0 49.1 0 64.2-7.6l98.2-47.8c7.7-4.4 16.7-5.6 25.6-3.2 9 2.4 16.5 8.2 21.2 16.2 4.6 8 5.9 17.3 3.5 26.3-2.4 8.9-8.1 16.4-16.1 21l-114.9 71.5c-1.3.7-28.4 18.4-90.3 18.4zm-132-44.7l.1.1c3.2 1.8 79.2 43.7 131.9 43.7 61.6 0 88.4-17.5 89.6-18.3l115-71.6c7.8-4.5 13.4-11.8 15.7-20.4 2.3-8.7 1.1-17.7-3.4-25.5-4.5-7.8-11.8-13.4-20.6-15.7-8.6-2.3-17.4-1.2-24.8 3.2l-98.2 47.8c-15.4 7.7-30.8 7.7-64.7 7.7-33.1 0-83.5-8.3-84-8.4-4.4-.7-8.5 2.2-9.2 6.6-.7 4.4 2.2 8.5 6.6 9.2.5.1 51.7 8.6 86.7 8.6 35.4 0 53.1 0 71.8-9.3l98.7-48.1c4-2.3 8.8-3 13.3-1.7 4.5 1.2 8.3 4.1 10.7 8.2 2.4 4.1 3 8.8 1.8 13.3-1.2 4.6-4.1 8.3-8.4 10.8L330 627.5c-.2.2-25.2 15.7-80.9 15.7-47.6 0-121.3-40.1-124.4-41.8-.8-.4-19.2-9.4-54.8-9.4-4.4 0-8 3.6-8 8s3.6 8 8 8c29.2.1 45.2 6.7 47.2 7.6z"/></g></symbol><symbol viewBox="0 0 511.999 511.999" id="adv-card-item6"><path d="M387.496 235.271a8.022 8.022 0 0 0-9.257 6.547l-12.46 72.685a8.02 8.02 0 0 0 7.911 9.372 8.02 8.02 0 0 0 7.893-6.662l12.46-72.685a8.02 8.02 0 0 0-6.547-9.257zm21.048-115.064l-51.582-17.856a8.015 8.015 0 1 0-5.244 15.149l45.152 15.632-6.905 40.278a8.02 8.02 0 0 0 7.911 9.372 8.02 8.02 0 0 0 7.893-6.662l8.054-46.983a8.016 8.016 0 0 0-5.279-8.93zm-72.966-25.259L301.37 83.107a8.016 8.016 0 0 0-5.244 15.15l34.208 11.841c.869.3 1.753.444 2.622.444a8.018 8.018 0 0 0 7.575-5.397 8.015 8.015 0 0 0-4.953-10.197zM270.481 223.59c23.349-6.376 40.567-27.759 40.567-53.102 0-30.354-24.695-55.048-55.048-55.048s-55.048 24.694-55.048 55.048c0 25.342 17.218 46.726 40.567 53.102-39.979 6.896-70.496 41.798-70.496 83.717v42.756a8.017 8.017 0 0 0 8.017 8.017h153.92a8.016 8.016 0 0 0 8.017-8.017v-42.756c-.001-41.919-30.517-76.82-70.496-83.717zm-53.496-53.101c0-21.513 17.502-39.015 39.015-39.015s39.015 17.502 39.015 39.015-17.502 39.015-39.015 39.015-39.015-17.503-39.015-39.015zm107.958 171.557H187.056v-34.739c0-38.015 30.928-68.944 68.944-68.944s68.944 30.928 68.944 68.944v34.739z"/><path d="M444.747 98.805L258.62 34.376a8.002 8.002 0 0 0-5.244 0L67.25 98.805a8.014 8.014 0 0 0-5.278 8.93l44.449 259.288a8.016 8.016 0 0 0 3.304 5.213l141.676 99.173a8.014 8.014 0 0 0 9.194 0l141.678-99.173a8.015 8.015 0 0 0 3.305-5.213l44.449-259.288a8.015 8.015 0 0 0-5.28-8.93zm-54.406 262.212l-134.342 94.038-134.341-94.038L78.923 111.73l177.076-61.296 177.075 61.296-42.733 249.287z"/><path d="M480.951 77.402L258.621.442a8.002 8.002 0 0 0-5.244 0l-222.33 76.96a8.014 8.014 0 0 0-5.279 8.93l51.307 299.29a8.016 8.016 0 0 0 3.304 5.213l171.023 119.716a8.014 8.014 0 0 0 9.194 0L431.62 390.835a8.015 8.015 0 0 0 3.305-5.213l51.307-299.29a8.017 8.017 0 0 0-5.281-8.93zm-61.265 302.215L255.999 494.198 92.313 379.617 42.72 90.328 255.999 16.5l213.278 73.827-49.591 289.29z"/></symbol><symbol viewBox="0 0 511.999 511.999" id="adv-card-item7"><path d="M363.788 53.894c-34.176 0-61.979 27.803-61.979 61.979a8.083 8.083 0 0 0 8.084 8.084 8.084 8.084 0 0 0 8.084-8.084c0-25.26 20.55-45.81 45.81-45.81s45.81 20.55 45.81 45.81-20.55 45.81-45.81 45.81a8.084 8.084 0 0 0-8.084 8.084v35.929c0 4.465 3.618 8.084 8.084 8.084s8.084-3.62 8.084-8.084v-28.37c30.371-3.973 53.895-30.018 53.895-61.454.001-34.174-27.802-61.978-61.978-61.978z"/><circle cx="363.788" cy="245.22" r="10.779"/><circle cx="105.094" cy="309.894" r="21.558"/><circle cx="169.767" cy="309.894" r="21.558"/><path d="M465.349 46.485C435.542 16.721 395.934.213 353.82.002c-42.211-.179-82.251 16.335-112.657 46.591-11.93 11.872-21.748 25.238-29.284 39.643l-.039-.002h-.041c-56.389.282-109.424 22.386-149.336 62.24C22.556 188.324.373 241.317.005 297.694c-.371 56.728 21.569 110.26 61.777 150.731 40.727 40.997 94.991 63.574 152.796 63.574h179.976c5.319 0 10.002-3.203 11.93-8.161 1.927-4.954.642-10.476-3.276-14.068-5.869-5.382-14.812-13.826-24.088-23.494-8.598-8.964-9.183-22.94-1.358-32.508 30.764-37.62 47.784-85.081 47.995-133.738 14.625-7.595 28.146-17.492 40.101-29.525 30.029-30.226 46.415-70.209 46.138-112.579-.276-42.102-16.843-81.68-46.647-111.441zm-10.961 212.626c-27.356 27.535-63.802 42.699-102.627 42.699H230.759a386.732 386.732 0 0 0 9.893-9.93c11.246-11.723 11.993-30.02 1.738-42.561-16.858-20.615-27.562-45.638-30.994-71.906-.524-4.01-3.958-6.997-8.002-6.997-4.871 0-8.658 4.28-8.025 9.11 3.824 29.234 15.74 57.083 34.505 80.028 5.084 6.218 4.702 15.304-.889 21.133-6.655 6.937-13.082 13.02-17.389 16.974-3.574 3.282-4.982 8.438-3.219 12.958 1.745 4.47 5.97 7.359 10.769 7.359H351.76c20.039 0 39.507-3.64 57.661-10.597-1.794 42.346-17.318 83.309-44.175 116.153-12.995 15.89-12.047 39.077 2.206 53.936 6.67 6.953 13.165 13.285 18.536 18.361H214.577c-53.466 0-103.656-20.883-141.326-58.8-37.151-37.394-57.422-86.84-57.079-139.23.686-104.726 84.483-190.778 188.299-195.205a156.164 156.164 0 0 0-9.062 35.507c-.642 4.826 3.154 9.104 8.023 9.104h.009c4.032 0 7.465-2.97 7.998-6.966 4.115-30.857 18.354-59.527 41.127-82.186 27.163-27.028 62.813-41.886 100.457-41.886l.716.002c77.838.389 141.578 64.028 142.087 141.862.251 38.032-14.466 73.929-41.438 101.078z"/></symbol><symbol viewBox="0 0 44 44" id="btn-email"><path d="M43 6H1a1 1 0 0 0-1 1v30a1 1 0 0 0 1 1h42a1 1 0 0 0 1-1V7a1 1 0 0 0-1-1zm-1 27.581L29.612 21.194l-1.414 1.414L41.59 36H2.41l13.392-13.392-1.414-1.414L2 33.581V8h40v25.581z"/><path d="M39.979 8L22 25.979 4.021 8H2v.807L21.293 28.1a.999.999 0 0 0 1.414 0L42 8.807V8h-2.021z"/></symbol><symbol viewBox="188 -66.1 972 972" id="calc-item1"><path d="M1052.1 721.3h-14.9V325.6c0-3.6-2.4-6.7-5.9-7.7L685 223.4c-3.5-.9-5.9-4.1-5.9-7.7v-74.9c0-35.7-82.5-64.7-184.2-64.7s-184.2 29-184.2 64.7v580.5h-14.9c-4.4 0-7.9 3.6-7.9 7.9v26.5c0 4.4 3.6 7.9 7.9 7.9h756.3c4.4 0 7.9-3.6 7.9-7.9v-26.5c.1-4.4-3.5-7.9-7.9-7.9zm-678.3-91.7c0 3.6-2.4 6.7-5.8 7.6-11.1 3.1-21.2 6.7-30.1 10.6-5.3 2.3-11.1-1.5-11.1-7.3v-35c0-3.1 1.8-5.8 4.5-7.2 9.4-4.5 20.2-8.7 32.3-12.3 5.1-1.5 10.2 2.3 10.2 7.6v36zm0-84.9c0 3.6-2.4 6.7-5.8 7.7-11.1 3.1-21.2 6.7-30.1 10.6-5.3 2.3-11.1-1.5-11.1-7.3v-35c0-3.1 1.8-5.8 4.5-7.2 9.4-4.5 20.2-8.7 32.3-12.3 5.1-1.5 10.2 2.3 10.2 7.6v35.9zm0-84.9c0 3.6-2.4 6.7-5.8 7.6-11.1 3.1-21.2 6.7-30.1 10.6-5.3 2.3-11.1-1.5-11.1-7.3v-35c0-3.1 1.8-5.8 4.5-7.2 9.4-4.5 20.2-8.7 32.3-12.3 5.1-1.5 10.2 2.3 10.2 7.6v36zm0-84.9c0 3.6-2.4 6.7-5.8 7.7-11.1 3.1-21.2 6.7-30.1 10.6-5.3 2.3-11.1-1.5-11.1-7.3v-35c0-3.1 1.8-5.8 4.5-7.2 9.4-4.5 20.2-8.7 32.3-12.3 5.1-1.5 10.2 2.3 10.2 7.6v35.9zm0-84.9c0 3.6-2.4 6.7-5.8 7.7-11.1 3.1-21.2 6.7-30.1 10.6-5.3 2.3-11.1-1.5-11.1-7.3v-35c0-3.1 1.8-5.8 4.5-7.2 9.4-4.5 20.2-8.7 32.3-12.3 5.1-1.5 10.2 2.3 10.2 7.6V290zm0-84.9c0 3.6-2.4 6.7-5.8 7.6-11.1 3.1-21.2 6.7-30.1 10.6-5.3 2.3-11.1-1.5-11.1-7.3v-35c0-3.1 1.8-5.8 4.5-7.2 9.4-4.5 20.2-8.7 32.3-12.3 5.1-1.5 10.2 2.3 10.2 7.6v36zM485 613.8c0 4.3-3.4 7.8-7.7 7.9-26.5.8-51.5 3.4-74 7.4-4.9.9-9.4-2.9-9.4-7.8V585c0-3.8 2.7-7.1 6.5-7.8 23.2-4.3 49-7.1 76.4-8 4.5-.1 8.2 3.5 8.2 7.9v36.7zm0-84.9c0 4.3-3.4 7.8-7.7 7.9-26.5.8-51.5 3.4-74 7.5-4.9.9-9.4-2.9-9.4-7.8v-36.3c0-3.8 2.7-7.1 6.5-7.8 23.2-4.3 49-7.1 76.4-8 4.5-.1 8.2 3.5 8.2 7.9v36.6zm0-84.9c0 4.3-3.4 7.8-7.7 7.9-26.5.8-51.5 3.4-74 7.4-4.9.9-9.4-2.9-9.4-7.8v-36.3c0-3.8 2.7-7.1 6.5-7.8 23.2-4.3 49-7.1 76.4-8 4.5-.1 8.2 3.5 8.2 7.9V444zm0-84.9c0 4.3-3.4 7.8-7.7 7.9-26.5.8-51.5 3.4-74 7.4-4.9.9-9.4-2.9-9.4-7.8v-36.3c0-3.8 2.7-7.1 6.5-7.8 23.2-4.3 49-7.1 76.4-8 4.5-.1 8.2 3.5 8.2 7.9v36.7zm0-84.9c0 4.3-3.4 7.8-7.7 7.9-26.5.8-51.5 3.4-74 7.4-4.9.9-9.4-2.9-9.4-7.8v-36.3c0-3.8 2.7-7.1 6.5-7.8 23.2-4.3 49-7.1 76.4-8 4.5-.1 8.2 3.5 8.2 7.9v36.7zm0-84.9c0 4.3-3.4 7.8-7.7 7.9-26.5.8-51.5 3.4-74 7.4-4.9.9-9.4-2.9-9.4-7.8v-36.3c0-3.8 2.7-7.1 6.5-7.8 23.2-4.3 49-7.1 76.4-8 4.5-.1 8.2 3.5 8.2 7.9v36.7zm131.2-20.1c0-5.3 5.1-9.1 10.2-7.6 12.1 3.6 22.9 7.8 32.3 12.3 2.8 1.3 4.5 4.1 4.5 7.2v35c0 5.7-5.9 9.6-11.1 7.3-9-3.9-19.1-7.4-30.1-10.6-3.4-1-5.8-4.1-5.8-7.6v-36zm-20.1 452.2c0 5-4.5 8.7-9.4 7.8-22.6-4-47.6-6.6-74-7.4-4.3-.1-7.7-3.6-7.7-7.9v-36.6c0-4.5 3.7-8.1 8.2-7.9 27.4.9 53.3 3.6 76.4 8 3.8.7 6.5 4 6.5 7.8v36.2zm0-84.9c0 5-4.5 8.7-9.4 7.8-22.6-4-47.6-6.6-74-7.5-4.3-.1-7.7-3.6-7.7-7.9v-36.6c0-4.5 3.7-8.1 8.2-7.9 27.4.9 53.3 3.6 76.4 8 3.8.7 6.5 4 6.5 7.8v36.3zm0-84.9c0 5-4.5 8.7-9.4 7.8-22.6-4-47.6-6.6-74-7.4-4.3-.1-7.7-3.6-7.7-7.9v-36.6c0-4.5 3.7-8.1 8.2-7.9 27.4.9 53.3 3.6 76.4 8 3.8.7 6.5 4 6.5 7.8v36.2zm0-84.9c0 5-4.5 8.7-9.4 7.8-22.6-4-47.6-6.6-74-7.4-4.3-.1-7.7-3.6-7.7-7.9v-36.6c0-4.5 3.7-8.1 8.2-7.9 27.4.9 53.3 3.6 76.4 8 3.8.7 6.5 4 6.5 7.8v36.2zm0-84.9c0 5-4.5 8.7-9.4 7.8-22.6-4-47.6-6.6-74-7.4-4.3-.1-7.7-3.6-7.7-7.9v-36.6c0-4.5 3.7-8.1 8.2-7.9 27.4.9 53.3 3.6 76.4 8 3.8.7 6.5 4 6.5 7.8v36.2zm0-85c0 5-4.5 8.7-9.4 7.8-22.6-4-47.6-6.6-74-7.4-4.3-.1-7.7-3.6-7.7-7.9v-36.6c0-4.5 3.7-8.1 8.2-7.9 27.4.9 53.3 3.6 76.4 8 3.8.7 6.5 4 6.5 7.8v36.2zm20.1 93.2v-35.9c0-5.3 5.1-9.1 10.2-7.6 12.1 3.6 22.9 7.8 32.3 12.3 2.8 1.3 4.5 4.1 4.5 7.2v35c0 5.7-5.9 9.6-11.1 7.3-9-3.9-19.1-7.4-30.1-10.6-3.5-1.1-5.8-4.2-5.8-7.7zm257.3 431.3H751.2V648c0-4.4 3.6-7.9 7.9-7.9h106.4c4.4 0 7.9 3.6 7.9 7.9v73.3zm125.6-139.4c0 4.4-3.6 7.9-7.9 7.9H650.7c-4.4 0-7.9-3.6-7.9-7.9v-30.6c0-4.4 3.6-7.9 7.9-7.9h340.4c4.4 0 7.9 3.6 7.9 7.9v30.6zm0-78.7c0 4.4-3.6 7.9-7.9 7.9H650.7c-4.4 0-7.9-3.6-7.9-7.9v-30.6c0-4.4 3.6-7.9 7.9-7.9h340.4c4.4 0 7.9 3.6 7.9 7.9v30.6zm0-78.6c0 4.4-3.6 7.9-7.9 7.9H650.7c-4.4 0-7.9-3.6-7.9-7.9V394c0-4.4 3.6-7.9 7.9-7.9h340.4c4.4 0 7.9 3.6 7.9 7.9v30.6z"/></symbol><symbol viewBox="0 0 972 972" id="calc-item2"><path d="M490.7 169.6L0 386.4v27.2h40.8v388.9h888.1V413.6H972v-27.2L490.7 169.6zM862.2 722H550.1V567.8H433.8V722H103.4V413.6h758.7V722z"/><path d="M322.5 538.7H153v-80.4h169.6v80.4zm147.8-80.4h-62.6v80.4h62.6v-80.4zm90 0h-58v80.4h58v-80.4zm255.2 0H646v80.4h169.6v-80.4zM326 597.3H156.5v80.4H326v-80.4zm493 0H649.5v80.4H819v-80.4z"/></symbol><symbol viewBox="0 0 972 972" id="calc-item3"><path d="M118 429.8l-23.6-37.7L464 152.7l368.8 238-22.9 39.1-346.3-227.9z"/><path d="M661.2 342.8l311 207-20.7 30.7-290.3-188.6z"/><path d="M909 776.8V561.3L652.1 394.1v-56L463.6 214 279.2 334v17.5L0 531l22.9 38.8L40.8 557v218.8H23.9l1 44.5h906.3v-43.5H909zm-630.2-.4H71.5V657.1h207.4v119.3zm0-135.7H71.5V537.6L278.8 404v236.7zm139.1 49.6h-93.1V534.5h93.1v155.8zm0-386.9h83.5v138.1h-83.5V303.4zm167.9 386.9h-93.1V534.5h93.1v155.8zm220.6 0h-93.1V534.5h93.1v155.8zM592.7 158.1H658v122.3h-65.3z"/></symbol><symbol viewBox="0 0 299.998 299.998" id="contacts-clock"><path d="M149.997 0C67.157 0 .001 67.158.001 149.995s67.156 150.003 149.995 150.003 150-67.163 150-150.003S232.836 0 149.997 0zm10.358 168.337c-.008.394-.067.788-.122 1.183-.039.296-.057.599-.124.89-.067.303-.182.602-.28.905-.117.366-.226.731-.379 1.076-.029.06-.039.124-.065.184-.226.482-.488.934-.775 1.362-.018.026-.042.052-.06.078-.327.48-.7.916-1.092 1.325-.109.112-.22.213-.335.319-.345.329-.708.63-1.094.905-.119.086-.233.176-.358.259-.495.324-1.014.609-1.554.843-.117.052-.239.083-.358.13a10.425 10.425 0 0 1-1.909.542c-.612.112-1.232.189-1.86.189-.127 0-.257-.039-.384-.044-.602-.023-1.198-.07-1.771-.192-.179-.039-.355-.117-.534-.166a10.53 10.53 0 0 1-1.554-.529c-.057-.029-.117-.034-.174-.06l-57.515-27.129c-5.182-2.443-7.402-8.626-4.959-13.808 2.443-5.179 8.626-7.402 13.808-4.959l42.716 20.144V62.249c0-5.729 4.645-10.374 10.374-10.374s10.374 4.645 10.374 10.374V168.15h.002c0 .062-.018.124-.018.187z"/></symbol><symbol viewBox="0 0 27.857 27.857" id="contacts-email"><path d="M2.203 5.331l10.034 7.948c.455.36 1.082.52 1.691.49.608.03 1.235-.129 1.69-.49l10.034-7.948c.804-.633.622-1.152-.398-1.152H2.604c-1.021 0-1.203.519-.401 1.152z"/><path d="M26.377 7.428l-10.965 8.325c-.41.308-.947.458-1.482.451-.536.007-1.073-.144-1.483-.451L1.48 7.428C.666 6.811 0 7.142 0 8.163v13.659c0 1.021.836 1.857 1.857 1.857H26a1.863 1.863 0 0 0 1.857-1.857V8.163c0-1.021-.666-1.352-1.48-.735z"/></symbol><symbol viewBox="0 0 512 512" id="contacts-location"><path d="M256 0C161.896 0 85.333 76.563 85.333 170.667c0 28.25 7.063 56.26 20.49 81.104L246.667 506.5c1.875 3.396 5.448 5.5 9.333 5.5s7.458-2.104 9.333-5.5l140.896-254.813c13.375-24.76 20.438-52.771 20.438-81.021C426.667 76.563 350.104 0 256 0zm0 256c-47.052 0-85.333-38.281-85.333-85.333S208.948 85.334 256 85.334s85.333 38.281 85.333 85.333S303.052 256 256 256z"/></symbol><symbol viewBox="0 0 348.077 348.077" id="contacts-tel"><path d="M340.273 275.083l-53.755-53.761c-10.707-10.664-28.438-10.34-39.518.744l-27.082 27.076a792.327 792.327 0 0 1-5.344-2.973c-17.102-9.476-40.509-22.464-65.14-47.113-24.704-24.701-37.704-48.144-47.209-65.257-1.003-1.813-1.964-3.561-2.913-5.221l18.176-18.149 8.936-8.947c11.097-11.1 11.403-28.826.721-39.521L73.39 8.194c-10.682-10.68-28.421-10.356-39.518.744l-15.15 15.237.414.411c-5.08 6.482-9.325 13.958-12.484 22.02C3.74 54.28 1.927 61.603 1.098 68.941-6 127.785 20.89 181.564 93.866 254.541c100.875 100.868 182.167 93.248 185.674 92.876 7.638-.913 14.958-2.738 22.397-5.627 7.992-3.122 15.463-7.361 21.941-12.43l.331.294 15.348-15.029c11.074-11.098 11.393-28.83.716-39.542z"/></symbol><symbol viewBox="0 0 139.4 44.7" id="dorohovdesign"><path d="M52.2 19.5V8.1H57c3.6 0 6.1 2.1 6.1 5.7 0 3.5-2.6 5.7-6.1 5.7h-4.8zm7.9-5.7c0-1.8-1.1-3.1-3.1-3.1h-1.9v6.2H57c2 0 3.1-1.4 3.1-3.1m4.1 0c0-3.4 2.6-5.9 6.1-5.9 3.5 0 6.1 2.4 6.1 5.9 0 3.5-2.6 5.9-6.1 5.9-3.5 0-6.1-2.4-6.1-5.9m9.2 0c0-1.9-1.2-3.3-3.1-3.3-1.9 0-3.1 1.4-3.1 3.3 0 1.8 1.2 3.3 3.1 3.3 1.9 0 3.1-1.4 3.1-3.3m11 5.7l-1.9-3.8H81v3.8h-2.9V8.1h5.7c2.5 0 3.9 1.7 3.9 3.8 0 2-1.2 3-2.3 3.4l2.3 4.2h-3.3zm.3-7.6c0-.8-.6-1.2-1.4-1.2H81v2.4h2.3c.8 0 1.4-.4 1.4-1.2m4.2 1.9c0-3.4 2.6-5.9 6.1-5.9 3.5 0 6.1 2.4 6.1 5.9 0 3.5-2.6 5.9-6.1 5.9-3.5 0-6.1-2.4-6.1-5.9m9.1 0c0-1.9-1.2-3.3-3.1-3.3-1.9 0-3.1 1.4-3.1 3.3 0 1.8 1.2 3.3 3.1 3.3 1.9 0 3.1-1.4 3.1-3.3m12.4 5.7v-4.6h-4.7v4.6h-3V8.1h3v4.3h4.7V8.1h2.9v11.4zm4.6-5.7c0-3.4 2.6-5.9 6.1-5.9 3.5 0 6.1 2.4 6.1 5.9 0 3.5-2.6 5.9-6.1 5.9-3.5 0-6.1-2.4-6.1-5.9m9.2 0c0-1.9-1.2-3.3-3.1-3.3-1.9 0-3.1 1.4-3.1 3.3 0 1.8 1.2 3.3 3.1 3.3 1.9 0 3.1-1.4 3.1-3.3m7.3 5.7l-4.3-11.4h3.3l2.8 8.2 2.8-8.2h3.3l-4.2 11.4zm-79.3 17V25.1H57c3.6 0 6.1 2.1 6.1 5.7 0 3.5-2.6 5.7-6.1 5.7h-4.8zm7.9-5.7c0-1.8-1.1-3.1-3.1-3.1h-1.9v6.2H57c2 0 3.1-1.4 3.1-3.1m4.7 5.7V25.1h8.3v2.6h-5.3v1.8H73V32h-5.2v1.9h5.3v2.6zm9.6-1.6l1.5-2.2c.8.8 2.1 1.5 3.6 1.5 1 0 1.6-.4 1.6-.9 0-1.5-6.4-.3-6.4-4.7 0-1.9 1.6-3.6 4.5-3.6 1.8 0 3.4.5 4.6 1.6l-1.6 2.1c-1-.8-2.2-1.2-3.3-1.2-.8 0-1.2.3-1.2.8 0 1.4 6.4.4 6.4 4.6 0 2.3-1.7 3.8-4.7 3.8-2.2 0-3.8-.7-5-1.8m11.5-9.8h2.9v11.3h-2.9zm4.7 5.7c0-3.6 2.8-5.9 6.1-5.9 2.5 0 4.1 1.3 4.8 2.8L99.1 29c-.4-.7-1.3-1.4-2.4-1.4-1.9 0-3.2 1.4-3.2 3.3s1.3 3.3 3.2 3.3c.8 0 1.7-.3 2.1-.7v-.9h-2.6V30h5.5v4.5c-1.2 1.3-2.9 2.2-5 2.2-3.4 0-6.1-2.3-6.1-5.9m20.9 5.7l-4.8-6.6v6.6h-2.9V25.1h3l4.6 6.3v-6.3h2.9v11.4zM17.7 0H0v44.7h17.8c15 0 24.6-8.8 24.6-22.4C42.4 8.7 32.7 0 17.7 0m-.4 35.7h-8V9.5h8c9.3 0 15.7 3.7 15.7 12.7.1 7.5-5.8 13.5-15.7 13.5"/><path d="M19.1 17H17v10.6h2c4 0 6.4-2.4 6.4-5.4 0-3.7-2.6-5.2-6.3-5.2"/></symbol><symbol viewBox="0 0 124.099 124.1" id="email"><path d="M18.25 106.7c5.6 5.399 12.3 9.8 20.1 12.8 7.8 3 16.5 4.6 25.9 4.6 10.5 0 20.2-1.6 28.9-4.899 7.9-2.9 1.1-17.601-4.7-15.2-6.399 2.7-14.2 4.1-23.101 4.1-7 0-13.399-1.1-19-3.199-5.6-2.101-10.5-5.101-14.5-9-4-3.9-7.2-8.7-9.4-14.2-2.3-5.601-3.4-12-3.4-19 0-6.6 1.1-12.9 3.3-18.5 2.2-5.6 5.2-10.6 9.2-14.6 3.9-4.1 8.7-7.4 14.2-9.7 5.5-2.3 11.7-3.5 18.5-3.5 6.301 0 12.1.9 17.301 2.5 5.1 1.6 9.5 4.1 13.199 7.4 3.7 3.3 6.6 7.3 8.7 12.1 2.101 4.8 3.101 10.4 3.101 16.8 0 3.7-.4 7.2-1.201 10.5-.799 3.1-1.799 5.899-3.199 8.1-1.301 2.101-2.801 3.8-4.6 5-2.101 1.4-5.201 2.2-7.601 1.4-3-1-2.399-5.2-2.2-7.7.301-3.4 1.2-6.6 1.9-9.9 1.1-5.4 2.3-10.7 3.4-16 .6-2.9 1.299-5.9 1.899-8.8.8-3.7-2-7.3-5.899-7.3h-4.4c-2.7 0-5.1 1.8-5.801 4.4-.299 1.2-.6 2.2-.6 2.2-2.199-6.8-10.3-8.7-16.7-8.6-8.4.1-16.1 4.4-21.7 10.5-.5.6-1.1 1.2-1.6 1.8-2.9 3.5-5.1 7.6-6.6 11.9-1.6 4.6-2.4 9.3-2.4 14.1 0 4.101.6 8 1.7 11.5 1.2 3.601 2.9 6.7 5.1 9.3 2.2 2.601 5 4.7 8.3 6.2 3.3 1.5 7 2.3 11 2.3 3 0 5.8-.5 8.3-1.399 2.4-.9 4.6-2 6.5-3.3 1.5-1 2.9-2.2 4-3.301.699 1.301 1.5 2.4 2.6 3.5 2.801 3 7.1 4.5 12.801 4.5 4.5 0 8.899-.899 13-2.699 4.1-1.801 7.799-4.601 10.899-8.2 3-3.601 5.5-8 7.3-13.2 1.801-5.2 2.7-11.2 2.7-17.8 0-9-1.7-17-5-23.7s-7.8-12.4-13.399-16.9c-5.5-4.5-11.9-7.8-19-10.1C79.05 1.1 71.75 0 64.25 0c-8.7 0-17 1.6-24.7 4.7-7.7 3.2-14.5 7.6-20.2 13.1-5.8 5.5-10.4 12.2-13.7 19.7-3.3 7.5-5 15.9-5 24.7 0 8.899 1.5 17.3 4.6 24.8 3 7.6 7.4 14.2 13 19.7zm54.099-42c-.699 2.7-1.699 5.3-3.1 7.7-1.4 2.3-3.1 4.199-5.3 5.699-2 1.4-4.4 2.101-7.4 2.101-1.9 0-3.4-.4-4.5-1.101-1.2-.8-2.2-1.8-2.9-3.1-.8-1.4-1.3-2.9-1.6-4.4-.3-1.6-.5-3.1-.5-4.399 0-2.8.4-5.6 1.2-8.5.8-2.8 1.9-5.4 3.4-7.6 1.5-2.2 3.2-4 5.3-5.4 1.9-1.3 4-1.9 6.5-1.9 2 0 3.601.3 4.8 1 1.2.7 2.2 1.6 2.9 2.7.8 1.2 1.3 2.6 1.699 4.1.4 1.7.601 3.5.601 5.2-.1 2.5-.399 5.1-1.1 7.9z"/></symbol><symbol viewBox="0 0 96.124 96.123" id="fb"><path d="M72.089.02L59.624 0C45.62 0 36.57 9.285 36.57 23.656v10.907H24.037a1.96 1.96 0 0 0-1.96 1.961v15.803a1.96 1.96 0 0 0 1.96 1.96H36.57v39.876a1.96 1.96 0 0 0 1.96 1.96h16.352a1.96 1.96 0 0 0 1.96-1.96V54.287h14.654a1.96 1.96 0 0 0 1.96-1.96l.006-15.803a1.963 1.963 0 0 0-1.961-1.961H56.842v-9.246c0-4.444 1.059-6.7 6.848-6.7l8.397-.003a1.96 1.96 0 0 0 1.959-1.96V1.98A1.96 1.96 0 0 0 72.089.02z"/></symbol><symbol viewBox="0 0 97.395 97.395" id="inst"><path d="M12.501 0h72.393c6.875 0 12.5 5.09 12.5 12.5v72.395c0 7.41-5.625 12.5-12.5 12.5H12.501C5.624 97.395 0 92.305 0 84.895V12.5C0 5.09 5.624 0 12.501 0zm58.447 10.821a4.395 4.395 0 0 0-4.383 4.385v10.495a4.396 4.396 0 0 0 4.383 4.385h11.008a4.398 4.398 0 0 0 4.385-4.385V15.206a4.397 4.397 0 0 0-4.385-4.385H70.948zm15.439 30.367h-8.572a28.486 28.486 0 0 1 1.25 8.355c0 16.2-13.556 29.332-30.275 29.332-16.718 0-30.272-13.132-30.272-29.332 0-2.904.438-5.708 1.25-8.355h-8.945v41.141a3.884 3.884 0 0 0 3.872 3.872h67.822a3.883 3.883 0 0 0 3.872-3.872V41.188h-.002zM48.789 29.533c-10.802 0-19.56 8.485-19.56 18.953s8.758 18.953 19.56 18.953c10.803 0 19.562-8.485 19.562-18.953s-8.758-18.953-19.562-18.953z"/></symbol><symbol viewBox="0 0 97.713 97.713" id="location"><path d="M48.855 0C29.021 0 12.883 16.138 12.883 35.974c0 5.174 1.059 10.114 3.146 14.684 8.994 19.681 26.238 40.46 31.31 46.359a2.003 2.003 0 0 0 3.034 0c5.07-5.898 22.314-26.676 31.311-46.359 2.088-4.57 3.146-9.51 3.146-14.684C84.828 16.138 68.69 0 48.855 0zm0 54.659c-10.303 0-18.686-8.383-18.686-18.686 0-10.304 8.383-18.687 18.686-18.687s18.686 8.383 18.686 18.687c.001 10.303-8.382 18.686-18.686 18.686z"/></symbol><symbol viewBox="0 0 344.3 147.5" id="logotip"><path d="M76 .1c-.7-.1-1.5-.1-2.2-.1C33.1 0 0 33.1 0 73.8s33.1 73.7 73.8 73.7c40.7 0 73.8-33.1 73.8-73.7-.1-40-32-72.5-71.6-73.7zm-2.2 143.4C35.3 143.5 4 112.2 4 73.8 4 35.3 35.3 4 73.8 4s69.8 31.3 69.8 69.8c0 38.4-31.4 69.7-69.8 69.7z"/><path d="M73.8 6.6c-37 0-67.2 30.1-67.2 67.2 0 37 30.1 67.2 67.2 67.2 37 0 67.2-30.1 67.2-67.2-.1-37.1-30.2-67.2-67.2-67.2zM52 33c0-12 9.8-21.8 21.8-21.8 16.2 0 29.3 13.3 29.3 29.7 0 1.3-.1 2.5-.3 3.8-2.2 15.3-25.1 13.4-25.1-2.1 0-2.2-1.7-3.9-3.9-3.9s-3.9 1.7-3.9 3.9v27.2H52V33zM11.2 73.8c0-3 .2-5.9.6-8.8 5.4 6.2 12.6 10.4 20.7 11.9l-17 19.4c-2.8-7-4.3-14.6-4.3-22.5zM36.6 124c-4.8-3.6-9.1-7.8-12.7-12.5-3.1-4.1-2.9-9.7.5-13.6L36.6 84v40zm0-54.3c-4.2-.4-8.2-1.8-11.7-3.9-7.6-4.5-10.2-14.4-6-22.1 4.4-8 10.4-14.9 17.7-20.3v46.3zm37.2 66.6h-.2c-12 0-21.5-10-21.5-22V77.7h18.1c2 18.5 17.8 33.2 36.9 33.2H124c-11.4 15.4-29.6 25.4-50.2 25.4zm33.2-33.2c-14.9 0-27.2-11.3-29-25.7 18.4-2.1 32.7-17.6 32.9-36.5 0-8.2-2.6-15.8-7.1-22 9.3 5.1 17.2 12.6 22.9 21.6h-7.9c.5 3.8 2.5 7.2 5.6 9.5 6.3 4.6 10.6 11.6 11.8 19.6.1 1.4.1 2.7.1 4.1v.6c-.2 16-13.4 28.8-29.3 28.8zM211.9 80.9c0 1.2.4 2.2 1.2 2.9.8.7 2 1.1 3.7 1.1h2.1v.7h-21.7v-.7h2.1c3.3 0 4.9-1.4 4.9-4.2V62h-6.9c-2 .5-3.3 1.8-4.1 3.8-.7 2.1-1.2 4.7-1.5 7.9-.1 2.4-.4 4.4-.8 5.9-.4 1.6-1 2.8-1.7 3.7-.7.9-1.6 1.6-2.6 1.9-1 .4-2.2.6-3.5.6-1.4 0-2.5-.3-3.4-.9-.9-.6-1.5-1.4-1.8-2.4-.4-1-.5-2.1-.4-3.4.1-1.3.4-2.6.9-4 .3-.2.6-.3.9-.3.3 0 .6.2.8.4-.8 1.1-1.3 2.2-1.6 3.3-.3 1.1-.3 2-.2 2.8.1.8.4 1.5.8 2s1 .8 1.6.8c.8 0 1.3-.3 1.6-.8.3-.5.5-1.2.6-2.2.1-.9.1-2.1.1-3.4 0-1.3.1-2.8.3-4.4.1-1.4.4-2.8.9-4.1.4-1.4 1-2.6 1.8-3.7.7-1.1 1.6-2.1 2.7-2.8 1-.8 2.3-1.3 3.7-1.5V61c-1.4-.1-2.7-.5-4-1-1.3-.6-2.4-1.3-3.5-2.2-1-.9-1.9-2.1-2.5-3.4-.6-1.4-.9-2.9-.9-4.7 0-4.5 1.4-7.9 4.3-10.1 2.9-2.2 7.5-3.3 13.9-3.3 2 0 4 .1 6.1.2 2.1.1 3.9.2 5.3.2h7.8v.7h-2.1c-3.3 0-4.9 1.4-4.9 4.2v39.3zm-7.7-43.2c-1.8-.5-3.4-.8-4.6-.8-2.8 0-4.9.4-6.2 1.3-1.4.9-2.3 1.9-2.8 3.2-.5 1.3-.7 2.7-.6 4.3.1 1.6.1 3 .1 4.4 0 1.6.1 3.1.2 4.5s.5 2.5 1.1 3.5c.6 1 1.5 1.7 2.7 2.3 1.2.6 2.9.8 5 .8 1 0 2-.1 2.8-.2.9-.1 1.6-.4 2.3-.9V37.7zm27.2 3.8c0-2.8-1.6-4.2-4.9-4.2h-2.1v-.7h7.8c1.5 0 3.3-.1 5.3-.2 2.1-.1 4.1-.2 6.1-.2 3.5 0 6.5.3 9 .9 2.4.6 4.4 1.5 5.8 2.7 1.5 1.2 2.5 2.7 3.1 4.4.6 1.8.9 3.8.9 6 0 4.8-1.6 8.7-4.8 11.5-3.2 2.8-7.9 4.3-14 4.3-.7 0-1.4 0-2.3-.1-.9 0-1.6-.1-2.3-.2v14.8c0 2.8 1.6 4.2 4.9 4.2h2.1v.7h-21.7v-.7h2.1c1.7 0 3-.4 3.7-1.1.8-.7 1.2-1.7 1.2-2.9V41.5zm7.7 22.5c.5.5 1.4.8 2.5 1.1 1.2.3 2.3.4 3.3.4 2.2 0 3.9-.4 5.1-1.1 1.2-.7 2.1-1.8 2.7-3.1.6-1.3.9-2.9 1-4.6.1-1.8.2-3.7.2-5.8v-4.5c0-1.6-.3-3.1-.9-4.5-.6-1.4-1.6-2.5-3-3.5-1.4-.9-3.5-1.4-6.2-1.4-.7 0-1.4 0-2.1.1-.8 0-1.6.2-2.5.4V64zm49.1 13.3l-17.3-34.4c-.5-1-1-1.8-1.3-2.6-.4-.7-.8-1.3-1.2-1.7-.4-.4-.9-.8-1.5-1-.6-.2-1.3-.3-2.2-.3h-.8v-.7h21.7v.7h-2.1c-1.7 0-3 .5-3.8 1.5-.8 1-.8 2.3.1 4l11.6 23.8h.3l6.6-21.8c.7-2.3.7-4.1.1-5.5-.6-1.4-1.8-2-3.5-2h-2.1v-.7h14.3v.7h-.7c-1.7 0-3.2.8-4.5 2.5-1.3 1.7-2.4 4-3.3 6.9L289 77.3c-.6 1.9-1.2 3.4-1.9 4.5-.7 1.2-1.4 2.1-2.2 2.7-.7.7-1.5 1.1-2.2 1.3-.7.2-1.3.4-1.8.4-.7 0-1.4-.1-2.2-.4-.7-.3-1.4-.6-2-1.2-.6-.5-1.1-1.1-1.5-1.9-.4-.7-.6-1.6-.6-2.6 0-1.2.2-2.2.7-3.1.4-.8 1-1.5 1.7-1.9.7-.4 1.5-.6 2.3-.6.8 0 1.7.4 2.4 1l.1.5c-.3.7-.4 1.5-.4 2.2 0 .7.1 1.3.3 1.9.2.6.5 1 .9 1.3.4.3.8.5 1.4.5.5 0 1-.2 1.7-.6.7-.4 1.2-1.2 1.5-2.3l1-1.7zm41.1-41.4c2 0 3.7.1 5.2.3 1.5.2 2.9.3 4 .3s2.1-.1 2.9-.3c.8-.3 1.4-.8 1.8-1.7l.5.3c-.3 1.2-.6 2.6-.7 4.2-.2 1.6-.3 3.2-.4 5-.1 1.7-.2 3.6-.2 5.4 0 1.9-.1 3.7-.1 5.5h-.5c-.4-6.5-1.6-11.1-3.7-14-2.1-2.8-5-4.3-8.8-4.3-2.2 0-4 .4-5.4 1.2-1.4.8-2.5 1.8-3.4 3.1-.8 1.3-1.4 2.7-1.7 4.4-.4 1.6-.6 3.3-.7 5.1-.1 1.7-.1 3.5-.1 5.2.1 1.7.1 3.2.1 4.6 0 1.5 0 3.2-.1 5-.1 1.8-.1 3.7 0 5.6.1 1.9.3 3.7.6 5.5.4 1.8.9 3.4 1.8 4.8.8 1.4 2 2.5 3.4 3.3 1.4.8 3.3 1.3 5.6 1.3 2.1 0 3.9-.7 5.4-2 1.5-1.3 2.7-3 3.8-5.1 1-2.1 1.8-4.3 2.4-6.8.6-2.5 1-4.8 1.2-7.1h.5v5.9c0 2.1.1 4.2.3 6.3.1 2.1.3 4 .5 5.7.2 1.8.5 3.2.8 4.3l-.6.4c-.5-1.4-1.4-2.3-2.6-2.6-1.2-.3-2.5-.3-3.9 0s-2.9.6-4.3 1.1c-1.4.5-2.7.7-3.6.7-3 0-5.7-.6-8.3-1.8-2.5-1.2-4.7-2.9-6.5-5.2-1.8-2.2-3.3-4.9-4.3-8.1-1-3.2-1.5-6.7-1.5-10.6 0-3.6.5-7 1.5-10s2.5-5.6 4.3-7.8c1.8-2.2 4-3.9 6.5-5.1 2.6-1.4 5.3-2 8.3-2zm-142.9 65.2c-.3-.2-.8-.4-1.5-.4-1 0-2.3.4-2.3 4.2 0 3.1.8 3.7 2.1 3.7.8 0 1.4-.3 1.7-.6.1.2.1.4.1.6 0 .4-.9.9-2.2.9-1.7 0-2.8-.6-2.8-4.7 0-4.5 1.9-5.1 3.4-5.1.8 0 1.6.3 1.6.8 0 .1 0 .4-.1.6zm9.8-.3v8.3c0 .2 0 .2-1 .2v-8.5h-2.3c0-.9 0-.9.3-.9h5.4c0 .8 0 .9-.3.9h-2.1zm8.7-.6c-.1-.3-.1-.3 1-.3l1.4 5.6c.3 1.4.5 2.9.5 2.9s.2-1.5.5-3l1.3-5.2c.1-.3.1-.3 1.1-.3l-2.5 10c-.6 2.3-1.3 3.1-2.6 3.1-.9 0-1.4-.2-1.4-.6 0-.2.1-.5.2-.6.3.2.8.2 1.2.2.7 0 1.3-.6 1.7-2.4l-2.4-9.4zm11 8.4c0-.3.3-.2.9-.3 1.1-2.1 1.2-5.4 1.3-8.2 0-.3.1-.3 1.8-.3h2.9v8.5h.9v3.4c0 .2-.3.2-.7.2-.2-1.1-.3-2.1-.3-2.7H217c0 1-.2 2.2-.2 2.5-.1.2-.4.2-.7.2v-3.3zm5.8-7.8h-2.6c-.2 2.9-.2 5.3-1.2 7.5h3.9v-7.5zm13.3-.6c.1-.2.2-.3 1-.3v9.2c0 .2-.1.2-1 .2v-3.5c0-.2.2-3.4.2-4.4-.5 1-2 3.9-2.1 4.1l-1.9 3.5c-.1.3-.2.3-.9.3v-9.2c0-.2.1-.2 1-.2v5c0 1-.1 2.2-.2 2.9.5-.9 2-3.9 2.1-4.1l1.8-3.5zm10.3 5.2c-.7.8-1.1 1.9-1.3 3.7-.1.2-.2.3-.4.3h-.7c.1-2.3.9-3.7 1.5-4.3-.8-.3-1.6-1-1.6-2.4 0-1.9 1-2.8 3.1-2.8h2.2v9.1c0 .3 0 .3-1 .3v-4h-1.8zm1.8-4.6h-1.4c-1.2 0-1.8.6-1.8 1.9 0 1.4.8 1.9 1.6 1.9h1.6v-3.8zm15.8-.3c.8-.5 1.7-.8 2.7-.8 1.9 0 3.1.9 3.1 4 0 5.1-1.9 5.8-3.1 5.8-.8 0-1.4-.3-1.7-.7v4.1c-.2 0-.4.1-.5.1-.3 0-.5-.1-.5-.4v-12.1zm1 7.2c.3.6.9.9 1.4.9.8 0 2.2-.5 2.2-4.7 0-2.6-.7-3.3-2-3.3-.6 0-1.2.2-1.6.5v6.6zm16.9.2c.1.2.1.5.1.7 0 .5-1.2.9-2.5.9-1.8 0-3.1-.6-3.1-4.4 0-4.9 1.8-5.4 3.4-5.4 1.6 0 2.4 1.1 2.4 3 0 .8-.1 1.6-.2 2.3-1.5.3-3.6.3-4.5.3 0 2.8.8 3.2 2.2 3.2.7 0 1.6-.2 2.2-.6zm-4.5-3.5c.8 0 2.5 0 3.6-.2.1-.5.1-.9.1-1.3 0-1.5-.3-2.2-1.4-2.2-1 0-2.2.4-2.3 3.7zm11.4-4.3s0-.2.3-.2h.7l2.1 4.7c.2.3.6 1.5.6 1.5.2-.6.6-1.6.8-2.1l1.7-4c0-.1.1-.2.3-.2h.8v9.3c0 .2.1.2-1 .2v-3.5c0-.7.2-2.2.2-4.4l-1.5 3.5-1 2.2c0 .1-.1.1-.2.1h-.5l-1-2.3c-.1-.2-1-2.4-1.5-3.4 0 1.9.2 3.5.2 4.1v3.4c0 .2 0 .2-1 .2v-9.1zm17.2-.4c1.9 0 2.9 1 2.9 4.9 0 3.4-1.1 4.9-3.1 4.9-1.9 0-2.9-.6-2.9-4.9 0-3.5 1.1-4.9 3.1-4.9zm-.2 8.9c1.2 0 2-1.1 2-4 0-3.3-.7-3.9-1.9-3.9s-2 .9-2 4.1c.1 3.2.7 3.8 1.9 3.8zm15.5.5c0 .2 0 .2-1.1.2v-4.2h-3.5v4c0 .2 0 .2-1 .2v-9.2c0-.3 0-.3 1-.3v4.3h3.5v-4c0-.3 0-.3 1.1-.3v9.3zm10-8.3v8.3c0 .2 0 .2-1 .2v-8.5h-2.3c0-.9 0-.9.3-.9h5.4c0 .8 0 .9-.3.9h-2.1zm14.1 2.3c0 2.2 0 4.2-.1 5.7-.4.3-1.2.7-2.6.7-1.4 0-2.7-.2-2.7-2.8 0-2.7 1.4-3.1 2.8-3.1.5 0 1.1.1 1.5.2v-1.7c0-1.2-.6-1.5-1.5-1.5-1.2 0-2.2.2-2.7.5-.1-.2-.2-.4-.2-.6 0-.2.1-.3.2-.4.4-.2 1.6-.5 3-.5 1.5 0 2.3.6 2.3 2.3v1.2zm-2.3 1.3c-1.1 0-2.1.2-2.1 2.2 0 1.8.8 1.9 1.8 1.9.6 0 1.2-.2 1.4-.4.1-.8.1-2.3.1-3.6-.3 0-.8-.1-1.2-.1z"/></symbol><symbol viewBox="0 0 41.756 41.756" id="modal-close"><path d="M27.948 20.878L40.291 8.536a5 5 0 1 0-7.07-7.071L20.878 13.809 8.535 1.465a5 5 0 0 0-7.07 7.071l12.342 12.342L1.465 33.22a5 5 0 1 0 7.07 7.071l12.343-12.342 12.343 12.343c.976.977 2.256 1.464 3.535 1.464s2.56-.487 3.535-1.464a5 5 0 0 0 0-7.071L27.948 20.878z"/></symbol><symbol viewBox="0 0 309.156 309.156" id="owl-bottom"><path fill="#010002" d="M288.461 64.929L154.589 202.766 20.723 64.94 0 85.07l154.589 159.158L309.156 85.07z"/></symbol><symbol viewBox="0 0 306 306" id="owl-next"><path d="M94.35 0l-35.7 35.7L175.95 153 58.65 270.3l35.7 35.7 153-153z"/></symbol><symbol viewBox="51 -52.2 477.2 477.2" id="owl-next-400"><path d="M167.6 401.9c-5.3 5.3-5.3 13.8 0 19.1 2.6 2.7 6.1 4 9.5 4s6.9-1.4 9.5-4l225.1-225c5.3-5.3 5.3-13.8 0-19.1L186.6-48.2c-5.3-5.3-13.8-5.3-19.1 0s-5.3 13.8 0 19.1L383 186.4 167.6 401.9z"/></symbol><symbol viewBox="0 0 306 306" id="owl-prev"><path d="M247.35 270.3L130.05 153l117.3-117.3L211.65 0l-153 153 153 153z"/></symbol><symbol viewBox="0 0 477.175 477.175" id="owl-prev-400"><path d="M145.188 238.575l215.5-215.5c5.3-5.3 5.3-13.8 0-19.1s-13.8-5.3-19.1 0l-225.1 225.1c-5.3 5.3-5.3 13.8 0 19.1l225.1 225c2.6 2.6 6.1 4 9.5 4s6.9-1.3 9.5-4c5.3-5.3 5.3-13.8 0-19.1l-215.4-215.5z"/></symbol><symbol viewBox="0 0 42 42" id="plus"><path d="M42 19H23V0h-4v19H0v4h19v19h4V23h19z"/></symbol><symbol viewBox="0 0 510.127 510.127" id="ruble"><path d="M34.786 428.963h81.158v69.572c0 3.385 1.083 6.156 3.262 8.322 2.173 2.18 4.951 3.27 8.335 3.27h60.502c3.14 0 5.857-1.09 8.152-3.27 2.295-2.166 3.439-4.938 3.439-8.322v-69.572h182.964c3.377 0 6.156-1.076 8.334-3.256 2.18-2.178 3.262-4.951 3.262-8.336v-46.377c0-3.365-1.082-6.156-3.262-8.322-2.172-2.18-4.957-3.27-8.334-3.27h-182.97v-42.754h123.184c48.305 0 87.73-14.719 118.293-44.199 30.551-29.449 45.834-67.49 45.834-114.125 0-46.604-15.283-84.646-45.834-114.125C410.548 14.749 371.116 0 322.812 0H127.535c-3.385 0-6.157 1.089-8.335 3.256-2.173 2.179-3.262 4.969-3.262 8.335v227.896H34.786c-3.384 0-6.157 1.145-8.335 3.439-2.172 2.295-3.262 5.012-3.262 8.151v53.978c0 3.385 1.083 6.158 3.262 8.336 2.179 2.18 4.945 3.256 8.335 3.256h81.158v42.754H34.786c-3.384 0-6.157 1.09-8.335 3.27-2.172 2.166-3.262 4.951-3.262 8.322v46.377c0 3.385 1.083 6.158 3.262 8.336 2.178 2.181 4.95 3.257 8.335 3.257zM199.628 77.179h115.938c25.6 0 46.248 7.485 61.953 22.46 15.697 14.976 23.549 34.547 23.549 58.691 0 24.156-7.852 43.733-23.549 58.691-15.705 14.988-36.354 22.473-61.953 22.473H199.628V77.179z"/></symbol><symbol viewBox="0 0 68.1 68.1" id="scrollto"><path d="M34.5 67.9h-1c-10.1 0-18.3-8.2-18.3-18.3v-31C15.2 8.5 23.4.3 33.5.3h1c10.1 0 18.3 8.2 18.3 18.3v31c.1 10.1-8.2 18.3-18.3 18.3zm-.9-65.6c-9 0-16.3 7.3-16.3 16.3v31c0 9 7.3 16.3 16.3 16.3h1c9 0 16.3-7.3 16.3-16.3v-31c0-9-7.3-16.3-16.3-16.3h-1z"/><path d="M34.1 25.4c-1.2 0-2.3-1-2.3-2.2v-6.5c0-1.2 1-2.2 2.2-2.2 1.2 0 2.2 1 2.2 2.2v6.5c.1 1.2-.9 2.2-2.1 2.2z"/></symbol><symbol viewBox="0 0 56.966 56.966" id="search"><path d="M55.146 51.887L41.588 37.786A22.926 22.926 0 0 0 46.984 23c0-12.682-10.318-23-23-23s-23 10.318-23 23 10.318 23 23 23c4.761 0 9.298-1.436 13.177-4.162l13.661 14.208c.571.593 1.339.92 2.162.92.779 0 1.518-.297 2.079-.837a3.004 3.004 0 0 0 .083-4.242zM23.984 6c9.374 0 17 7.626 17 17s-7.626 17-17 17-17-7.626-17-17 7.626-17 17-17z"/></symbol><symbol viewBox="-169 262.9 277 286" id="swape"><path d="M44.5 310.8l-23-23c-2.3-2.3-6.1-2.3-8.5 0-2.3 2.3-2.3 6.1 0 8.5l12.2 12.2h-57.5c-3.3 0-6 2.7-6 6s2.7 6 6 6h58.6l-12.7 12.7c-2.3 2.3-2.3 6.1 0 8.5 1.2 1.2 2.7 1.8 4.2 1.8s3.1-.6 4.2-1.8l22.4-22.4c2.4-2.4 2.4-6.2.1-8.5zm-20.9 79c-6.4-4.2-13-5.9-18.1-6.4-6.6-8.9-16.2-13.7-27.2-13.7-2.4 0-4.9.2-7.4.7-6.5-7.5-15.5-11.5-25.6-11.5h-.6v-36.8c0-8.5-3.3-16-9.2-21.2-5.2-4.6-12-7.1-19.2-7.1-7.8 0-15.2 3-20.4 8.2-5.2 5.2-8 12.2-8 20.2l.1 53.2v33.7c-7.6 4.1-12.8 10.5-15.3 18.8-3.7 12.7-.8 29.1 9.1 50.2 6.5 13.8 14.3 25.9 18.1 31.4l1.7 22.1c.7 9.9 9.1 17.6 18.9 17.6l78.6-.1c9.5 0 17.6-7.1 18.8-16.5L21 509c18.6-29.1 25.4-59.3 20.2-89.7-2.8-16.5-11.1-25.2-17.6-29.5zM10.3 503.4c-.6.9-.9 1.9-1.1 2.9L6 530.7c-.5 3.5-3.4 5.9-6.9 5.9l-78.6-.1c-3.7 0-6.7-2.6-7-6.3l-1.8-23.3c-.1-1.2-.5-2.4-1.2-3.4-7.2-10.5-47.4-71.4-14.8-85 2.6-1.1 4.3-3.6 4.3-6.4 0-16.6-.1-71.7-.1-90.1 0-10.9 8.2-16.4 16.4-16.4s16.4 5.5 16.4 16.4l.1 42.3c0 3.9 3.2 7 7 7 .4 0 .7 0 1.1-.1 1.4-.2 2.9-.4 4.5-.4 5.9 0 12.8 2 18.1 9.3 1.3 1.8 3.4 2.8 5.6 2.8.6 0 1.2-.1 1.8-.2 2.1-.5 4.7-1 7.5-1 6.2 0 13.4 2.2 18.8 10.7 1 1.6 2.8 2.6 4.8 2.7 7.1.3 23.6 3.4 27.4 26.2 3.6 21.2 1.9 49.6-19.1 82.1z"/><path d="M-125.8 350.4c-1.8 0-3.6-.9-4.6-2.5-5.6-8.8-8.6-19.1-8.6-29.6 0-30.4 24.7-55 55-55 30.4 0 55 24.7 55 55 0 10.4-2.9 20.6-8.5 29.4-1.6 2.6-5 3.3-7.6 1.7-2.6-1.6-3.3-5-1.7-7.6 4.4-7 6.8-15.1 6.8-23.5 0-24.3-19.8-44-44-44-24.3 0-44 19.8-44 44 0 8.4 2.4 16.6 6.9 23.7 1.6 2.6.9 6-1.7 7.6-1 .6-2 .8-3 .8z"/></symbol><symbol viewBox="0 0 29.731 29.731" id="tel"><path d="M23.895 29.731c-1.237 0-2.731-.31-4.374-.93-3.602-1.358-7.521-4.042-11.035-7.556C4.971 17.73 2.287 13.81.928 10.208-.307 6.933-.31 4.245.921 3.015c.177-.177.357-.367.543-.563C2.587 1.271 3.856-.058 5.538.002 6.697.05 7.82.77 8.97 2.201c3.398 4.226 1.866 5.732.093 7.478l-.313.31c-.29.29-.838 1.633 4.26 6.731 1.664 1.664 3.083 2.882 4.217 3.619.714.464 1.991 1.166 2.515.642l.315-.318c1.744-1.769 3.25-3.296 7.473.099 1.431 1.15 2.15 2.272 2.198 3.433.069 1.681-1.27 2.953-2.452 4.075-.195.186-.385.366-.562.542-.611.612-1.588.919-2.819.919zM5.418 1C4.223 1 3.144 2.136 2.189 3.141c-.192.202-.378.398-.561.581-.917.916-.824 3.323.236 6.134 1.31 3.472 3.913 7.266 7.33 10.683 3.416 3.415 7.208 6.018 10.681 7.327 2.811 1.062 5.218 1.152 6.133.237.183-.183.379-.369.581-.56 1.027-.976 2.192-2.082 2.141-3.309-.035-.843-.649-1.75-1.825-2.695-3.519-2.83-4.503-1.831-6.135-.176l-.32.323c-.78.781-2.047.608-3.767-.51-1.193-.776-2.667-2.038-4.379-3.751-4.231-4.23-5.584-6.819-4.26-8.146l.319-.315c1.659-1.632 2.66-2.617-.171-6.138-.947-1.175-1.853-1.789-2.696-1.825L5.418 1z"/></symbol><symbol viewBox="0 0 304.36 304.36" id="vk"><path d="M261.945 175.576c10.096 9.857 20.752 19.131 29.807 29.982 4 4.822 7.787 9.798 10.684 15.394 4.105 7.955.387 16.709-6.746 17.184l-44.34-.02c-11.436.949-20.559-3.655-28.23-11.474-6.139-6.253-11.824-12.908-17.727-19.372-2.42-2.642-4.953-5.128-7.979-7.093-6.053-3.929-11.307-2.726-14.766 3.587-3.523 6.421-4.322 13.531-4.668 20.687-.475 10.441-3.631 13.186-14.119 13.664-22.414 1.057-43.686-2.334-63.447-13.641-17.422-9.968-30.932-24.04-42.691-39.971-22.895-31.021-40.428-65.108-56.186-100.15C-2.01 76.458.584 72.22 9.295 72.07c14.465-.281 28.928-.261 43.41-.02 5.879.086 9.771 3.458 12.041 9.012 7.826 19.243 17.402 37.551 29.422 54.521 3.201 4.518 6.465 9.036 11.113 12.216 5.142 3.521 9.057 2.354 11.476-3.374 1.535-3.632 2.207-7.544 2.553-11.434 1.146-13.383 1.297-26.743-.713-40.079-1.234-8.323-5.922-13.711-14.227-15.286-4.238-.803-3.607-2.38-1.555-4.799 3.564-4.172 6.916-6.769 13.598-6.769h50.111c7.889 1.557 9.641 5.101 10.721 13.039l.043 55.663c-.086 3.073 1.535 12.192 7.07 14.226 4.43 1.448 7.35-2.096 10.008-4.905 11.998-12.734 20.561-27.783 28.211-43.366 3.395-6.852 6.314-13.968 9.143-21.078 2.096-5.276 5.385-7.872 11.328-7.757l48.229.043c1.43 0 2.877.021 4.262.258 8.127 1.385 10.354 4.881 7.844 12.817-3.955 12.451-11.65 22.827-19.174 33.251-8.043 11.129-16.645 21.877-24.621 33.072-7.328 10.223-6.746 15.376 2.357 24.255zm0 0" fill-rule="evenodd" clip-rule="evenodd"/></symbol></svg>