<?xml version="1.0" encoding="utf-8"?>
<!-- Generator: Adobe Illustrator 19.0.0, SVG Export Plug-In . SVG Version: 6.00 Build 0)  -->
<svg version="1.1" id="Layer_1" xmlns="http://www.w3.org/2000/svg" xmlns:xlink="http://www.w3.org/1999/xlink" x="0px" y="0px"
	 viewBox="-41.5 164.4 513 513" enable-background="new -41.5 164.4 513 513" xml:space="preserve">
<g>
	<g>
		<g>
			<g>
				<path d="M164.6,344c-0.5,7.9-0.8,16.4-0.8,25.7c0,42.7,12.8,68.3,34.1,68.3c26.9,0,34.1-32.2,34.1-51.2c0-4.7-3.8-8.5-8.5-8.5
					c-4.7,0-8.5,3.8-8.5,8.5c0,0.3-0.7,34.1-17.1,34.1c-9.9,0-17.1-21.5-17.1-51.2c0-99.5,34.9-110.8,36-111.1c4.5-1,7.4-5.4,6.5-10
					c-0.9-4.6-5.4-7.6-10-6.7c-1.7,0.3-7.9,2-15.3,8.3c0-1.5,0.1-2.9,0.5-4.4c1.2-4.4,4-8.1,8-10.4c4-2.3,8.5-2.9,12.9-1.7
					c4.4,1.2,8.1,4,10.4,8c4.7,8.1,1.9,18.6-6.2,23.3c-4.1,2.4-5.5,7.6-3.1,11.7c1.6,2.7,4.4,4.3,7.4,4.3c1.5,0,2.9-0.4,4.3-1.1
					c16.3-9.4,21.9-30.3,12.5-46.6c-4.6-7.9-11.9-13.5-20.7-15.9c-8.8-2.4-18-1.1-25.9,3.4c-7.9,4.6-13.6,11.9-15.9,20.7
					c-2.2,8.2-1.2,16.8,2.9,24.6c-7.3,11.9-14.2,29.7-18,56c-12.8-15.3-20.2-34.8-20.2-54.7c0-47.1,38.3-85.3,85.3-85.3
					c47,0,85.3,38.3,85.3,85.3s-38.3,85.3-85.3,85.3c-9.3,0-18.4-1.5-27.1-4.4c-4.5-1.5-9.3,0.9-10.8,5.4c-1.5,4.5,0.9,9.3,5.4,10.8
					c10.4,3.5,21.4,5.3,32.5,5.3c56.5,0,102.4-45.9,102.4-102.4c0-56.5-45.9-102.4-102.4-102.4s-102.4,45.9-102.4,102.4
					C129.7,296.4,142.7,324.7,164.6,344z"/>
				<path d="M197.9,438.5c-21.7,0-34.6-25.7-34.6-68.8c0-8.7,0.3-17,0.8-25.5c-21.9-19.4-35-48.2-35-76.9
					c0-56.7,46.2-102.9,102.9-102.9S335,210.5,335,267.3s-46.2,102.9-102.9,102.9c-11.2,0-22.1-1.8-32.6-5.3
					c-4.7-1.6-7.3-6.7-5.7-11.4c1.6-4.7,6.7-7.3,11.4-5.7c8.7,2.9,17.7,4.4,26.9,4.4c46.8,0,84.8-38.1,84.8-84.8
					s-38.1-84.8-84.8-84.8s-84.8,38.1-84.8,84.8c0,19.2,6.9,38.2,19.3,53.5c3.4-22.7,9.3-41.1,17.7-54.9c-4-7.9-5-16.5-2.8-24.7
					c2.4-8.9,8.1-16.4,16.1-21c8-4.6,17.3-5.8,26.3-3.5c8.9,2.4,16.4,8.1,21,16.1c9.5,16.5,3.8,37.8-12.7,47.3
					c-1.4,0.8-2.9,1.2-4.5,1.2c-3.2,0-6.2-1.7-7.8-4.5c-1.2-2.1-1.5-4.5-0.9-6.9c0.6-2.3,2.1-4.3,4.2-5.5c3.8-2.2,6.6-5.8,7.7-10.1
					c1.1-4.3,0.6-8.7-1.6-12.6c-2.2-3.8-5.8-6.6-10.1-7.7c-4.3-1.1-8.7-0.6-12.6,1.6c-3.8,2.2-6.6,5.8-7.7,10.1
					c-0.3,1-0.4,2-0.5,3.2c7.2-5.9,13-7.4,14.7-7.7c2.4-0.5,4.8,0,6.8,1.3c2,1.3,3.4,3.4,3.8,5.7c1,4.8-2,9.5-6.9,10.6
					c-1.4,0.4-35.6,11.7-35.6,110.7c0,29.4,7,50.7,16.6,50.7c15.7,0,16.6-33.3,16.6-33.6c0-5,4.1-9,9-9s9,4.1,9,9
					C232.6,406,225.3,438.5,197.9,438.5z M232.1,165.4c-56.2,0-101.9,45.7-101.9,101.9c0,28.6,13,57.1,34.8,76.4l0.2,0.2l0,0.2
					c-0.6,8.5-0.8,16.9-0.8,25.6c0,42.4,12.6,67.8,33.6,67.8c11.7,0,20.7-6.1,26.7-18.2c4.3-8.7,6.9-20.9,6.9-32.5c0-4.4-3.6-8-8-8
					s-8,3.6-8,8c0,0.3-0.8,34.6-17.6,34.6c-10.2,0-17.6-21.7-17.6-51.7c0-99.7,34.9-111.2,36.4-111.6c4.3-1,7-5.1,6.1-9.4
					c-0.4-2.1-1.6-3.9-3.4-5.1c-1.8-1.2-3.9-1.6-6-1.2c-1.7,0.3-7.7,1.9-15.1,8.2l-0.8,0.7l0-1.1c0-1.8,0.2-3.2,0.5-4.5
					c1.2-4.5,4.1-8.3,8.2-10.7c4.1-2.3,8.8-3,13.3-1.7c4.5,1.2,8.3,4.1,10.7,8.2c2.3,4.1,3,8.8,1.7,13.3c-1.2,4.5-4.1,8.3-8.2,10.7
					c-1.9,1.1-3.2,2.8-3.7,4.9c-0.6,2.1-0.3,4.2,0.8,6.1c1.4,2.5,4.1,4,7,4c1.4,0,2.8-0.4,4-1.1c16-9.3,21.6-29.9,12.3-45.9
					c-4.5-7.8-11.7-13.3-20.4-15.7c-8.7-2.3-17.7-1.1-25.5,3.4c-7.8,4.5-13.4,11.8-15.7,20.4c-2.2,8.1-1.2,16.5,2.8,24.2l0.1,0.3
					l-0.1,0.2c-8.5,13.9-14.6,32.7-17.9,55.8l-0.2,1.1l-0.7-0.9c-13.1-15.7-20.3-35.2-20.3-55c0-47.3,38.5-85.8,85.8-85.8
					c47.3,0,85.8,38.5,85.8,85.8s-38.5,85.8-85.8,85.8c-9.3,0-18.5-1.5-27.2-4.4c-4.2-1.4-8.8,0.9-10.2,5.1
					c-1.4,4.2,0.9,8.8,5.1,10.2c10.4,3.5,21.3,5.2,32.3,5.2c56.2,0,101.9-45.7,101.9-101.9S288.3,165.4,232.1,165.4z"/>
			</g>
			<g>
				<path d="M69.9,489.2h68.3c9.9,0,26.9,12.7,41.8,23.9c18.7,14,36.4,27.3,52.1,27.3h51.2c13,0,19.4,5.9,19.6,6
					c1.7,1.7,3.8,2.5,6,2.5c2.2,0,4.4-0.8,6-2.5c3.3-3.3,3.3-8.7,0-12.1c-1.1-1.1-11.6-11-31.6-11h-51.2c-10,0-26.9-12.7-41.8-23.9
					c-18.7-14-36.4-27.3-52.1-27.3H69.9c-4.7,0-8.5,3.8-8.5,8.5C61.4,485.3,65.2,489.2,69.9,489.2z"/>
				<path d="M308.9,549.4c-2.4,0-4.7-0.9-6.4-2.6c-0.3-0.2-6.7-5.9-19.2-5.9h-51.2c-15.8,0-33.6-13.3-52.4-27.4
					c-14.9-11.2-31.7-23.8-41.5-23.8H69.9c-5,0-9-4.1-9-9c0-5,4.1-9,9-9h68.3c15.8,0,33.6,13.3,52.4,27.4
					c14.9,11.2,31.7,23.8,41.5,23.8h51.2c20.3,0,30.9,10,32,11.2c3.5,3.5,3.5,9.2,0,12.8C313.5,548.4,311.3,549.4,308.9,549.4z
					 M69.9,472.6c-4.4,0-8,3.6-8,8c0,4.4,3.6,8,8,8h68.3c10.1,0,27.1,12.7,42.1,24c18.7,14,36.3,27.2,51.8,27.2h51.2
					c12.7,0,19.2,5.5,19.9,6.2c1.5,1.5,3.6,2.4,5.7,2.4c2.1,0,4.2-0.8,5.7-2.4c3.1-3.1,3.1-8.2,0-11.4c-1.1-1.1-11.4-10.9-31.3-10.9
					h-51.2c-10.1,0-27.1-12.7-42-23.9c-18.7-14-36.3-27.3-51.8-27.3H69.9z"/>
			</g>
			<g>
				<path d="M333.7,338.3l86.1,86.1V455h-30.6l-3.5-3.5v-22.1c0-4.7-3.8-8.5-8.5-8.5h-8.5v-8.5c0-4.7-3.8-8.5-8.5-8.5H338l-3.5-3.5
					v-22.1c0-4.7-3.8-8.5-8.5-8.5h-22.1l-0.8-0.8c-3.3-3.3-8.7-3.3-12.1,0s-3.3,8.7,0,12.1l3.3,3.3c1.6,1.6,3.8,2.5,6,2.5h17.1v17
					c0,2.3,0.9,4.4,2.5,6l8.5,8.5c1.6,1.6,3.8,2.5,6,2.5h17.1v8.5c0,4.7,3.8,8.5,8.5,8.5h8.5V455c0,2.3,0.9,4.4,2.5,6l8.5,8.5
					c1.6,1.6,3.8,2.5,6,2.5h42.7c4.7,0,8.5-3.8,8.5-8.5v-42.7c0-2.3-0.9-4.4-2.5-6l-88.6-88.6c-3.3-3.3-8.7-3.3-12.1,0
					C330.3,329.6,330.3,335,333.7,338.3z"/>
				<path d="M428.3,472.6h-42.7c-2.4,0-4.7-0.9-6.4-2.6l-8.5-8.5c-1.7-1.7-2.6-4-2.6-6.4v-16.6h-8c-5,0-9-4.1-9-9v-8h-16.6
					c-2.4,0-4.7-1-6.4-2.7l-8.5-8.5c-1.7-1.7-2.6-4-2.6-6.4v-16.6h-16.6c-2.4,0-4.7-0.9-6.4-2.6l-3.3-3.3c-3.5-3.5-3.5-9.3,0-12.8
					c1.7-1.7,4-2.6,6.4-2.6c0,0,0,0,0,0c2.4,0,4.7,0.9,6.4,2.6l0.7,0.7h21.9c5,0,9,4.1,9,9v21.9l3.2,3.2h21.9c5,0,9,4.1,9,9v8h8
					c5,0,9,4.1,9,9v21.9l3.2,3.2h29.9v-29.9l-86-86c-1.7-1.7-2.6-4-2.6-6.4s0.9-4.7,2.6-6.4c3.5-3.5,9.3-3.5,12.8,0l88.6,88.6
					c1.7,1.7,2.6,4,2.6,6.4v42.7C437.4,468.5,433.3,472.6,428.3,472.6z M297,366.9c-2.1,0-4.2,0.8-5.7,2.4c-3.1,3.1-3.1,8.2,0,11.4
					l3.3,3.3c1.5,1.5,3.5,2.4,5.7,2.4h17.6v17.6c0,2.1,0.8,4.2,2.3,5.7l8.5,8.5c1.5,1.5,3.6,2.4,5.7,2.4H352v9c0,4.4,3.6,8,8,8h9
					V455c0,2.1,0.8,4.2,2.4,5.7l8.5,8.5c1.5,1.5,3.5,2.4,5.7,2.4h42.7c4.4,0,8-3.6,8-8v-42.7c0-2.1-0.9-4.2-2.4-5.7l-88.6-88.6
					c-3.1-3.1-8.2-3.1-11.4,0c-1.5,1.5-2.4,3.5-2.4,5.7s0.8,4.2,2.4,5.7l86.3,86.3v31.3H389l-3.8-3.8v-22.3c0-4.4-3.6-8-8-8h-9v-9
					c0-4.4-3.6-8-8-8h-22.3l-3.8-3.8v-22.3c0-4.4-3.6-8-8-8h-22.3l-1-1C301.2,367.7,299.2,366.9,297,366.9
					C297,366.9,297,366.9,297,366.9z"/>
			</g>
			<g>
				<path d="M1.7,621.4c0-7.1-5.7-12.8-12.8-12.8s-12.8,5.7-12.8,12.8c0,7.1,5.7,12.8,12.8,12.8S1.7,628.5,1.7,621.4z"/>
				<path d="M-11.1,634.7c-7.3,0-13.3-6-13.3-13.3s6-13.3,13.3-13.3c7.3,0,13.3,6,13.3,13.3S-3.8,634.7-11.1,634.7z M-11.1,609.1
					c-6.8,0-12.3,5.5-12.3,12.3s5.5,12.3,12.3,12.3s12.3-5.5,12.3-12.3S-4.4,609.1-11.1,609.1z"/>
			</g>
			<g>
				<path d="M18.7,438h-51.2c-4.7,0-8.5,3.8-8.5,8.5c0,4.7,3.8,8.5,8.5,8.5h51.2c4.7,0,8.5,3.8,8.5,8.5v187.7c0,4.7-3.8,8.5-8.5,8.5
					h-51.2c-4.7,0-8.5,3.8-8.5,8.5c0,4.7,3.8,8.5,8.5,8.5h51.2c14.1,0,25.6-11.5,25.6-25.6V463.6C44.3,449.4,32.8,438,18.7,438z"/>
				<path d="M18.7,677.4h-51.2c-5,0-9-4.1-9-9s4.1-9,9-9h51.2c4.4,0,8-3.6,8-8V463.6c0-4.4-3.6-8-8-8h-51.2c-5,0-9-4.1-9-9
					s4.1-9,9-9h51.2c14.4,0,26.1,11.7,26.1,26.1v187.7C44.8,665.7,33.1,677.4,18.7,677.4z M-32.5,660.3c-4.4,0-8,3.6-8,8s3.6,8,8,8
					h51.2c13.8,0,25.1-11.3,25.1-25.1V463.6c0-13.8-11.3-25.1-25.1-25.1h-51.2c-4.4,0-8,3.6-8,8s3.6,8,8,8h51.2c5,0,9,4.1,9,9v187.7
					c0,5-4.1,9-9,9H-32.5z"/>
			</g>
			<g>
				<path d="M466.4,523.3c-9.4-16.3-30.4-21.9-46.1-12.8l-98.2,47.8c-15.3,7.6-30.7,7.6-64.5,7.6c-33,0-83.4-8.3-83.9-8.4
					c-4.7-0.8-9,2.4-9.8,7c-0.8,4.7,2.4,9,7,9.8c2.1,0.4,52.3,8.7,86.7,8.7c35.4,0,53.2,0,72-9.4l98.7-48.1
					c3.9-2.3,8.5-2.9,12.9-1.7s8.1,4,10.4,8c2.3,4,2.9,8.5,1.7,13c-1.2,4.4-4,8.1-8.2,10.5l-115.4,71.8
					c-0.2,0.2-24.9,15.7-80.6,15.7c-48.4,0-123.1-41.2-124.2-41.8c-0.8-0.4-19.3-9.4-55-9.4c-4.7,0-8.5,3.8-8.5,8.5
					c0,4.7,3.8,8.5,8.5,8.5c31,0,47,7.5,47.1,7.5c3.2,1.8,79.3,43.7,132.1,43.7c61.6,0,88.9-17.7,89.8-18.4l115-71.6
					c7.9-4.6,13.5-11.9,15.9-20.7C472.2,540.4,471,531.2,466.4,523.3z"/>
				<path d="M249.1,660.3c-52.8,0-128.8-41.8-132.4-43.8l0,0c-1.7-0.8-17.6-7.4-46.8-7.4c-5,0-9-4.1-9-9s4.1-9,9-9
					c35.9,0,54.5,9.1,55.2,9.5c3.2,1.7,76.6,41.7,124,41.7c55.4,0,80.1-15.4,80.4-15.6l115.4-71.8c4.1-2.3,6.8-5.9,8-10.2
					c1.2-4.3,0.6-8.7-1.7-12.6c-2.2-3.8-5.8-6.6-10.1-7.7c-4.3-1.1-8.7-0.6-12.6,1.7l-98.7,48.1c-18.9,9.4-36.7,9.4-72.2,9.4
					c-35.1,0-86.3-8.6-86.8-8.7c-4.9-0.8-8.2-5.5-7.4-10.4c0.8-4.9,5.5-8.2,10.4-7.4c0.5,0.1,50.8,8.4,83.9,8.4
					c33.7,0,49.1,0,64.2-7.6l98.2-47.8c7.7-4.4,16.7-5.6,25.6-3.2c9,2.4,16.5,8.2,21.2,16.2l0,0c4.6,8,5.9,17.3,3.5,26.3
					c-2.4,8.9-8.1,16.4-16.1,21l-114.9,71.5C338.1,642.6,311,660.3,249.1,660.3z M117.1,615.6L117.1,615.6l0.1,0.1
					c3.2,1.8,79.2,43.7,131.9,43.7c61.6,0,88.4-17.5,89.6-18.3l115-71.6c7.8-4.5,13.4-11.8,15.7-20.4c2.3-8.7,1.1-17.7-3.4-25.5l0,0
					c-4.5-7.8-11.8-13.4-20.6-15.7c-8.6-2.3-17.4-1.2-24.8,3.2l-98.2,47.8c-15.4,7.7-30.8,7.7-64.7,7.7c-33.1,0-83.5-8.3-84-8.4
					c-4.4-0.7-8.5,2.2-9.2,6.6c-0.7,4.4,2.2,8.5,6.6,9.2c0.5,0.1,51.7,8.6,86.7,8.6c35.4,0,53.1,0,71.8-9.3l98.7-48.1
					c4-2.3,8.8-3,13.3-1.7c4.5,1.2,8.3,4.1,10.7,8.2c2.4,4.1,3,8.8,1.8,13.3c-1.2,4.6-4.1,8.3-8.4,10.8L330,627.5
					c-0.2,0.2-25.2,15.7-80.9,15.7c-47.6,0-121.3-40.1-124.4-41.8c-0.8-0.4-19.2-9.4-54.8-9.4c-4.4,0-8,3.6-8,8c0,4.4,3.6,8,8,8
					C99.1,608.1,115.1,614.7,117.1,615.6z"/>
			</g>
		</g>
	</g>
</g>
</svg>
