<?xml version="1.0" encoding="utf-8"?>
<!-- Generator: Adobe Illustrator 19.0.0, SVG Export Plug-In . SVG Version: 6.00 Build 0)  -->
<svg version="1.1" id="Capa_1" xmlns="http://www.w3.org/2000/svg" xmlns:xlink="http://www.w3.org/1999/xlink" x="0px" y="0px"
	 viewBox="-59 164.9 512 512" enable-background="new -59 164.9 512 512" xml:space="preserve">
<circle fill="#DDF1F9" cx="172.6" cy="420.3" r="187.6"/>
<path fill="#1B9EEA" d="M90,481.4c0.9,9.3,6,17.6,13.1,23.2c-4,4.7-6.4,10.8-6.4,17.4v24.9c0,10.7,6.2,20,15.3,24.3
	c-0.5,2.5-0.8,5-0.8,7.7c0,20.8,16.9,37.7,37.7,37.7c20.8,0,37.7-16.9,37.7-37.7c0-1.7-0.1-3.4-0.3-5h62c-0.2,1.6-0.3,3.3-0.3,5
	c0,20.8,16.9,37.7,37.7,37.7c20.8,0,37.7-16.9,37.7-37.7c0-20.8-16.9-37.7-37.7-37.7c-12.6,0-23.8,6.2-30.7,15.8h-75.5
	c-6.9-9.5-18-15.8-30.7-15.8c-12.1,0-22.9,5.8-29.8,14.7c-3.2-1.7-5.5-5-5.5-8.9V522c0-5.5,4.5-10,10-10c0,0,0.1,0,0.1,0
	c0.1,0,0.1,0,0.2,0h197.8c16.4,0,33.3-12.1,38.6-27.6l50.3-147.6c2.8-8.4,1.9-16.8-2.7-23.1c-4.5-6.3-12.2-10-21-10h-18l-54.4-54.6
	c-8.5-8.5-22.2-8.5-30.7-0.2l-91.7,24.7l-24.6-44.2c-2.3-4.1-7.4-5.5-11.5-3.3l-49.3,27.5c-2,1.1-3.4,2.9-4,5.1
	c-0.6,2.2-0.3,4.5,0.8,6.4l21.5,38.6h-20.4c-5.4,0-10.6,1.4-15,4l-4-39.9c-0.4-4.3-4.1-7.6-8.4-7.6H22.5c-4.7,0-8.5,3.8-8.5,8.5
	c0,4.7,3.8,8.5,8.5,8.5h46.9L90,481.4z M285.6,558.1c11.5,0,20.8,9.3,20.8,20.8s-9.3,20.8-20.8,20.8c-11.5,0-20.8-9.3-20.8-20.8
	S274.2,558.1,285.6,558.1z M148.8,558.1c11.5,0,20.8,9.3,20.8,20.8s-9.3,20.8-20.8,20.8s-20.8-9.3-20.8-20.8
	S137.4,558.1,148.8,558.1z M302.4,261.1l42.5,42.7h-92.1l42.7-42.7C297.3,259.2,300.5,259.2,302.4,261.1z M259.7,272.9l-30.9,30.9
	h-20.1l-8.3-14.9L259.7,272.9z M122.2,264.3l34.5-19.2l32.7,58.7h-45.2L122.2,264.3z M394.4,331.4L344.2,479
	c-2.9,8.6-13.5,16.1-22.6,16.1H123.8c-8.4,0-16.2-7-17-15.4l-3-29.5h181.9c4.7,0,8.5-3.8,8.5-8.5s-3.8-8.5-8.5-8.5H102.1l-10-98.8
	c0,0,0,0,0,0l0,0c-0.4-3.8,0.7-7.3,3.1-9.9c2.3-2.6,5.6-4,9.3-4h260.7c0,0,0.1,0,0.1,0c0,0,0.1,0,0.1,0h21.5c3.3,0,5.9,1,7.3,2.9
	C395.4,325.4,395.5,328.2,394.4,331.4z"/>
</svg>
