<?xml version="1.0" encoding="utf-8"?>
<!-- Generator: Adobe Illustrator 19.0.0, SVG Export Plug-In . SVG Version: 6.00 Build 0)  -->
<svg version="1.1" id="Layer_1" xmlns="http://www.w3.org/2000/svg" xmlns:xlink="http://www.w3.org/1999/xlink" x="0px" y="0px"
	 viewBox="-41 164.9 512 512" enable-background="new -41 164.9 512 512" xml:space="preserve">
<circle fill="#DDF1F9" cx="146.6" cy="423.3" r="187.6"/>
<g>
	<g>
		<g>
			<path fill="#1B9EEA" d="M424.8,396.2v-10c0-15.3-12.4-27.7-27.7-27.7h-92.4v-46.2c0-5.1-4.1-9.2-9.2-9.2h-27.7v-27.7
				c0-5.1-4.1-9.2-9.2-9.2H132.9l-15.8-15.8c-3.6-3.6-9.5-3.6-13.1,0L51.3,303H36.7c-5.1,0-9.2,4.1-9.2,9.2V571
				c0,5.1,4.1,9.2,9.2,9.2h37.9c1.4,6.8,4.3,13.1,8.3,18.5H64.4c-5.1,0-9.2,4.1-9.2,9.2c0,5.1,4.1,9.2,9.2,9.2h55.4c0,0,0,0,0.1,0
				c22.3,0,40.9-15.9,45.2-37h130.3h37.9c1.4,6.8,4.3,13.1,8.3,18.5h-18.5c-5.1,0-9.2,4.1-9.2,9.2s4.1,9.2,9.2,9.2h55.4
				c0,0,0,0,0.1,0c22.3,0,40.9-15.9,45.2-37h37.9c5.1,0,9.2-4.1,9.2-9.2v-83.2v-37C471,423.5,451,400.6,424.8,396.2z M249.2,284.6
				V303h-79.3l-18.5-18.5H249.2z M110.6,269.9l11.9,11.9c0,0,0,0,0,0l21.2,21.2H77.5L110.6,269.9z M119.8,598.7
				c-15.3,0-27.7-12.4-27.7-27.7c0-15.3,12.4-27.7,27.7-27.7c15.3,0,27.7,12.4,27.7,27.7C147.6,586.3,135.1,598.7,119.8,598.7z
				 M286.2,367.7v157.1h-62.8c-5.1,0-9.2,4.1-9.2,9.2c0,5.1,4.1,9.2,9.2,9.2h62.8v18.5H165.1c-4.3-21.1-23-37-45.3-37
				s-41,15.9-45.3,37H45.9V413.9h37c5.1,0,9.2-4.1,9.2-9.2c0-5.1-4.1-9.2-9.2-9.2h-37V377h110.9c5.1,0,9.2-4.1,9.2-9.2
				c0-5.1-4.1-9.2-9.2-9.2H45.9v-37h9.2c0,0,0,0,0,0h231L286.2,367.7L286.2,367.7z M333.3,561.8h-28.7v-18.5h37
				C337.6,548.7,334.7,555,333.3,561.8z M406.3,571c0,15.3-12.4,27.7-27.7,27.7c-15.3,0-27.7-12.4-27.7-27.7
				c0-15.3,12.4-27.7,27.7-27.7h0.1c0,0,0,0,0,0C393.9,543.3,406.3,555.7,406.3,571C406.3,571,406.3,571,406.3,571
				C406.3,571,406.3,571,406.3,571z M452.5,561.8h-28.6c-4.3-21.1-23-37-45.3-37c0,0,0,0-0.1,0h-73.9V377h92.4
				c5.1,0,9.2,4.1,9.2,9.2v9.2h-64.7c-5.1,0-9.2,4.1-9.2,9.2v83.2c0,5.1,4.1,9.2,9.2,9.2h110.9V561.8z M369.4,413.9v64.7h-18.5
				v-64.7H369.4z M452.5,478.6h-64.7v-64.7h27.7c20.4,0,37,16.6,37,37L452.5,478.6L452.5,478.6z"/>
			<path fill="#1B9EEA" d="M187.2,543.3h5.8c5.1,0,9.2-4.1,9.2-9.2s-4.1-9.2-9.2-9.2h-5.8c-5.1,0-9.2,4.1-9.2,9.2
				S182.1,543.3,187.2,543.3z"/>
			<path fill="#1B9EEA" d="M187.2,377h5.8c5.1,0,9.2-4.1,9.2-9.2c0-5.1-4.1-9.2-9.2-9.2h-5.8c-5.1,0-9.2,4.1-9.2,9.2
				C177.9,372.8,182.1,377,187.2,377z"/>
		</g>
	</g>
</g>
</svg>
