<?xml version="1.0" encoding="utf-8"?>
<!-- Generator: Adobe Illustrator 19.0.0, SVG Export Plug-In . SVG Version: 6.00 Build 0)  -->
<svg version="1.1" id="Layer_1" xmlns="http://www.w3.org/2000/svg" xmlns:xlink="http://www.w3.org/1999/xlink" x="0px" y="0px"
	 viewBox="-41 164.9 512 512" enable-background="new -41 164.9 512 512" xml:space="preserve">
<circle fill="#DDF1F9" cx="166.6" cy="419.3" r="187.6"/>
<g>
	<g>
		<path fill="#1B9EEA" d="M448.9,392.3l-56.7-29.3l56.7-29.3c3.1-1.6,5.1-4.8,5.1-8.3c0-3.5-1.9-6.7-5-8.4l-141.1-75.2
			c-2.7-1.5-6-1.5-8.7-0.1l-70.9,36.6l-70.9-36.6c-2.8-1.4-6-1.4-8.7,0.1L7.5,317.1c-3.1,1.7-5,4.9-5,8.4c0,3.5,2,6.7,5.1,8.3
			l56.7,29.3L7.6,392.3c-3.1,1.6-5.1,4.8-5.1,8.3c0,3.5,1.9,6.7,5,8.4l70.3,37.5v85.9c0,3.5,1.9,6.7,5,8.3l141.1,75.2
			c1.4,0.7,2.9,1.1,4.4,1.1c1.5,0,3-0.4,4.4-1.1l141.1-75.2c3.1-1.6,5-4.8,5-8.3v-85.9L449,409c3.1-1.7,5-4.9,5-8.4
			C454,397.1,452,393.9,448.9,392.3z M303.4,260.8l120.9,64.5l-52.6,27.2L248.8,289L303.4,260.8z M32.2,325.3l120.9-64.5l54.7,28.2
			L84.8,352.5L32.2,325.3z M32.2,400.8l52.6-27.2l122.9,63.4l-54.7,28.2L32.2,400.8z M218.9,591.9L96.6,526.7v-70.2l52,27.7
			c1.4,0.7,2.9,1.1,4.4,1.1c1.5,0,3-0.3,4.3-1l61.5-31.8L218.9,591.9L218.9,591.9z M228.3,426.5l-122.9-63.4l122.9-63.4l122.9,63.4
			L228.3,426.5z M359.9,526.7l-122.3,65.2V452.5l61.5,31.8c1.4,0.7,2.8,1,4.3,1c1.5,0,3-0.4,4.4-1.1l52-27.7L359.9,526.7
			L359.9,526.7z M303.4,465.3l-54.7-28.2l122.9-63.4l52.6,27.2L303.4,465.3z"/>
	</g>
</g>
</svg>
