<?xml version="1.0" encoding="utf-8"?>
<!-- Generator: Adobe Illustrator 19.0.0, SVG Export Plug-In . SVG Version: 6.00 Build 0)  -->
<svg version="1.1" id="Capa_1" xmlns="http://www.w3.org/2000/svg" xmlns:xlink="http://www.w3.org/1999/xlink" x="0px" y="0px"
	 viewBox="-253.5 165.3 512 512" enable-background="new -253.5 165.3 512 512" xml:space="preserve">
<circle fill="#DDF1F9" cx="-17.4" cy="396.2" r="187.6"/>
<g>
	<g>
		<path fill="#1B9EEA" d="M-168.7,370.7l69.4,69.8l-19.4,83.1c-1.8,5.8-1.3,10.7,1.4,14.4c2.3,3.2,6,5,10,5c3.2,0,6.5-1.1,9.9-3.5
			l80.5-41.7l21,10.9c1.6-6.9,3.8-13.6,6.6-19.9l-27.6-14.3l-78.7,40.7l19-81.2l-69.1-69.6l87.1-11.1l41.7-82.9l41.7,82.9l87.1,11.1
			L42.8,434l2.8,11.9c8.9-6.5,18.8-11.6,29.6-15.1l59.8-60.2c8.3-6.5,7.2-13.3,6.4-16c-0.9-2.7-4.1-8.9-14.8-9.2l-88.2-11.2
			l-42-83.5c-3.6-10-10.4-11.1-13.3-11.1c-2.8,0-9.7,1.1-13.3,11.1l-42,83.5l-88.2,11.2c-10.7,0.3-13.9,6.5-14.8,9.2
			C-175.9,357.3-177,364.2-168.7,370.7z"/>
		<path fill="#1B9EEA" d="M212.7,538.9c0-37.1-20.7-69.4-51-86.1c-14-7.7-30-12.1-47.1-12.1c-16.7,0-32.4,4.2-46.2,11.6
			c-6.6,3.5-12.7,7.9-18.3,12.7c-10,8.8-18.2,19.5-24,31.7c-3,6.3-5.3,12.8-7,19.7c-1.7,7.2-2.7,14.7-2.7,22.4
			c0,17.1,4.4,33.1,12.1,47.1c16.7,30.4,49,51,86.1,51c5.5,0,10.9-0.6,16.2-1.5c41.2-6.9,73.6-39.4,80.5-80.5
			C212.2,549.8,212.7,544.4,212.7,538.9z M114.6,616.3c-42.7,0-77.4-34.7-77.4-77.4c0-4.3,0.4-8.4,1.1-12.5
			c1.2-7.1,3.3-13.8,6.2-20.1c3-6.3,6.7-12.2,11.2-17.5c5.1-6,11-11.1,17.7-15.3c12-7.6,26.1-12,41.3-12c42.7,0,77.4,34.7,77.4,77.4
			c0,4.1-0.4,8.1-1,12c-5.2,33.1-31.3,59.2-64.4,64.4C122.7,615.9,118.7,616.3,114.6,616.3z"/>
		<path fill="#1B9EEA" d="M118.8,518.6c-4.7,0-8.7,0.6-12,1.8c-2,0.7-4.7,2.2-8.2,4.5l4.1-25.1h47v-19.2H86.5l-4,31.9l-3.7,29.4
			l-0.3,2.3l20.3,1c1.8-3.4,4.5-5.8,8-7.1c2-0.7,4.4-1,7.1-1c5.8,0,10.1,2,12.8,6.1c2.7,4,4.1,9,4.1,14.9c0,6-1.5,10.9-4.4,14.9
			c-2.9,3.9-7.2,5.9-12.8,5.9c-4.9,0-8.5-1.3-11.1-4c-2.5-2.7-4.2-6.5-5.1-11.4H74.9c0.8,10.8,4.7,19.1,11.7,25
			c7,5.9,16,8.8,26.9,8.8c13.6,0,23.8-4.2,30.6-12.5c6.8-8.4,10.2-17.8,10.2-28.5c0-12.2-3.5-21.5-10.6-27.9
			C136.6,521.8,128.4,518.6,118.8,518.6z"/>
	</g>
</g>
</svg>
