<?xml version="1.0" encoding="utf-8"?>
<!-- Generator: Adobe Illustrator 19.0.0, SVG Export Plug-In . SVG Version: 6.00 Build 0)  -->
<svg version="1.1" id="Capa_1" xmlns="http://www.w3.org/2000/svg" xmlns:xlink="http://www.w3.org/1999/xlink" x="0px" y="0px"
	 viewBox="-97.5 165.4 512 512" enable-background="new -97.5 165.4 512 512" xml:space="preserve">
<circle fill="#DDF1F9" cx="129.1" cy="421.8" r="187.6"/>
<g>
	<path fill="#1B9EEA" d="M388.3,463.5c-5.9-3.3-13.4-2.5-20.6,2l-132.4,83.4c-3.7,2.3-4.8,7.2-2.5,10.9c2.3,3.7,7.2,4.8,10.9,2.5
		l132.4-83.4c2.8-1.8,4.3-1.6,4.6-1.5c0.2,0.1,1.2,1.4,1.2,4.7c0,8.9-6.6,20.8-14.1,25.6l-128.3,80.8c-6.8,4.3-13.1,5.5-17.1,3.2
		c-4.1-2.2-6.4-8.1-6.4-16.2c0-20.4,14.6-46.9,31.9-57.8l146.1-92c2.3-1.4,3.7-4,3.7-6.7c0-2.7-1.4-5.2-3.7-6.7L113.2,235.5
		c-2.6-1.6-5.8-1.6-8.4,0l-147.9,93.1c-21,13.2-37.5,43.1-37.5,67.9v4.2c0,24.8,16.5,54.7,37.5,67.9l220,138.5
		c3.7,2.3,8.6,1.2,10.9-2.5c2.3-3.7,1.2-8.6-2.5-10.9l-220-138.5C-51.1,445-64.9,420-64.9,400.7v-4.2c0-19.3,13.8-44.3,30.1-54.6
		L109,251.4l266,167.5l-135.5,85.3c-22,13.9-39.3,45.1-39.3,71.1c0,14.2,5.2,24.8,14.5,30c3.8,2.1,7.9,3.1,12.3,3.1
		c6.5,0,13.6-2.3,20.8-6.8l128.3-80.8c12-7.6,21.5-24.7,21.5-38.9C397.6,473.5,394.2,466.8,388.3,463.5z"/>
	<path fill="#1B9EEA" d="M291.1,426.8c2.6,0,5.2-1.3,6.7-3.7c2.3-3.7,1.2-8.6-2.5-10.9L113.2,297.6c-3.7-2.3-8.6-1.2-10.9,2.5
		c-2.3,3.7-1.2,8.6,2.5,10.9l182.2,114.7C288.2,426.4,289.7,426.8,291.1,426.8z"/>
	<path fill="#1B9EEA" d="M259.6,447.7c2.6,0,5.2-1.3,6.7-3.7c2.3-3.7,1.2-8.6-2.5-10.9l-77-48.3c-3.7-2.3-8.6-1.2-10.9,2.5
		c-2.3,3.7-1.2,8.6,2.5,10.9l77,48.3C256.7,447.4,258.2,447.7,259.6,447.7z"/>
	<path fill="#1B9EEA" d="M154.7,405.7c-3.7-2.3-8.6-1.2-10.9,2.5c-2.3,3.7-1.2,8.6,2.5,10.9l77.5,48.4c1.3,0.8,2.7,1.2,4.2,1.2
		c2.6,0,5.2-1.3,6.7-3.7c2.3-3.7,1.2-8.6-2.5-10.9L154.7,405.7z"/>
	<path fill="#1B9EEA" d="M72,318.2L6.5,359.5c-2.3,1.4-3.7,4-3.7,6.7c0,2.7,1.4,5.2,3.7,6.7l78.1,48.6c1.3,0.8,2.7,1.2,4.2,1.2
		c1.5,0,3-0.4,4.3-1.3l17.4-11.2c3.7-2.4,4.7-7.2,2.3-10.9c-2.4-3.7-7.2-4.7-10.9-2.3l-13.2,8.5l-63.2-39.3l50.7-31.9l62.3,39
		l-7.3,4.7c-3.7,2.4-4.7,7.2-2.3,10.9c2.4,3.7,7.2,4.7,10.9,2.3l17.7-11.4c2.3-1.5,3.6-4,3.6-6.7c0-2.7-1.4-5.2-3.7-6.6l-77-48.3
		C77.8,316.6,74.6,316.6,72,318.2z"/>
	<path fill="#1B9EEA" d="M203.3,485.9c2.3-3.7,1.2-8.6-2.5-10.9l-78.1-48.6c-3.7-2.3-8.6-1.2-10.9,2.5c-2.3,3.7-1.2,8.6,2.5,10.9
		l78.1,48.6c1.3,0.8,2.7,1.2,4.2,1.2C199.2,489.6,201.8,488.3,203.3,485.9z"/>
	<path fill="#1B9EEA" d="M-24.4,385c-2.3,3.7-1.2,8.6,2.5,10.9L171,515.7c1.3,0.8,2.7,1.2,4.2,1.2c2.6,0,5.2-1.3,6.7-3.7
		c2.3-3.7,1.2-8.6-2.5-10.9L-13.5,382.4C-17.2,380.1-22.1,381.3-24.4,385z"/>
</g>
</svg>
