<?xml version="1.0" encoding="utf-8"?>
<!-- Generator: Adobe Illustrator 19.0.0, SVG Export Plug-In . SVG Version: 6.00 Build 0)  -->
<svg version="1.1" id="Layer_1" xmlns="http://www.w3.org/2000/svg" xmlns:xlink="http://www.w3.org/1999/xlink" x="0px" y="0px"
	 viewBox="-41 164.9 512 512" enable-background="new -41 164.9 512 512" xml:space="preserve">
<circle fill="#DDF1F9" cx="169.6" cy="420.3" r="187.6"/>
<path fill="#1B9EEA" d="M428.6,428.2h-0.3V362v-52.7c0-4.9-4-9-9-9h-47.2l-35.2-69.7c-1.1-2.1-2.9-3.7-5.2-4.5
	c-2.3-0.7-4.7-0.6-6.8,0.5l-145.6,73.6H85.2c-19.6,0-35.5,15.3-36.2,34.9c0,0,0,0.1,0,0.1c0,0,0,0,0,0.1c0,0.4,0,0.8,0,1.3v243.1
	c0,20,16.3,36.3,36.3,36.3h334.1c4.9,0,9-4,9-9v-69h0.3c12.4,0,22.5-10.1,22.5-22.5v-64.9C451.1,438.3,441,428.2,428.6,428.2z
	 M410.4,318.3V353h-11.6l-17.6-34.7H410.4z M185.5,317.3C185.5,317.3,185.5,317.3,185.5,317.3L325,246.8l33.7,66.6c0,0,0,0,0,0
	l20.1,39.7h-17.4c-0.1-0.3-0.2-0.6-0.4-0.9l-23.1-45.6c-1.8-3.6-5.8-5.5-9.7-4.8l-2.7,0.5c-10.5,2-21.3-2.8-26.9-11.9l-1.8-2.9
	c-2.4-4-7.5-5.4-11.7-3.3L149.1,353h-34.2L185.5,317.3z M341.4,353H188.8l97.3-49.2c9.2,11.7,23.9,18.1,38.8,16.7L341.4,353z
	 M85.2,318.3h58.6l-65.8,33.3c-5.1-2.2-8.9-6.5-10.5-11.8c0-0.1,0-0.1,0-0.2c-0.1-0.3-0.2-0.7-0.3-1.1c-0.1-0.3-0.1-0.6-0.2-0.9
	c0-0.2-0.1-0.5-0.1-0.7c-0.1-0.4-0.1-0.9-0.1-1.3C67.4,325.9,75.4,318.3,85.2,318.3z M410.4,598.1H85.2c-10.1,0-18.4-8.2-18.4-18.4
	v-4.2h273.7c4.9,0,9-4,9-9s-4-9-9-9H66.9V366c3.6,2.1,7.5,3.6,11.8,4.3c0,0,0,0,0.1,0c0,0,0,0,0,0c0.1,0,0.2,0,0.2,0c0,0,0,0,0,0
	c0.1,0,0.1,0,0.2,0c0.5,0.1,1.1,0.2,1.6,0.2c0.1,0,0.2,0,0.3,0c0,0,0,0,0,0c0.2,0,0.5,0,0.7,0.1c0.4,0,0.7,0.1,1.1,0.1
	c0.1,0,0.2,0,0.3,0c0.7,0,1.4,0.1,2,0.1h66h196.1h46h17.1v19.8H134.3c-4.9,0-9,4-9,9s4,9,9,9h276.1v19.6H280.8c-4.9,0-9,4-9,9v91.9
	c0,4.9,4,9,9,9h129.6V598.1z M428.6,520.1h-9.3H289.8v-74h129.6h9.3c2.5,0,4.6,2,4.6,4.6v64.9l0,0
	C433.1,518.1,431.1,520.1,428.6,520.1z M334.3,449.3c-18.6,0-33.8,15.2-33.8,33.8c0,18.6,15.2,33.8,33.8,33.8
	c18.6,0,33.8-15.2,33.8-33.8C368.1,464.5,352.9,449.3,334.3,449.3z M334.3,499c-8.8,0-15.9-7.1-15.9-15.9c0-8.8,7.1-15.9,15.9-15.9
	c8.8,0,15.9,7.1,15.9,15.9C350.2,491.9,343,499,334.3,499z M376.6,564.8c-0.1-0.6-0.3-1.1-0.5-1.7c-0.2-0.5-0.5-1.1-0.8-1.5
	c-0.3-0.5-0.7-0.9-1.1-1.4c-2.1-2.1-5.2-3-8.1-2.4c-0.6,0.1-1.1,0.3-1.7,0.5c-0.5,0.2-1.1,0.5-1.5,0.8c-0.5,0.3-0.9,0.7-1.4,1.1
	c-0.4,0.4-0.8,0.9-1.1,1.4c-0.3,0.5-0.6,1-0.8,1.5c-0.2,0.5-0.4,1.1-0.5,1.7c-0.1,0.6-0.2,1.2-0.2,1.7c0,0.6,0.1,1.2,0.2,1.8
	c0.1,0.6,0.3,1.1,0.5,1.7c0.2,0.5,0.5,1.1,0.8,1.5c0.3,0.5,0.7,0.9,1.1,1.4c0.4,0.4,0.9,0.8,1.4,1.1c0.5,0.3,1,0.6,1.5,0.8
	c0.5,0.2,1.1,0.4,1.7,0.5c0.6,0.1,1.2,0.2,1.8,0.2c0.6,0,1.2-0.1,1.7-0.2c0.6-0.1,1.1-0.3,1.7-0.5c0.5-0.2,1.1-0.5,1.5-0.8
	c0.5-0.3,1-0.7,1.4-1.1c0.4-0.4,0.8-0.9,1.1-1.4c0.3-0.5,0.6-1,0.8-1.5c0.2-0.5,0.4-1.1,0.5-1.7c0.1-0.6,0.2-1.2,0.2-1.8
	C376.8,566,376.7,565.4,376.6,564.8z M115.8,397.9c-0.1-0.6-0.3-1.1-0.5-1.7c-0.2-0.5-0.5-1.1-0.8-1.5c-0.3-0.5-0.7-0.9-1.1-1.4
	s-0.9-0.8-1.4-1.1c-0.5-0.3-1-0.6-1.5-0.8c-0.5-0.2-1.1-0.4-1.7-0.5c-1.2-0.2-2.3-0.2-3.5,0c-0.6,0.1-1.1,0.3-1.7,0.5
	c-0.5,0.2-1.1,0.5-1.5,0.8c-0.5,0.3-0.9,0.7-1.4,1.1c-0.4,0.4-0.8,0.9-1.1,1.4c-0.3,0.5-0.6,1-0.8,1.5c-0.2,0.5-0.4,1.1-0.5,1.7
	c-0.1,0.6-0.2,1.2-0.2,1.7c0,0.6,0.1,1.2,0.2,1.8c0.1,0.6,0.3,1.1,0.5,1.7c0.2,0.5,0.5,1.1,0.8,1.5c0.3,0.5,0.7,0.9,1.1,1.4
	c0.4,0.4,0.9,0.8,1.4,1.1c0.5,0.3,1,0.6,1.5,0.8c0.5,0.2,1.1,0.4,1.7,0.5c0.6,0.1,1.2,0.2,1.7,0.2c0.6,0,1.2-0.1,1.8-0.2
	c0.6-0.1,1.1-0.3,1.7-0.5c0.5-0.2,1.1-0.5,1.5-0.8c0.5-0.3,0.9-0.7,1.4-1.1c0.4-0.4,0.8-0.9,1.1-1.4c0.3-0.5,0.6-1,0.8-1.5
	c0.2-0.5,0.4-1.1,0.5-1.7c0.1-0.6,0.2-1.2,0.2-1.8C116,399.1,115.9,398.5,115.8,397.9z"/>
</svg>
