<?xml version="1.0" encoding="utf-8"?>
<!-- Generator: Adobe Illustrator 19.0.0, SVG Export Plug-In . SVG Version: 6.00 Build 0)  -->
<svg version="1.1" id="Layer_1" xmlns="http://www.w3.org/2000/svg" xmlns:xlink="http://www.w3.org/1999/xlink" x="0px" y="0px"
	 viewBox="190 -99.9 1192 944.6" enable-background="new 190 -99.9 1192 944.6" xml:space="preserve">
<g>
	<g>
		<path d="M465.6,562.1h589.5l59.8-239.8l-72.9-89.7L949,116H365.3L334.4-5.2H190v41.9h112.2l128.3,501.8l-23.5,47.1
			c-12.6,25.8-11.3,55.4,3.9,79.6c9.7,15.1,23.5,26.4,39.6,32.9c-11.6,15.5-18.7,34.5-18.7,55.1c0,50.6,40.9,91.5,91.5,91.5
			c50.6,0,91.5-40.9,91.5-91.5c0-18.4-5.5-35.5-14.5-49.6h209.2c-9.3,14.2-14.5,31.3-14.5,49.6c0,50.6,40.9,91.5,91.5,91.5
			c50.6,0,91.5-40.9,91.5-91.5c0-18.4-5.5-35.5-14.5-49.6h67v-41.9H480.1c-13.9,0-26.1-6.8-33.5-18.7c-7.4-11.6-8.1-26.1-1.9-38.7
			L465.6,562.1z M886.2,703.6c27.4,0,49.6,22.2,49.6,49.6s-22.2,49.6-49.6,49.6s-49.6-22.2-49.6-49.6
			C836.5,725.8,858.8,703.6,886.2,703.6z M523.3,703.6c27.4,0,49.6,22.2,49.6,49.6s-22.2,49.6-49.6,49.6
			c-27.4,0-49.6-22.2-49.6-49.6C473.6,725.8,495.9,703.6,523.3,703.6z M376.3,157.9H952l58,65l62.6,95.6l-50.4,201.7H468.8
			L376.3,157.9z"/>
	</g>
</g>
<path d="M1143.8-99.9c-131.3,0-237.7,106.4-237.7,237.7s106.4,237.7,237.7,237.7s237.7-106.4,237.7-237.7S1275.1-99.9,1143.8-99.9z
	 M1259.8,115l-102,102c-3.9,3.9-9,5.9-14.1,5.9s-10.2-2-14.1-5.9l-101.7-101.7c-7.8-7.8-7.8-20.5,0-28.3c7.8-7.8,20.5-7.8,28.3,0
	l87.5,87.5l87.9-87.9c7.8-7.8,20.5-7.8,28.3,0C1267.6,94.5,1267.6,107.2,1259.8,115z"/>
</svg>
