<?xml version="1.0" encoding="utf-8"?>
<!-- Generator: Adobe Illustrator 19.0.0, SVG Export Plug-In . SVG Version: 6.00 Build 0)  -->
<svg version="1.1" id="Слой_1" xmlns="http://www.w3.org/2000/svg" xmlns:xlink="http://www.w3.org/1999/xlink" x="0px" y="0px"
	 viewBox="0 0 972 972" enable-background="new 0 0 972 972" xml:space="preserve">
<path id="XMLID_8_" d="M490.7,169.6L0,386.4v27.2h40.8v388.9h888.1V413.6H972v-27.2L490.7,169.6z M862.2,722H550.1V567.8H433.8V722
	H103.4V413.6h758.7V722z"/>
<path id="XMLID_2_" d="M322.5,538.7H153v-80.4h169.6V538.7z M470.3,458.3h-62.6v80.4h62.6V458.3z M560.3,458.3h-58v80.4h58V458.3z
	 M815.5,458.3H646v80.4h169.6V458.3z M326,597.3H156.5v80.4H326V597.3z M819,597.3H649.5v80.4H819V597.3z"/>
</svg>
