<?xml version="1.0" encoding="utf-8"?>
<!-- Generator: Adobe Illustrator 19.0.0, SVG Export Plug-In . SVG Version: 6.00 Build 0)  -->
<svg version="1.1" id="Слой_1" xmlns="http://www.w3.org/2000/svg" xmlns:xlink="http://www.w3.org/1999/xlink" x="0px" y="0px"
	 viewBox="0 0 972 972" enable-background="new 0 0 972 972" xml:space="preserve">
<polygon id="XMLID_1_" points="118,429.8 94.4,392.1 464,152.7 832.8,390.7 809.9,429.8 463.6,201.9 "/>
<polygon id="XMLID_2_" points="661.2,342.8 972.2,549.8 951.5,580.5 661.2,391.9 "/>
<path id="XMLID_8_" d="M909,776.8V561.3L652.1,394.1v-56L463.6,214l-184.4,120v17.5L0,531l22.9,38.8l17.9-12.8v218.8H23.9l1,44.5
	h906.3v-43.5H909z M278.8,776.4H71.5V657.1h207.4V776.4z M278.8,640.7H71.5V537.6L278.8,404V640.7z M417.9,690.3h-93.1V534.5h93.1
	V690.3z M417.9,303.4h83.5v138.1h-83.5V303.4z M585.8,690.3h-93.1V534.5h93.1V690.3z M806.4,690.3h-93.1V534.5h93.1V690.3z"/>
<rect id="XMLID_38_" x="592.7" y="158.1" width="65.3" height="122.3"/>
</svg>
