<?xml version="1.0" encoding="utf-8"?>
<!-- Generator: Adobe Illustrator 19.0.0, SVG Export Plug-In . SVG Version: 6.00 Build 0)  -->
<svg version="1.1" id="Слой_1" xmlns="http://www.w3.org/2000/svg" xmlns:xlink="http://www.w3.org/1999/xlink" x="0px" y="0px"
	 viewBox="0 0 111 113.2" enable-background="new 0 0 111 113.2" xml:space="preserve">
<circle id="XMLID_113_" fill="#E1F2FA" cx="55.5" cy="57.7" r="55.5"/>
<g id="XMLID_137_">
	<g id="XMLID_169_">
		<path id="XMLID_170_" fill="#3699D5" d="M104.3,112.6H35.9c-1.3,0-2.4-1.1-2.4-2.4v-18c0-0.7,0.3-1.3,0.8-1.7l36.5-33.9
			c6.9-6.4,12.1-12,12.1-20c0-7.7-5.3-13.1-12.8-13.1c-4.1,0-7.4,1.3-9.9,4c-3,3.2-4.4,8-4.1,13.3c0,0.7-0.2,1.3-0.6,1.8
			c-0.5,0.5-1.1,0.8-1.7,0.8h-19c-1.3,0-2.4-1.1-2.4-2.4v-3.9c0-20.4,16.4-37,36.6-37c21.5,0,37.7,16,37.7,37.3
			c0,8.6-2.9,16.5-8.8,24.2c-0.1,0.1-0.1,0.1-0.2,0.2l-13.3,14c0,0-0.1,0.1-0.1,0.1L68.8,89.8h35.6c1.3,0,2.4,1.1,2.4,2.4v18
			C106.7,111.5,105.6,112.6,104.3,112.6z M38.3,107.9h63.6V94.6H62.5c-1,0-1.9-0.6-2.2-1.5c-0.4-0.9-0.1-2,0.6-2.6l20.1-18
			l13.2-13.9c5.2-6.8,7.7-13.8,7.7-21.2c0-18.5-14.2-32.5-33-32.5c-17.5,0-31.8,14.5-31.8,32.2v1.5h14.2c0.1-5.6,2-10.8,5.4-14.4
			c3.4-3.6,8-5.5,13.3-5.5c10.2,0,17.5,7.5,17.5,17.8c0,10.8-7.6,17.8-13.6,23.5c0,0,0,0,0,0L38.3,93.2V107.9z"/>
	</g>
</g>
</svg>
