<?xml version="1.0" encoding="utf-8"?>
<!-- Generator: Adobe Illustrator 19.0.0, SVG Export Plug-In . SVG Version: 6.00 Build 0)  -->
<svg version="1.1" id="Слой_1" xmlns="http://www.w3.org/2000/svg" xmlns:xlink="http://www.w3.org/1999/xlink" x="0px" y="0px"
	 viewBox="0 0 111 115.5" enable-background="new 0 0 111 115.5" xml:space="preserve">
<circle id="XMLID_87_" fill="#E1F2FA" cx="55.5" cy="57.9" r="55.5"/>
<g id="XMLID_111_">
	<g id="XMLID_143_">
		<path id="XMLID_144_" fill="#3699D5" d="M68.3,115.3c-20.1,0-37-16.2-37.6-36.2c0-0.6,0.2-1.3,0.7-1.7c0.4-0.5,1.1-0.7,1.7-0.7
			h19.2c1.3,0,2.3,1,2.4,2.3c0.4,7.3,6.9,13,14.8,13c7.8,0,14.2-6.4,14.2-14.2c0-5.4-2.3-9.9-6.4-12.6c-3.8-2.5-8.1-3-13.4-3H62
			c-1.3,0-2.4-1.1-2.4-2.4v-18c0-1.3,1.1-2.4,2.4-2.4h1.3c9.1,0,12.8-2.5,12.8-8.6c0-4.3-3-7.1-7.6-7.1c-1.8,0-3.3,0.6-4.5,1.8
			c-1.2,1.2-1.8,2.9-1.7,4.8c0,0.6-0.2,1.3-0.7,1.7c-0.4,0.5-1.1,0.7-1.7,0.7h-19c-1.3,0-2.4-1.1-2.4-2.4c-0.1-7.8,3-15.3,8.7-21
			c5.7-5.7,13.4-9,21.3-9c17.3,0,31.4,13.7,31.4,30.6c0,7.5-2.5,13.8-7.1,18.3c9,5,14.6,15.9,14.6,28.8
			C107.4,99.2,90.6,115.3,68.3,115.3z M35.6,81.4c1.8,16.3,15.9,29.2,32.7,29.2c19.6,0,34.4-14,34.4-32.7c0-9.5-4-22-15.1-25.9
			c-0.9-0.3-1.5-1.1-1.6-1.9c-0.1-0.9,0.3-1.8,1-2.3c6.7-4.5,8.1-11.7,8.1-16.9C95.1,16.6,83.1,5,68.4,5c-6.6,0-13.2,2.8-17.9,7.6
			c-4.2,4.2-6.7,9.6-7.2,15.3h14.4c0.4-2.2,1.4-4.2,2.9-5.8c2-2.1,4.8-3.2,7.9-3.2c7.3,0,12.4,4.9,12.4,11.8
			c0,12.4-11.3,13.3-16.5,13.4v13.3c5.2,0,10.6,0.6,15.5,3.8c5.5,3.7,8.5,9.5,8.5,16.6c0,10.5-8.5,19-19,19
			c-9.7,0-17.7-6.6-19.3-15.3H35.6z"/>
	</g>
</g>
</svg>
