<?xml version="1.0" encoding="utf-8"?>
<!-- Generator: Adobe Illustrator 19.0.0, SVG Export Plug-In . SVG Version: 6.00 Build 0)  -->
<svg version="1.1" id="Слой_1" xmlns="http://www.w3.org/2000/svg" xmlns:xlink="http://www.w3.org/1999/xlink" x="0px" y="0px"
	 viewBox="0 0 240.1 186.9" enable-background="new 0 0 240.1 186.9" xml:space="preserve">
<path fill-rule="evenodd" clip-rule="evenodd" fill="#A1DAF8" d="M121.4,0c18,0,34.4,7.3,46.2,19.1c2.6,2.6,4.9,5.4,7,8.3
	c-2,0.3-4,0.8-5.9,1.4c-1.6-2-3.2-3.9-5-5.7C157.5,17,150.2,12.3,142,9.2c3,2.9,5.7,6.4,8.1,10.4c2.1,3.6,4,7.6,5.6,12h6.3
	c-4.8,3.2-7.5,7.6-8.4,12.9c-0.5-2.5-1.2-5-1.9-7.4h-28.2v3.9c-1.7-0.2-3.4-0.3-5.1-0.4c0-0.8,0.3-1.5,0.8-2.3
	c1.5-2.1,2.4-4,1.1-6.5c-0.6-1.1-1.4-1.9-2.4-2.3V5.9c-7.8,1.4-14.9,7.5-20.3,16.6c-1.7,2.8-3.2,5.9-4.5,9.2h9.9
	c-2.4,1.3-4.5,3.1-6.6,5.6h-5.3c-0.6,2-1.2,4.2-1.7,6.3c-2,0.5-4.1,1.2-6.1,1.9c0.5-2.8,1.2-5.6,2-8.2H68.6
	c-3.3,6.2-5.6,13.1-6.5,20.4c-2.2,2-4.2,4.2-6.1,6.6c0.3-17.6,7.5-33.6,19.1-45.2C87,7.3,103.3,0,121.4,0L121.4,0z M185.9,55.3
	c0.2,1.2,0.3,2.3,0.4,3.5c-1.1,0-2.2,0-3.3-0.1c0.7-0.7,1.3-1.4,1.9-2.2C185.3,56.1,185.6,55.7,185.9,55.3L185.9,55.3z M183.1,86.7
	c-3.3,9.4-8.6,17.8-15.5,24.7c-11.8,11.8-28.1,19.1-46.2,19.1s-34.4-7.3-46.2-19.1c-7.5-7.5-13.2-16.9-16.4-27.4l1.9,1
	c2.4,2.5,4.9,5.1,7.5,7.3c0.3,0.5,0.5,1,0.8,1.5h1c2.8,2.3,5.9,4.3,9.3,5.6h-6.8c2,2.8,4.2,5.5,6.7,7.9c6.1,6.1,13.4,10.8,21.6,13.8
	c-3-2.9-5.7-6.4-8.1-10.4c-1.6-2.7-3.1-5.6-4.4-8.8c2.1,0.3,4.2,0.5,6.3,0.5c0.9,1.9,1.9,3.8,2.9,5.5c5.4,9.1,12.5,15.2,20.3,16.6
	V116c1.6-1.2,2.5-3.1,2.6-5.2c0.1-1.5-0.3-3.1-0.9-4.5l-0.9-1.5c-0.3-0.4-0.6-0.8-0.8-1.4v-3.9h-0.8c0-0.4-0.1-0.8-0.1-1.2
	c2.7-0.8,5.4-1.6,8-2.5l1.2,0.5c2.6,1.1,5.2,2.1,7.7,3.2h-10.4v25.3c8.4-0.9,16-7.1,21.8-16.8c1-1.7,1.9-3.5,2.8-5.3
	c1.5-0.4,2.8-1.2,3.8-2.6c0.9-1.3,1.2-2.7,1.2-4.1c0-1.5-0.4-2.6-1.1-3.6c1.3-4.2,2.2-8.8,2.9-13.5c1-0.9,1.9-1.9,2.9-3
	c0.5-0.5,1-1.1,1.5-1.7c0.2-0.3,0.6-0.7,1-1c0.3,0.5,0.5,0.9,0.7,1.4c-0.6,6.9-1.8,13.4-3.6,19.4h16.5c1.4-2.6,2.6-5.3,3.7-8.1
	C179.1,86.3,180.9,86.6,183.1,86.7L183.1,86.7z M170.3,99.6h-14.8c-1.5,4.1-3.3,7.9-5.4,11.3c-2.4,4-5.1,7.5-8.1,10.4
	c8.2-3,15.6-7.8,21.6-13.8C166,105.1,168.3,102.4,170.3,99.6L170.3,99.6z M72,31.7h15.1c1.6-4.4,3.5-8.4,5.6-12
	c2.4-4,5.1-7.5,8.1-10.4c-8.2,3-15.6,7.8-21.6,13.8C76.5,25.7,74.1,28.6,72,31.7L72,31.7z M123.4,31.7h26.3
	c-1.3-3.3-2.8-6.4-4.5-9.2c-5.7-9.7-13.4-15.9-21.8-16.8V31.7z"/>
<path fill-rule="evenodd" clip-rule="evenodd" fill="#005883" d="M60.7,85.1c-2.7-1.5-5.4-2.9-8.1-4.4c-5.2-2.6-3.3-3.9-1.7-7.7
	c1.3-3,3-5.9,5-8.6c8.7-11.6,22.4-18.3,36.2-21.5l1.5-2.1c0.7-0.9,1.3-1.8,2-2.7c4.7-6.1,10-8.8,17.7-8.9c0.3,0,0.7,0,1,0
	c2.4-0.1,4.5,0.5,5.7,2.8c1.3,2.5,0.4,4.4-1.1,6.5c-0.5,0.8-0.8,1.5-0.8,2.3c11.9,0.7,24.5,3.6,34.9,9.7c0-0.3,0-0.7,0-1l0-0.1
	c0-7.7,2.9-14.2,9.7-18.3l0.2-0.1l0.2-0.1c7.1-3.3,14.5-4.5,22.3-3.6l4.6,0.5l-0.1,4.6c0,2.1-0.1,4.1-0.1,6.2
	c-0.2,7.5-0.1,11.7-4.9,18c-0.6,0.8-1.3,1.5-1.9,2.2c2.6,0,5.3,0.1,7.9,0.3c10.2,0.7,13.2,1.8,21.5,7.9l4.6,3.4l-3.9,4.1
	c-2.2,2.4-4.7,4.6-7.4,6.4c-5.3,3.5-15.6,6.2-21.9,5.9c-8.8-0.4-13.1-3.3-19.8-8.6c-2.3-1.8-2.8-3-3.9-5c-0.3,0.3-0.7,0.8-1,1
	c-0.5,0.5-1,1.1-1.5,1.7c-1.1,1.2-2.2,2.4-3.4,3.4c-2.9,2.5-5.9,4.7-9.1,6.8c0.3,0.2,0.6,0.5,0.9,0.7c1.1,0.9,2.2,1.9,3.3,2.8
	c2.2,1.8,3.6,3.4,3.7,6.4c0,1.4-0.3,2.8-1.2,4.1c-2,2.9-5.2,3.2-8.3,2.8c-3-0.4-4.5-1.1-7.1-2.2c-3.4-1.4-6.8-2.8-10.2-4.2l-1.2-0.5
	c-2.6,0.9-5.3,1.8-8,2.5c0.1,2.2,0.4,5.1,1.6,6.5l0.9,1.5c0.6,1.4,1,2.9,0.9,4.5c-0.1,2.3-1.2,4.4-3.2,5.6c-0.6,0.3-1.2,0.6-1.8,0.7
	c-3.3,0.8-7-1.1-9.5-3.1c-4-3-5.9-6.9-5.7-11.8c-6.8,0.8-13.6,0.3-20-2.4c-4.1-1.4-7.7-3.9-11-6.7C66.1,90.7,63.4,87.9,60.7,85.1z"
	/>
<path fill-rule="evenodd" clip-rule="evenodd" fill="#A1DAF8" d="M63.8,81.1c-2.2-1.2-4.4-2.4-6.5-3.6c-2.8-1.6-2.5-1.2-0.8-4.4
	c14.8-28.9,64.3-34.4,92.5-19.2c2.1,1.1,3.2,2.3,4.9,3.3c1.8,1.1,3.8,1,6.2-0.8c2.2-2.6,4.8-3.4,7.8-1.4c3,2,5.6,5.7,5.5,9.3
	c0,0.9-0.2,1.7-0.6,2.5c-1.6,3.1-3.5,2.9-5.9,2.5c-1.3-0.2-6.5-1.3-7.4-1.2c-0.7,0.1-1.3,0.3-1.9,0.7c-1.4,0.9-4.7,5-6.6,6.7
	c-11.6,10-26,16.1-42.3,19.9c-10,2.9-19,3.1-26.8-0.2c-3.4-1.2-6.5-3.2-9.6-5.8c5.4,1.7,11.5,1.5,16-1.8c4.7,2.8,9.1,3.3,13.5,2.8
	c-6.4-1.2-10.8-4-9-11.7c-1.3,1.5-2.7,3-4,4.5c-8.6,2.4-16.2,2.4-22.9,0.1v0C65.2,82.5,64.5,81.8,63.8,81.1z"/>
<path fill-rule="evenodd" clip-rule="evenodd" fill="#009FE3" d="M135.2,88.5c-2.4,1.1-4.7,2.2-7.1,3.2c4.3,1.8,8.6,3.6,12.9,5.4
	c6.1,1.9,7.7,0.7,6.7-2.3C143.7,91.8,139.3,86.1,135.2,88.5L135.2,88.5z M113.5,34.3c-9.3,0.1-12.4,4.9-15.7,9.5
	c4.9-0.9,10.4-1.1,15.7-1.2c-0.8-2.8-0.2-4.5,1.6-7C116.2,33.9,116.2,34.2,113.5,34.3L113.5,34.3z M105.2,102c0-1.1-0.1-2.3-0.1-3.4
	c2.3-0.5,4.6-1,6.8-1.5c0.1,4.5,0.7,8.5,3,11.1c0.4,0.9,0.5,1.7,0.5,2.3c-0.2,3.7-5.1,0.6-6.5-0.5
	C106.5,108.3,104.9,105.9,105.2,102z"/>
<path fill-rule="evenodd" clip-rule="evenodd" fill="#009FE3" d="M158.2,49.4c0,1.4,0.1,2.7,0.1,4.1c6.8-5.6,14.9-0.5,16.1,5.2
	c2.5-1.1,4.8-2.8,6.6-5.2c4.1-5.4,3.7-8.8,3.9-15c0-2.1,0.1-4.1,0.1-6.2c-7.4-0.8-13.8,0.5-19.6,3.2
	C160.1,38.6,158.2,43.5,158.2,49.4L158.2,49.4z M167.9,72.9c5.5-0.1,8.9-2.4,8.5-9c5.2-0.1,10-0.1,14.2,0.2
	c9.5,0.7,11.2,1.3,18.8,6.9c-2.5,2.6-4.6,4.5-6.5,5.7c-4.4,2.9-13.8,5.3-18.9,5.1c-8-0.3-11.5-3.2-16.8-7.5
	C164.7,72.2,165.2,72.9,167.9,72.9z"/>
<path fill-rule="evenodd" clip-rule="evenodd" fill="#005883" d="M101.6,77.8c9.3,0,16.9-5.7,16.9-12.7s-7.6-12.7-16.9-12.7
	c-9.3,0-16.9,5.7-16.9,12.7S92.2,77.8,101.6,77.8z"/>
<path fill-rule="evenodd" clip-rule="evenodd" fill="#FFFFFF" d="M101.6,54.9c7.9,0,14.4,4.5,14.4,10.1c0,5.6-6.4,10.1-14.4,10.1
	c-7.9,0-14.4-4.5-14.4-10.1C87.2,59.5,93.6,54.9,101.6,54.9L101.6,54.9z M103.7,58.3c-2.4,0-4.4,1.4-4.4,3.1c0,1.7,2,3.1,4.4,3.1
	c2.4,0,4.4-1.4,4.4-3.1C108.1,59.7,106.1,58.3,103.7,58.3z"/>
<path fill-rule="evenodd" clip-rule="evenodd" fill="#FFFFFF" d="M88.3,85.4c-4.9,4.1-12.3,3.7-19.7,0.9
	C75.3,86.6,82.7,87.2,88.3,85.4z"/>
<path id="XMLID_40_" fill-rule="evenodd" clip-rule="evenodd" fill="#009FE3" d="M25.1,167.1v-14.4c0-1.6-0.7-3.1-2.1-4.5
	c-1.4-1.4-2.9-2.1-4.5-2.1H8.5c-1.6,0-3.1,0.7-4.5,2.1c-1.4,1.4-2.1,2.9-2.1,4.5v14.4c0,1.6,0.7,3.1,2.1,4.5
	c1.4,1.4,2.9,2.1,4.5,2.1h9.9c1.7,0,3.3-0.7,4.6-2.1C24.4,170.2,25.1,168.7,25.1,167.1L25.1,167.1z M20.1,153.8v12.2
	c0,0.8-0.4,1.6-1,2.3c-0.7,0.7-1.5,1.1-2.3,1.1h-6.6c-0.8,0-1.6-0.4-2.3-1.1c-0.7-0.7-1.1-1.5-1.1-2.3v-12.2c0-0.8,0.4-1.6,1.1-2.3
	c0.7-0.7,1.5-1.1,2.3-1.1h6.6c0.8,0,1.6,0.3,2.3,1C19.8,152.2,20.1,152.9,20.1,153.8L20.1,153.8z M36.9,172.6
	c1.3,0.7,2.7,1.1,4.1,1.1h3.9c1.6,0,3.1-0.7,4.5-2.1c1.4-1.4,2.1-2.9,2.1-4.5v-14.4c0-1.6-0.7-3.1-2.1-4.5c-1.4-1.4-2.9-2.1-4.5-2.1
	h-3.3c-1.5,0-2.9,0.4-4.1,1.1l-3.9,2.2l-0.4-2.5c-0.1-0.6-0.4-0.9-0.9-0.9h-0.3l-1.5,0.2c-0.4,0-0.7,0.1-0.9,0.3
	c-0.1,0.2-0.2,0.5-0.2,1V186c0,0.6,0.3,0.9,0.8,0.9h0.3l2.8-0.4c0.4-0.1,0.7-0.2,0.9-0.4c0.1-0.2,0.2-0.5,0.2-0.9v-14L36.9,172.6
	L36.9,172.6z M43.2,169.3h-1.7c-1.4,0-2.9-0.3-4.3-0.8l-2.9-1.1v-14.6l3.5-1.4c1.4-0.6,2.8-0.8,4.3-0.8h1.1c0.8,0,1.6,0.4,2.3,1.1
	c0.7,0.7,1,1.5,1,2.3v12.2c0,0.8-0.4,1.6-1,2.3C44.8,168.9,44,169.3,43.2,169.3L43.2,169.3z M62.4,173.7h5.3L76,173
	c0.5,0,0.8-0.1,0.9-0.3c0.1-0.1,0.2-0.5,0.4-0.9l0.3-1.8c0-0.5-0.3-0.7-1-0.7H64.1c-0.8,0-1.6-0.4-2.3-1.1c-0.7-0.7-1.1-1.5-1.1-2.3
	v-2.8h11.3c1.6,0,3.1-0.7,4.5-2.1c1.4-1.4,2.1-2.9,2.1-4.5v-3.9c0-1.6-0.7-3.1-2.1-4.5c-1.4-1.4-2.9-2.1-4.5-2.1h-9.7
	c-1.6,0-3.1,0.7-4.5,2.1c-1.4,1.4-2.1,2.9-2.1,4.5v14.4c0,1.7,0.7,3.3,2.1,4.6C59.3,173,60.8,173.7,62.4,173.7L62.4,173.7z
	 M60.8,153.8c0.1-0.8,0.4-1.6,1.1-2.3c0.6-0.7,1.4-1.1,2.2-1.1h6.4c0.8,0,1.6,0.4,2.3,1.1c0.7,0.7,1.1,1.5,1.1,2.3v1.8
	c0,0.8-0.4,1.6-1.1,2.3c-0.7,0.7-1.5,1.1-2.3,1.1h-9.7V153.8L60.8,153.8z M80.3,169.3c1.1,0,1.9-0.2,2.3-0.5
	c0.4-0.3,0.6-1.1,0.8-2.3l3.2-19.3c0.1-0.5,0.2-0.8,0.4-0.9c0.2-0.1,0.5-0.2,0.9-0.2h15.6c0.5,0,0.8,0.1,0.9,0.2
	c0.1,0.1,0.2,0.4,0.2,0.9v25.4c0,0.5-0.1,0.8-0.2,0.9c-0.1,0.1-0.4,0.2-0.9,0.2h-2.8c-0.5,0-0.8-0.1-0.9-0.2s-0.2-0.4-0.2-0.9v-22.1
	h-8.7l-2.7,17c-0.4,2.6-1,4.3-1.9,5.1c-0.8,0.8-2.6,1.1-5.2,1.1h-1.6c-0.6,0-0.9-0.2-0.9-0.7l0.4-2.6c0.1-0.5,0.2-0.8,0.4-0.9
	C79.4,169.3,79.7,169.3,80.3,169.3L80.3,169.3z M138.1,167.1c0,1.7-0.7,3.2-2,4.6c-1.3,1.4-2.9,2.1-4.6,2.1h-9.9
	c-1.6,0-3.1-0.7-4.5-2.1c-1.4-1.4-2.1-2.9-2.1-4.5v-14.4c0-1.6,0.7-3.1,2.1-4.5c1.4-1.4,2.9-2.1,4.5-2.1h9.9c1.6,0,3.1,0.7,4.5,2.1
	c1.4,1.4,2.1,2.9,2.1,4.5V167.1L138.1,167.1z M133.1,153.8v12.2c0,0.8-0.4,1.6-1.1,2.3c-0.7,0.7-1.5,1.1-2.3,1.1h-6.6
	c-0.8,0-1.6-0.4-2.3-1.1c-0.7-0.7-1.1-1.5-1.1-2.3v-12.2c0-0.8,0.3-1.6,1.1-2.3c0.7-0.7,1.5-1.1,2.3-1.1h6.6c0.8,0,1.6,0.3,2.3,1
	C132.8,152.2,133.1,152.9,133.1,153.8L133.1,153.8z M147.4,146.9c0-0.4,0-0.7-0.1-0.8c-0.1-0.1-0.2-0.2-0.5-0.2
	c-0.2,0-0.4,0-0.6,0.1l-2.8,0.4c-0.4,0.1-0.7,0.2-0.9,0.4c-0.1,0.2-0.2,0.5-0.2,0.9v24.9c0,0.5,0.1,0.8,0.2,0.9s0.4,0.2,0.9,0.2h2.8
	c0.5,0,0.8-0.1,0.9-0.2c0.1-0.1,0.2-0.4,0.2-0.9v-11.1h4l7,11.2c0.4,0.7,1,1,1.7,1h3.2c0.6,0,0.8-0.1,0.8-0.3c0-0.1-0.1-0.4-0.4-0.8
	l-8.2-13.2L163,147c0.1-0.3,0.2-0.5,0.2-0.6c0-0.3-0.3-0.4-0.8-0.4h-3.2c-0.7,0-1.3,0.3-1.7,1l-6.2,10.1h-4V146.9L147.4,146.9z
	 M172.7,173.7h5.3l8.3-0.7c0.5,0,0.8-0.1,0.9-0.3s0.2-0.5,0.4-0.9l0.3-1.8c0-0.5-0.3-0.7-1-0.7h-12.4c-0.8,0-1.6-0.4-2.3-1.1
	c-0.7-0.7-1.1-1.5-1.1-2.3v-2.8h11.3c1.6,0,3.1-0.7,4.5-2.1c1.4-1.4,2.1-2.9,2.1-4.5v-3.9c0-1.6-0.7-3.1-2.1-4.5
	c-1.4-1.4-2.9-2.1-4.5-2.1h-9.7c-1.6,0-3.1,0.7-4.5,2.1c-1.4,1.4-2.1,2.9-2.1,4.5v14.4c0,1.7,0.7,3.3,2.1,4.6
	C169.6,173,171.1,173.7,172.7,173.7L172.7,173.7z M171.1,153.8c0.1-0.8,0.4-1.6,1.1-2.3c0.6-0.7,1.4-1.1,2.2-1.1h6.4
	c0.8,0,1.6,0.4,2.3,1.1c0.7,0.7,1,1.5,1,2.3v1.8c0,0.8-0.3,1.6-1,2.3c-0.7,0.7-1.5,1.1-2.3,1.1h-9.7V153.8L171.1,153.8z M195,150.5
	h10.2c0.8,0.1,1.5,0.5,2.1,1.2c0.6,0.7,1,1.4,1,2.2v3.9h-9.9c-1.6,0-3.1,0.7-4.5,2.1c-1.4,1.4-2.1,2.9-2.1,4.5v2.8
	c0,1.6,0.7,3.1,2.1,4.5c1.4,1.4,2.9,2.1,4.5,2.1h2.8c1.5,0,2.9-0.4,4.1-1.1l3.9-2.2l0.4,2.5c0.1,0.6,0.4,0.9,0.9,0.9h0.3l1.5-0.2
	c0.4,0,0.7-0.1,0.9-0.3c0.1-0.2,0.2-0.5,0.2-1v-19.6c0-1.6-0.7-3.1-2.1-4.5c-1.4-1.4-2.9-2.1-4.5-2.1h-2.8l-8.3,0.7
	c-0.5,0-0.8,0.1-0.9,0.3c-0.1,0.1-0.2,0.5-0.4,0.9l-0.2,1.4v0.3C194.1,150.2,194.4,150.5,195,150.5L195,150.5L195,150.5z
	 M204.8,168.4c-1.4,0.6-2.8,0.8-4.3,0.8H200c-0.8,0-1.6-0.4-2.3-1.1c-0.7-0.7-1.1-1.5-1.1-2.3v-0.7c0-0.8,0.4-1.6,1.1-2.3
	c0.7-0.7,1.5-1,2.3-1h8.3v5.1L204.8,168.4L204.8,168.4z M240.1,146.9c0-0.7-0.2-1-0.6-1c-0.2,0-0.4,0-0.6,0.1l-2.8,0.4
	c-0.4,0.1-0.7,0.2-0.9,0.4c-0.1,0.2-0.2,0.5-0.2,0.9v10H223v-10.8c0-0.4,0-0.7-0.1-0.8c-0.1-0.1-0.2-0.2-0.5-0.2
	c-0.2,0-0.4,0-0.6,0.1l-2.8,0.4c-0.4,0.1-0.7,0.2-0.9,0.4c-0.1,0.2-0.2,0.5-0.2,0.9v24.9c0,0.5,0.1,0.8,0.2,0.9s0.4,0.2,0.9,0.2h2.8
	c0.5,0,0.8-0.1,0.9-0.2c0.1-0.1,0.2-0.4,0.2-0.9v-10.5h12.2v10.5c0,0.5,0.1,0.8,0.2,0.9c0.1,0.1,0.4,0.2,0.9,0.2h2.8
	c0.5,0,0.8-0.1,0.9-0.2c0.1-0.1,0.2-0.4,0.2-0.9V146.9z"/>
</svg>
