<?xml version="1.0" encoding="utf-8"?>
<!-- Generator: Adobe Illustrator 19.0.0, SVG Export Plug-In . SVG Version: 6.00 Build 0)  -->
<svg version="1.1" id="Слой_1" xmlns="http://www.w3.org/2000/svg" xmlns:xlink="http://www.w3.org/1999/xlink" x="0px" y="0px"
	 viewBox="0 0 68.1 68.1" style="enable-background:new 0 0 68.1 68.1;" xml:space="preserve">
<path id="XMLID_82_" d="M34.5,67.9h-1c-10.1,0-18.3-8.2-18.3-18.3v-31c0-10.1,8.2-18.3,18.3-18.3h1c10.1,0,18.3,8.2,18.3,18.3v31
	C52.9,59.7,44.6,67.9,34.5,67.9z M33.6,2.3c-9,0-16.3,7.3-16.3,16.3v31c0,9,7.3,16.3,16.3,16.3h1c9,0,16.3-7.3,16.3-16.3v-31
	c0-9-7.3-16.3-16.3-16.3H33.6z"/>
<path id="XMLID_42_" d="M34.1,25.4L34.1,25.4c-1.2,0-2.3-1-2.3-2.2v-6.5c0-1.2,1-2.2,2.2-2.2h0c1.2,0,2.2,1,2.2,2.2v6.5
	C36.3,24.4,35.3,25.4,34.1,25.4z"/>
</svg>
