<?xml version="1.0" encoding="utf-8"?>
<!-- Generator: Adobe Illustrator 19.0.0, SVG Export Plug-In . SVG Version: 6.00 Build 0)  -->
<svg version="1.1" id="Capa_1" xmlns="http://www.w3.org/2000/svg" xmlns:xlink="http://www.w3.org/1999/xlink" x="0px" y="0px"
	 viewBox="-169 262.9 277 286" style="enable-background:new -169 262.9 277 286;" xml:space="preserve">
<g>
	<path d="M44.5,310.8l-23-23c-2.3-2.3-6.1-2.3-8.5,0c-2.3,2.3-2.3,6.1,0,8.5l12.2,12.2h-57.5c-3.3,0-6,2.7-6,6c0,3.3,2.7,6,6,6h58.6
		l-12.7,12.7c-2.3,2.3-2.3,6.1,0,8.5c1.2,1.2,2.7,1.8,4.2,1.8s3.1-0.6,4.2-1.8l22.4-22.4C46.8,316.9,46.8,313.1,44.5,310.8z"/>
	<path d="M23.6,389.8c-6.4-4.2-13-5.9-18.1-6.4c-6.6-8.9-16.2-13.7-27.2-13.7c-2.4,0-4.9,0.2-7.4,0.7c-6.5-7.5-15.5-11.5-25.6-11.5
		c-0.2,0-0.4,0-0.6,0l0-36.8c0-8.5-3.3-16-9.2-21.2c-5.2-4.6-12-7.1-19.2-7.1c-7.8,0-15.2,3-20.4,8.2c-5.2,5.2-8,12.2-8,20.2
		l0.1,53.2l0,33.7c-7.6,4.1-12.8,10.5-15.3,18.8c-3.7,12.7-0.8,29.1,9.1,50.2c6.5,13.8,14.3,25.9,18.1,31.4l1.7,22.1
		c0.7,9.9,9.1,17.6,18.9,17.6l78.6-0.1c9.5,0,17.6-7.1,18.8-16.5L21,509c18.6-29.1,25.4-59.3,20.2-89.7
		C38.4,402.8,30.1,394.1,23.6,389.8z M10.3,503.4c-0.6,0.9-0.9,1.9-1.1,2.9L6,530.7c-0.5,3.5-3.4,5.9-6.9,5.9l-78.6-0.1c0,0,0,0,0,0
		c-3.7,0-6.7-2.6-7-6.3l-1.8-23.3c-0.1-1.2-0.5-2.4-1.2-3.4c-7.2-10.5-47.4-71.4-14.8-85c2.6-1.1,4.3-3.6,4.3-6.4
		c0-16.6-0.1-71.7-0.1-90.1c0-10.9,8.2-16.4,16.4-16.4c8.2,0,16.4,5.5,16.4,16.4l0.1,42.3c0,3.9,3.2,7,7,7c0.4,0,0.7,0,1.1-0.1
		c1.4-0.2,2.9-0.4,4.5-0.4c5.9,0,12.8,2,18.1,9.3c1.3,1.8,3.4,2.8,5.6,2.8c0.6,0,1.2-0.1,1.8-0.2c2.1-0.5,4.7-1,7.5-1
		c6.2,0,13.4,2.2,18.8,10.7C-1.8,394,0,395,2,395.1c7.1,0.3,23.6,3.4,27.4,26.2C33,442.5,31.3,470.9,10.3,503.4z"/>
</g>
<path d="M-125.8,350.4c-1.8,0-3.6-0.9-4.6-2.5c-5.6-8.8-8.6-19.1-8.6-29.6c0-30.4,24.7-55,55-55c30.4,0,55,24.7,55,55
	c0,10.4-2.9,20.6-8.5,29.4c-1.6,2.6-5,3.3-7.6,1.7c-2.6-1.6-3.3-5-1.7-7.6c4.4-7,6.8-15.1,6.8-23.5c0-24.3-19.8-44-44-44
	c-24.3,0-44,19.8-44,44c0,8.4,2.4,16.6,6.9,23.7c1.6,2.6,0.9,6-1.7,7.6C-123.8,350.2-124.8,350.4-125.8,350.4z"/>
</svg>
